<svg width="44" height="19" viewBox="0 0 44 19" fill="none" xmlns="http://www.w3.org/2000/svg">
<g id="Affirm">
<path id="Affirm_2" fill-rule="evenodd" clip-rule="evenodd" d="M17.997 10.5792H16.1203V9.84274C16.1203 8.8849 16.6675 8.61082 17.1396 8.61082C17.6604 8.61082 18.0662 8.84199 18.0662 8.84199L18.7051 7.38182C18.7051 7.38182 18.0574 6.9585 16.8801 6.9585C15.5565 6.9585 14.0505 7.70467 14.0505 10.0466V10.5792H10.9088V9.84274C10.9088 8.8849 11.4559 8.61082 11.9271 8.61082C12.1953 8.61082 12.5562 8.67324 12.8547 8.84199L13.4936 7.38182C13.1122 7.15748 12.4996 6.9585 11.6686 6.9585C10.345 6.9585 8.83896 7.70467 8.83896 10.0466V10.5792H7.63728V12.1769H8.83896V17.8215H10.9088V12.1769H14.0505V17.8215H16.1203V12.1769H17.997V10.5792ZM2.88522 16.522C2.34095 16.522 2.06979 16.2548 2.06979 15.8129C2.06979 14.9955 2.98471 14.7156 4.65459 14.5391C4.65459 15.6325 3.91524 16.522 2.88522 16.522ZM3.60506 10.3663C2.41215 10.3663 1.0388 10.9291 0.293594 11.5231L0.97442 12.956C1.57234 12.4088 2.53895 11.9416 3.41096 11.9416C4.23907 11.9416 4.69653 12.2186 4.69653 12.7755C4.69653 13.152 4.39318 13.3413 3.81965 13.4154C1.67963 13.6944 0 14.2845 0 15.9348C0 17.2429 0.931503 18.0349 2.38679 18.0349C3.42461 18.0349 4.34929 17.4574 4.78919 16.6957V17.8213H6.72438V13.1052C6.72438 11.1574 5.37053 10.3663 3.60506 10.3663ZM23.0387 10.5792V17.8215H25.1104V14.3325C25.1104 12.6733 26.1141 12.1866 26.8145 12.1866C27.0876 12.1866 27.4563 12.2656 27.7001 12.448L28.0776 10.5333C27.7577 10.3968 27.4231 10.3665 27.149 10.3665C26.0839 10.3665 25.4148 10.8386 24.9729 11.7964V10.5792H23.0387ZM35.3409 11.6386C35.7672 11.0144 36.5855 10.3667 37.6809 10.3667C39.0045 10.3667 40.0999 11.188 40.0999 12.8159V17.8217H38.0301V13.4704C38.0301 12.5116 37.4527 12.1137 36.9055 12.1137C36.2207 12.1137 35.536 12.7399 35.536 14.0937V17.8217H33.4662V13.4851C33.4662 12.497 32.922 12.1137 32.3299 12.1137C31.6754 12.1137 30.9751 12.7545 30.9751 14.0937V17.8217H28.9024V10.5794H30.899V11.6747C31.2492 10.9754 32.007 10.3667 33.1024 10.3667C34.1061 10.3667 34.9449 10.832 35.3409 11.6386ZM21.3009 17.8217H19.233V10.5794H21.3009V17.8217Z" fill="#64748B"/>
<path id="Affirm-Arc" fill-rule="evenodd" clip-rule="evenodd" d="M31.2967 0.477539C25.7057 0.477539 20.7224 4.35864 19.3081 9.34876H21.335C22.5162 5.6325 26.526 2.37078 31.2967 2.37078C37.0954 2.37078 42.107 6.78542 42.107 13.6581C42.107 15.2011 41.907 16.5921 41.5286 17.821H43.495L43.5145 17.7537C43.8364 16.4857 44.0002 15.1085 44.0002 13.6581C44.0002 5.9934 38.4151 0.477539 31.2967 0.477539Z" fill="#0FA0EA"/>
</g>
</svg>
