<svg width="48" height="48" viewBox="0 0 48 48" fill="none" xmlns="http://www.w3.org/2000/svg">
<g id="Amex">
<g id="Vector">
<path fill-rule="evenodd" clip-rule="evenodd" d="M27.2874 20.0605H35.1021L37.4923 22.6423L39.9595 20.0605H42.3496L38.718 24.0237L42.3496 27.9412H39.8511L37.4609 25.3294L34.9811 27.9412H27.2874V20.0605ZM33.4805 23.1326H29.2172V21.6917H34.0934L36.221 23.9938L33.9991 26.3085H29.2172V24.737H33.4805V23.1326Z" fill="#1F72CD"/>
<path fill-rule="evenodd" clip-rule="evenodd" d="M8.11603 20.0605H11.0138L14.3075 27.5122V20.0605H17.4819L20.0259 25.4033L22.3706 20.0605H25.5291V27.9458H23.6072L23.5915 21.7669L20.7896 27.9458H19.0704L16.2529 21.7669V27.9458H12.2991L11.5496 26.178H7.50005L6.75205 27.9443H4.63369L8.11603 20.0605ZM8.1915 24.5438L9.52567 21.3946L10.8583 24.5438H8.1915Z" fill="#1F72CD"/>
<path fill-rule="evenodd" clip-rule="evenodd" d="M6.96576 18.5L2 29.4891H7.94471L8.68168 27.7369H10.3662L11.1032 29.4891H17.6466V28.1518L18.2297 29.4891H21.6145L22.1976 28.1235V29.4891H35.8062L37.4609 27.7824L39.0103 29.4891L46 29.5032L41.0186 24.0252L46 18.5H39.1187L37.508 20.1751L36.0073 18.5H21.2029L19.9317 21.3364L18.6306 18.5H12.6983V19.7918L12.0384 18.5H6.96576ZM35.1021 20.0605H27.2874V27.9412H34.9811L37.4609 25.3294L39.8511 27.9412H42.3496L38.718 24.0237L42.3496 20.0605H39.9595L37.4923 22.6423L35.1021 20.0605ZM11.0138 20.0605H8.11603L4.63369 27.9443H6.75205L7.50005 26.178H11.5496L12.2991 27.9458H16.2529V21.7669L19.0704 27.9458H20.7896L23.5915 21.7669L23.6072 27.9458H25.5291V20.0605H22.3706L20.0259 25.4033L17.4819 20.0605H14.3075V27.5122L11.0138 20.0605Z" fill="#EDEDED"/>
<path d="M29.2172 23.1326H33.4805V24.737H29.2172V26.3085H33.9991L36.221 23.9938L34.0934 21.6917H29.2172V23.1326Z" fill="#EDEDED"/>
<path d="M9.52567 21.3946L8.1915 24.5438H10.8583L9.52567 21.3946Z" fill="#EDEDED"/>
</g>
</g>
</svg>
