<svg width="48" height="48" viewBox="0 0 48 48" fill="none" xmlns="http://www.w3.org/2000/svg">
<g id="Apple Pay">
<path id="ApplePay" fill-rule="evenodd" clip-rule="evenodd" d="M7.86525 19.3881C8.68915 19.4576 9.51306 18.9711 10.028 18.3543C10.5344 17.7201 10.8691 16.8688 10.7832 16C10.0537 16.0348 9.1526 16.4865 8.63766 17.1207C8.16563 17.668 7.76226 18.5541 7.86525 19.3881ZM17.6664 30.5777V17.0338H22.687C25.2789 17.0338 27.0897 18.8408 27.0897 21.4818C27.0897 24.1229 25.2445 25.9472 22.6184 25.9472H19.7433V30.5777H17.6664ZM10.7747 19.5532C10.0488 19.5109 9.38653 19.7742 8.85158 19.9868C8.50732 20.1236 8.21579 20.2395 7.99401 20.2395C7.74512 20.2395 7.44156 20.1174 7.10073 19.9804C6.65414 19.8008 6.14355 19.5955 5.60812 19.6053C4.38085 19.6227 3.2394 20.3264 2.61289 21.4471C1.32555 23.6885 2.27818 27.0071 3.52262 28.8315C4.13196 29.735 4.86146 30.7254 5.82268 30.6906C6.24556 30.6745 6.54975 30.5438 6.86457 30.4086C7.227 30.2529 7.60351 30.0912 8.1914 30.0912C8.75891 30.0912 9.11895 30.2487 9.46457 30.3999C9.7932 30.5437 10.1088 30.6817 10.5773 30.6733C11.5728 30.6559 12.1993 29.7698 12.8087 28.8663C13.4662 27.8966 13.7552 26.9502 13.7991 26.8066L13.7991 26.8066L13.8042 26.7899C13.8032 26.7889 13.7951 26.7851 13.7807 26.7785C13.5609 26.6766 11.8807 25.898 11.8646 23.8101C11.8485 22.0576 13.1973 21.1697 13.4096 21.0299C13.4225 21.0214 13.4313 21.0157 13.4352 21.0127C12.577 19.727 11.2381 19.5879 10.7747 19.5532ZM30.8832 30.682C32.1877 30.682 33.3978 30.013 33.9471 28.9531H33.99V30.5777H35.9125V23.8362C35.9125 21.8815 34.3676 20.6218 31.9903 20.6218C29.7847 20.6218 28.154 21.8988 28.094 23.6537H29.9649C30.1194 22.8197 30.8832 22.2724 31.9303 22.2724C33.2004 22.2724 33.9128 22.8719 33.9128 23.9752V24.7223L31.3209 24.8787C28.9093 25.0264 27.6048 26.0254 27.6048 27.7629C27.6048 29.5178 28.9522 30.682 30.8832 30.682ZM31.4411 29.0748C30.334 29.0748 29.6302 28.5361 29.6302 27.7108C29.6302 26.8595 30.3082 26.3643 31.6041 26.2861L33.9128 26.1384V26.9029C33.9128 28.1713 32.8486 29.0748 31.4411 29.0748ZM42.2889 31.1077C41.4564 33.4794 40.5038 34.2612 38.4784 34.2612C38.3239 34.2612 37.8089 34.2439 37.6888 34.2091V32.5845C37.8175 32.6019 38.1351 32.6193 38.2981 32.6193C39.2164 32.6193 39.7314 32.2284 40.0489 31.2119L40.2377 30.6125L36.719 20.7521H38.8903L41.3363 28.7533H41.3792L43.8251 20.7521H45.9364L42.2889 31.1077ZM19.7431 18.8061H22.1376C23.9399 18.8061 24.9698 19.7791 24.9698 21.4905C24.9698 23.202 23.9399 24.1837 22.129 24.1837H19.7431V18.8061Z" fill="#64748B"/>
</g>
</svg>
