<svg width="26" height="22" viewBox="0 0 26 22" fill="none" xmlns="http://www.w3.org/2000/svg">
<g id="Logo">
<path id="Plane" d="M15.2317 21.5882C20.8614 21.6154 26 16.9547 26 11.2851C26 5.08549 20.8614 0.799689 15.2317 0.802003H10.3865C4.68961 0.799689 0 5.08664 0 11.2851C0 16.9559 4.68961 21.6154 10.3865 21.5882H15.2317Z" fill="#0079BE"/>
<path id="Ring" d="M10.4095 1.66113C5.20324 1.66287 0.985134 5.92089 0.983398 11.1763C0.985134 16.4312 5.20324 20.6892 10.4095 20.6909C15.6163 20.6892 19.8362 16.4312 19.8367 11.1763C19.8362 5.92089 15.6169 1.66287 10.4095 1.66113ZM4.43495 11.1763C4.43385 9.96122 4.79935 8.77405 5.48366 7.76997C6.16798 6.76589 7.13929 5.99161 8.27064 5.54832V16.8037C7.1392 16.3608 6.16778 15.5866 5.48342 14.5826C4.79907 13.5786 4.43365 12.3914 4.43495 11.1763ZM12.5478 16.8061V5.54774C13.68 5.9904 14.6521 6.76462 15.3369 7.76903C16.0217 8.77345 16.3873 9.96124 16.3858 11.1769C16.3871 12.3925 16.0214 13.5802 15.3366 14.5846C14.6518 15.5889 13.6798 16.3632 12.5478 16.8061Z" fill="white"/>
</g>
</svg>
