<svg width="44" height="19" viewBox="0 0 44 19" fill="none" xmlns="http://www.w3.org/2000/svg">
<g id="GooglePay">
<g id="Pay">
<path id="Union" fill-rule="evenodd" clip-rule="evenodd" d="M20.264 14.1515V8.84229H23.0042C24.1271 8.84229 25.0748 8.46604 25.8474 7.72401L26.0328 7.53588C27.4441 5.99956 27.3514 3.60623 25.8474 2.18487C25.0954 1.43238 24.0652 1.02479 23.0042 1.04569H18.6055V14.1515H20.264ZM20.264 7.23279V2.65516H23.0459C23.6434 2.65516 24.2101 2.88509 24.6325 3.30314C25.5289 4.18104 25.5495 5.64421 24.684 6.55346C24.2616 7.00286 23.664 7.25369 23.0459 7.23279H20.264ZM33.7688 5.88462C33.058 5.2262 32.0897 4.89176 30.8638 4.89176C29.2877 4.89176 28.103 5.47703 27.3201 6.63711L28.7829 7.56727C29.3186 6.77297 30.05 6.37583 30.9771 6.37583C31.5643 6.37583 32.1309 6.5953 32.5739 6.99245C33.0065 7.36869 33.2538 7.91216 33.2538 8.48697V8.87367C32.6151 8.51833 31.8116 8.3302 30.8226 8.3302C29.6689 8.3302 28.7417 8.60194 28.0515 9.15585C27.3613 9.70976 27.0111 10.4413 27.0111 11.3715C26.9905 12.2181 27.351 13.0228 27.9897 13.5663C28.6387 14.1515 29.4628 14.4442 30.4312 14.4442C31.5746 14.4442 32.4812 13.9321 33.1714 12.9078H33.2435V14.1515H34.8299V8.62284C34.8299 7.46275 34.4796 6.54305 33.7688 5.88462ZM29.2679 12.5002C28.9279 12.2494 28.7219 11.8418 28.7219 11.4029C28.7219 10.9116 28.9485 10.5041 29.3916 10.1801C29.8449 9.85608 30.4116 9.68886 31.0813 9.68886C32.0085 9.67841 32.7298 9.88743 33.2449 10.3055C33.2449 11.0162 32.9667 11.6328 32.4207 12.1553C31.9261 12.657 31.2564 12.9392 30.5558 12.9392C30.0922 12.9496 29.6388 12.7929 29.2679 12.5002ZM38.3942 18.0916L43.9364 5.18439H42.1336L39.5686 11.6223H39.5377L36.9108 5.18439H35.108L38.7445 13.5767L36.6842 18.0916H38.3942Z" fill="#3C4043"/>
</g>
<g id="G">
<path id="Blue" d="M14.5377 7.69262C14.5377 7.18052 14.4965 6.66841 14.4141 6.16675H7.41943V9.06173H11.4267C11.2619 9.99189 10.7262 10.828 9.94329 11.3505V13.2318H12.3332C13.7342 11.9254 14.5377 9.99189 14.5377 7.69262Z" fill="#4285F4"/>
<path id="Green" d="M7.41974 15.0501C9.41822 15.0501 11.1077 14.3813 12.3335 13.2316L9.9436 11.3504C9.274 11.8103 8.41898 12.0715 7.41974 12.0715C5.48306 12.0715 3.84513 10.7442 3.25795 8.96753H0.795898V10.9115C2.05268 13.4511 4.61774 15.0501 7.41974 15.0501Z" fill="#34A853"/>
<path id="Yellow" d="M3.25836 8.96766C2.94926 8.03751 2.94926 7.02374 3.25836 6.08313V4.14966H0.795915C-0.265305 6.27125 -0.265305 8.77954 0.795915 10.9011L3.25836 8.96766Z" fill="#FBBC04"/>
<path id="Red" d="M7.41974 2.97905C8.48079 2.95815 9.50064 3.36574 10.2629 4.10778L12.385 1.95483C11.0356 0.679783 9.2637 -0.0204476 7.41974 0.000454847C4.61774 0.000454847 2.05268 1.60994 0.795898 4.14958L3.25795 6.09351C3.84513 4.30635 5.48306 2.97905 7.41974 2.97905Z" fill="#EA4335"/>
</g>
</g>
</svg>
