<svg width="48" height="48" viewBox="0 0 48 48" fill="none" xmlns="http://www.w3.org/2000/svg">
<g id="Klarna">
<path id="Klarna_2" fill-rule="evenodd" clip-rule="evenodd" d="M4.21257 27.9113H2V18H4.21257V27.9113ZM9.73676 18H7.57217C7.57217 19.8239 6.75648 21.498 5.33431 22.5933L4.47674 23.2535L7.79956 27.9117H10.5316L7.47412 23.6255C8.9234 22.1418 9.73676 20.1457 9.73676 18ZM13.2656 27.9086H11.1761V18.0019H13.2656V27.9086ZM19.5792 21.0558V21.4941C19.0154 21.0987 18.3349 20.8663 17.6009 20.8663C15.6584 20.8663 14.0836 22.4853 14.0836 24.4824C14.0836 26.4794 15.6584 28.0984 17.6009 28.0984C18.3349 28.0984 19.0154 27.866 19.5792 27.4707V27.9087H21.575V21.0558H19.5792ZM19.572 24.4824C19.572 25.4562 18.7623 26.2456 17.7635 26.2456C16.7648 26.2456 15.9552 25.4562 15.9552 24.4824C15.9552 23.5086 16.7648 22.7194 17.7635 22.7194C18.7623 22.7194 19.572 23.5086 19.572 24.4824ZM40.633 21.4941V21.0558H42.6287V27.9087H40.633V27.4707C40.0692 27.866 39.3887 28.0984 38.6546 28.0984C36.7121 28.0984 35.1373 26.4794 35.1373 24.4824C35.1373 22.4853 36.7121 20.8663 38.6546 20.8663C39.3887 20.8663 40.0692 21.0987 40.633 21.4941ZM38.8182 26.2456C39.8169 26.2456 40.6265 25.4562 40.6265 24.4824C40.6265 23.5086 39.8169 22.7194 38.8182 22.7194C37.8194 22.7194 37.0098 23.5086 37.0098 24.4824C37.0098 25.4562 37.8194 26.2456 38.8182 26.2456ZM31.5914 20.8715C30.7942 20.8715 30.0397 21.1259 29.5353 21.8279V21.0562H27.5481V27.9087H29.5597V24.3075C29.5597 23.2654 30.2394 22.755 31.0578 22.755C31.9349 22.755 32.4392 23.2937 32.4392 24.2933V27.9087H34.4325V23.5508C34.4325 21.956 33.1992 20.8715 31.5914 20.8715ZM24.6615 21.0559V21.9484C25.0616 21.413 25.807 21.0563 26.6174 21.0563V23.0504C26.6137 23.0503 26.61 23.0501 26.6063 23.0499C26.6022 23.0497 26.598 23.0495 26.5937 23.0495C25.8041 23.0495 24.6661 23.6297 24.6661 24.7092V27.9087H22.6182V21.0559H24.6615ZM43.495 26.7656C43.495 26.0544 44.0557 25.478 44.7474 25.478C45.439 25.478 45.9998 26.0544 45.9998 26.7656C45.9998 27.4766 45.439 28.0531 44.7474 28.0531C44.0557 28.0531 43.495 27.4766 43.495 26.7656Z" fill="#64748B"/>
</g>
</svg>
