<svg width="32" height="21" viewBox="0 0 32 21" fill="none" xmlns="http://www.w3.org/2000/svg">
<g id="Logo" clip-path="url(#clip0_2_2743)">
<path id="Right" d="M31.9999 10.1245C31.9999 15.5906 27.5776 20.0129 22.1115 20.0129C19.8042 20.0129 17.6892 19.2164 16.0137 17.8979C18.321 16.085 19.7768 13.2833 19.7768 10.1245C19.7768 6.9657 18.2935 4.16399 16.0137 2.35111C17.6892 1.03265 19.8042 0.236084 22.1115 0.236084C27.5776 0.236084 31.9999 4.68587 31.9999 10.1245Z" fill="#0099DF"/>
<path id="Middle" d="M16.0137 2.35107C16.0137 2.35108 16.0137 2.35107 16.0137 2.35107C18.2936 4.16395 19.7768 6.96567 19.7768 10.1245C19.7768 13.2833 18.321 16.085 16.0137 17.8979L15.9862 17.8979C13.7064 16.1125 12.2231 13.2833 12.2231 10.1245C12.2231 6.96572 13.7064 4.16401 15.9862 2.35114C15.9862 2.35111 15.9863 2.35116 15.9862 2.35114L16.0137 2.35107Z" fill="#6C6BBD"/>
<path id="Left" d="M12.2232 10.1247C12.2232 6.96594 13.7064 4.16423 15.9863 2.35135C14.3107 1.0329 12.1957 0.236328 9.88841 0.236328C4.42232 0.236328 0 4.65865 0 10.1247C0 15.5908 4.42232 20.0132 9.88841 20.0132C12.1957 20.0132 14.3107 19.2166 15.9863 17.8981C13.7064 16.1127 12.2232 13.2835 12.2232 10.1247Z" fill="#EB001B"/>
</g>
<defs>
<clipPath id="clip0_2_2743">
<rect width="32" height="19.7768" fill="white" transform="translate(0 0.236084)"/>
</clipPath>
</defs>
</svg>
