<svg width="48" height="49" viewBox="0 0 48 49" fill="none" xmlns="http://www.w3.org/2000/svg">
<g id="payment.pix">
<path id="Vector" d="M35.7508 35.385C34.9405 35.3868 34.1379 35.2281 33.3892 34.9182C32.6406 34.6082 31.9607 34.153 31.3888 33.579L25.0888 27.279C24.8658 27.0671 24.5699 26.949 24.2623 26.949C23.9547 26.949 23.6588 27.0671 23.4358 27.279L17.1118 33.603C16.5401 34.1773 15.8603 34.6326 15.1116 34.9426C14.3629 35.2526 13.5602 35.4111 12.7498 35.409H11.5078L19.4878 43.389C21.9778 45.879 26.0188 45.879 28.5088 43.389L36.5098 35.385H35.7508ZM12.7498 13.101C14.3998 13.101 15.9478 13.743 17.1118 14.907L23.4358 21.231C23.5445 21.3398 23.6735 21.4262 23.8156 21.4851C23.9577 21.544 24.11 21.5744 24.2638 21.5744C24.4176 21.5744 24.5699 21.544 24.712 21.4851C24.8541 21.4262 24.9831 21.3398 25.0918 21.231L31.3918 14.931C31.9631 14.357 32.6425 13.9019 33.3907 13.592C34.1388 13.282 34.941 13.1233 35.7508 13.125H36.5098L28.5088 5.124C27.3123 3.92827 25.6899 3.25659 23.9983 3.25659C22.3067 3.25659 20.6844 3.92827 19.4878 5.124L11.5078 13.104L12.7498 13.101Z" fill="#0F172A"/>
<path id="Vector_2" d="M43.131 19.743L38.295 14.907C38.1864 14.9516 38.0703 14.975 37.953 14.976H35.754C34.617 14.976 33.504 15.438 32.703 16.242L26.403 22.542C26.1228 22.8236 25.7897 23.0471 25.4229 23.1996C25.0561 23.3521 24.6627 23.4306 24.2655 23.4306C23.8682 23.4306 23.4749 23.3521 23.108 23.1996C22.7412 23.0471 22.4081 22.8236 22.128 22.542L15.804 16.215C14.9926 15.407 13.895 14.952 12.75 14.949H10.05C9.93804 14.9481 9.82721 14.9267 9.72296 14.886L4.86896 19.743C2.37896 22.233 2.37896 26.274 4.86896 28.767L9.72296 33.621C9.82606 33.5795 9.93585 33.5571 10.047 33.555H12.75C13.89 33.555 15 33.096 15.804 32.292L22.125 25.965C22.7017 25.4158 23.4676 25.1096 24.264 25.1096C25.0603 25.1096 25.8262 25.4158 26.403 25.965L32.703 32.265C33.504 33.069 34.617 33.528 35.754 33.528H37.953C38.073 33.528 38.19 33.558 38.295 33.6L43.131 28.764C45.621 26.274 45.621 22.233 43.131 19.743Z" fill="#0F172A"/>
</g>
</svg>
