<svg width="48" height="48" viewBox="0 0 48 48" fill="none" xmlns="http://www.w3.org/2000/svg">
<g id="Skrill">
<path id="Skrill_2" fill-rule="evenodd" clip-rule="evenodd" d="M33.6055 16C32.6095 16 31.8006 16.8047 31.8006 17.7967C31.8006 18.7892 32.6095 19.5922 33.6055 19.5922C34.6032 19.5922 35.4115 18.7892 35.4115 17.7967C35.4115 16.8047 34.6032 16 33.6055 16ZM7.56887 22.0196C7.10607 21.9899 6.03382 21.9204 6.03382 20.9605C6.03382 19.8022 7.5765 19.8022 8.15544 19.8022C9.17372 19.8022 10.4911 20.101 11.4332 20.3817C11.4332 20.3817 11.9576 20.5661 12.4039 20.754L12.4456 20.7656V17.593L12.3899 17.5761C11.2777 17.1892 9.9867 16.8175 7.59175 16.8175C3.4629 16.8175 2 19.2094 2 21.2605C2 22.4415 2.50914 25.2237 7.23629 25.5441L7.24067 25.5444C7.64576 25.5691 8.70212 25.6335 8.70212 26.6219C8.70212 27.4411 7.83107 27.9231 6.36641 27.9231C4.76156 27.9231 3.20364 27.517 2.25809 27.1301V30.3967C3.67406 30.7672 5.2707 30.9504 7.14185 30.9504C11.1774 30.9504 12.9864 28.6869 12.9864 26.4427C12.9864 23.8991 10.9633 22.246 7.56887 22.0196ZM19.7539 20.6096L19.754 20.6093L19.7543 20.6086C19.7619 20.5886 19.768 20.5728 19.7725 20.5614H24.0955C23.9723 20.9529 23.201 23.3156 21.4424 25.5342C21.4424 25.5342 23.401 28.9484 23.8485 30.8005H19.322C19.322 30.8005 18.7812 28.3415 17.6867 26.7076V30.8005H13.9068V17.5615L17.6867 16.8175V24.1221C19.026 22.5105 19.6228 20.952 19.7539 20.6096ZM42.3369 30.8005V17.4693L46 16.8175V30.8005H42.3369ZM29.7092 20.4231C26.3253 20.5316 24.606 22.043 24.606 25.0469V30.8004H28.2991V26.1078C28.2991 24.3099 28.536 23.5391 30.6811 23.4656V20.4762C30.3204 20.3998 29.7092 20.4231 29.7092 20.4231ZM31.7756 30.8005V20.5731H35.4381V30.8005H31.7756ZM36.99 17.4693L40.6508 16.8175V30.8005H36.99V17.4693Z" fill="#862165"/>
</g>
</svg>
