<svg width="36" height="16" viewBox="0 0 36 16" fill="none" xmlns="http://www.w3.org/2000/svg">
<g id="Logo">
<g id="Shape">
<path d="M24.857 3.90443C24.5186 3.90248 24.1831 3.96734 23.8698 4.09531C23.5565 4.22327 23.2715 4.41182 23.0313 4.65015L22.9113 4.05872H20.8627V15.133L23.1941 14.6273V11.9444C23.6578 12.3328 24.2436 12.5452 24.8484 12.5444C26.5113 12.5444 28.037 11.1816 28.037 8.16443C28.037 5.40443 26.4941 3.90443 24.857 3.90443ZM24.2998 10.4444C24.0954 10.4562 23.8908 10.4223 23.701 10.3452C23.5113 10.2682 23.341 10.1498 23.2027 9.99872V6.47586C23.3416 6.31928 23.5137 6.19569 23.7065 6.11413C23.8993 6.03257 24.1079 5.99509 24.317 6.00443C25.1741 6.00443 25.757 6.973 25.757 8.21586C25.757 9.45872 25.1656 10.4444 24.2998 10.4444Z" fill="#635BFF"/>
<path d="M32.3398 3.90443C30.0941 3.90443 28.7313 5.84158 28.7313 8.28443C28.7313 11.173 30.3427 12.6387 32.6399 12.6387C33.5364 12.6533 34.4217 12.4379 35.2113 12.013V10.0844C34.4942 10.4462 33.7001 10.6286 32.897 10.6159C31.9713 10.6159 31.1827 10.2816 31.0627 9.15872H35.6741C35.6741 9.03015 35.6741 8.52443 35.6741 8.30158C35.7513 5.84158 34.5856 3.90443 32.3398 3.90443ZM31.0798 7.39301C31.0798 6.31301 31.7399 5.85872 32.3227 5.85872C32.9056 5.85872 33.5227 6.31301 33.5227 7.39301H31.0798Z" fill="#635BFF"/>
<path d="M14.5713 4.70158L14.4256 3.99872H12.437V12.3216H14.7341V6.68158C14.9416 6.4297 15.221 6.24714 15.535 6.15831C15.849 6.06947 16.1826 6.07858 16.4913 6.18443V3.99872C16.1406 3.86135 15.7518 3.85698 15.3981 3.98645C15.0445 4.11591 14.7504 4.37027 14.5713 4.70158Z" fill="#635BFF"/>
<path d="M2.96554 6.50158C2.96554 6.12444 3.27411 5.97872 3.76268 5.97872C4.5724 5.99615 5.36609 6.2078 6.07697 6.59586V4.34158C5.34199 4.0444 4.55542 3.89583 3.76268 3.90444C1.8684 3.90444 0.608398 4.91586 0.608398 6.61301C0.608398 9.27015 4.15697 8.84158 4.15697 9.98158C4.15697 10.4273 3.77983 10.573 3.29983 10.573C2.39422 10.5201 1.51358 10.2559 0.728398 9.80158V12.1073C1.53766 12.4682 2.41372 12.6551 3.29983 12.6559C5.23697 12.6559 6.57411 11.6702 6.57411 9.94729C6.53125 7.06729 2.96554 7.58158 2.96554 6.50158Z" fill="#635BFF"/>
<path d="M9.66841 2.02729L7.39698 2.52443V10.1787C7.38527 10.5013 7.43946 10.8229 7.55623 11.1238C7.67301 11.4247 7.84991 11.6987 8.07614 11.9289C8.30237 12.1591 8.57317 12.3408 8.87199 12.4629C9.17082 12.5849 9.49139 12.6448 9.81412 12.6387C10.3772 12.6639 10.9383 12.5552 11.4513 12.3216V10.393C11.1513 10.5216 9.68555 10.9587 9.68555 9.53586V6.10729H11.4513V4.10158H9.68555L9.66841 2.02729Z" fill="#635BFF"/>
<path d="M17.357 3.27872L19.697 2.79015V0.938721L17.357 1.42729V3.27872Z" fill="#635BFF"/>
<path d="M19.697 4.05872H17.357V12.3216H19.697V4.05872Z" fill="#635BFF"/>
</g>
</g>
</svg>
