<svg width="37" height="13" viewBox="0 0 37 13" fill="none" xmlns="http://www.w3.org/2000/svg">
<g id="Logo" clip-path="url(#clip0_2_2735)">
<g id="Shape">
<path d="M26.8986 1.47886C26.3074 1.24432 25.3698 0.985352 24.2103 0.985352C21.2504 0.985352 19.1661 2.56372 19.1533 4.82031C19.1287 6.48522 20.6456 7.40995 21.7802 7.96508C22.9398 8.53234 23.334 8.9026 23.334 9.40823C23.3222 10.1848 22.3969 10.5428 21.534 10.5428C20.3373 10.5428 19.6962 10.3582 18.7218 9.92616L18.3271 9.74095L17.9077 12.343C18.6106 12.6633 19.9058 12.9475 21.2504 12.96C24.3954 12.96 26.4428 11.406 26.4671 9.00127C26.4791 7.6817 25.6781 6.67059 23.9512 5.84437C22.9029 5.31398 22.2609 4.95635 22.2609 4.41367C22.2732 3.92033 22.8039 3.41502 23.9873 3.41502C24.9617 3.39027 25.6776 3.62449 26.2199 3.85887L26.491 3.98196L26.8986 1.47886Z" fill="url(#paint0_linear_2_2735)"/>
<path d="M16.0333 12.7872H13.036L14.9107 1.19547H17.9078L16.0333 12.7872Z" fill="url(#paint1_linear_2_2735)"/>
<path fill-rule="evenodd" clip-rule="evenodd" d="M34.582 1.19547H32.2636C31.5487 1.19547 31.0055 1.40494 30.697 2.15724L26.245 12.787H29.3899C29.3899 12.787 29.9077 11.3564 30.019 11.0482H33.8672C33.9532 11.4552 34.2248 12.787 34.2248 12.787H37L34.582 1.19547ZM30.8822 8.68067C31.1291 8.01474 32.0789 5.4374 32.0789 5.4374C32.0739 5.44732 32.1125 5.34024 32.1701 5.18056L32.1708 5.17861L32.1713 5.17733C32.2573 4.93882 32.385 4.58481 32.4732 4.32762L32.6827 5.32643C32.6827 5.32643 33.2503 8.10111 33.3735 8.68067H30.8822Z" fill="url(#paint2_linear_2_2735)"/>
<path d="M10.5326 1.19547L7.59731 9.09994L7.27655 7.49682L7.27626 7.49582L6.22824 2.16986C6.05565 1.42952 5.52527 1.21989 4.87163 1.19547H0.049334L0 1.42969C1.17614 1.73045 2.22809 2.16384 3.14982 2.70272L5.82127 12.7749H8.99079L13.702 1.19547H10.5326Z" fill="url(#paint3_linear_2_2735)"/>
</g>
</g>
<defs>
<linearGradient id="paint0_linear_2_2735" x1="-2.37857e-08" y1="6.99786" x2="37" y2="6.99786" gradientUnits="userSpaceOnUse">
<stop stop-color="#222357"/>
<stop offset="1" stop-color="#254AA5"/>
</linearGradient>
<linearGradient id="paint1_linear_2_2735" x1="-2.37857e-08" y1="6.99786" x2="37" y2="6.99786" gradientUnits="userSpaceOnUse">
<stop stop-color="#222357"/>
<stop offset="1" stop-color="#254AA5"/>
</linearGradient>
<linearGradient id="paint2_linear_2_2735" x1="-2.37857e-08" y1="6.99786" x2="37" y2="6.99786" gradientUnits="userSpaceOnUse">
<stop stop-color="#222357"/>
<stop offset="1" stop-color="#254AA5"/>
</linearGradient>
<linearGradient id="paint3_linear_2_2735" x1="-2.37857e-08" y1="6.99786" x2="37" y2="6.99786" gradientUnits="userSpaceOnUse">
<stop stop-color="#222357"/>
<stop offset="1" stop-color="#254AA5"/>
</linearGradient>
<clipPath id="clip0_2_2735">
<rect width="37" height="11.9746" fill="white" transform="translate(0 0.985352)"/>
</clipPath>
</defs>
</svg>
