<svg xmlns="http://www.w3.org/2000/svg" width="24" height="24" viewBox="0 0 24 24" fill="none">
  <path d="M20.393 12.2067C20.393 11.5949 20.3434 10.9798 20.2376 10.3779H11.7485V13.8436H16.6098C16.4081 14.9614 15.7599 15.9502 14.8108 16.5785V18.8273H17.7111C19.4142 17.2598 20.393 14.9449 20.393 12.2067Z" fill="#4285F4"/>
  <path d="M11.7485 21C14.1759 21 16.2229 20.203 17.7144 18.8273L14.8141 16.5785C14.0072 17.1275 12.9655 17.4384 11.7518 17.4384C9.40387 17.4384 7.41306 15.8543 6.69875 13.7246H3.70591V16.0428C5.23375 19.0819 8.34563 21 11.7485 21Z" fill="#34A853"/>
  <path d="M6.69544 13.7246C6.31844 12.6068 6.31844 11.3965 6.69544 10.2787V7.96049H3.70591C2.42941 10.5036 2.42941 13.4997 3.70591 16.0428L6.69544 13.7246Z" fill="#FBBC04"/>
  <path d="M11.7485 6.56163C13.0317 6.54179 14.2718 7.02461 15.201 7.91089L17.7706 5.34135C16.1435 3.81352 13.9841 2.97354 11.7485 3C8.34563 3 5.23375 4.91806 3.70591 7.96049L6.69544 10.2787C7.40644 8.14569 9.40057 6.56163 11.7485 6.56163Z" fill="#EA4335"/>
</svg>