<svg xmlns="http://www.w3.org/2000/svg" width="24" height="24" viewBox="0 0 24 24" fill="none">
  <path d="M9.42538 16.263C9.97782 16.9539 10.5405 17.8227 10.8349 18.3474C11.1935 19.0296 11.3422 19.4902 11.6089 20.3152C11.7649 20.7671 11.9136 20.9041 12.2255 20.9041C12.5666 20.9041 12.7225 20.6738 12.8421 20.3152C13.0913 19.5412 13.2837 18.9523 13.5884 18.3911C14.7632 16.1755 16.6786 14.6013 17.7572 12.444C17.7572 12.444 18.4671 11.1263 18.4671 9.28093C18.4671 7.56093 17.7674 6.36567 17.7674 6.36567L9.42976 16.2776L9.42538 16.263Z" fill="#34A853"/>
  <path d="M6.59758 12.2108C7.26954 13.7413 8.5508 15.0823 9.42538 16.263L14.0606 10.7677C14.0606 10.7677 13.4062 11.6248 12.224 11.6248C10.9063 11.6248 9.83352 10.5753 9.83352 9.24886C9.83352 8.33639 10.3772 7.70377 10.3772 7.70377C6.96636 8.21103 7.15585 9.03751 6.58737 12.2079L6.59758 12.2108Z" fill="#FBBC04"/>
  <path d="M14.119 3.28569C15.6641 3.78274 16.9759 4.83078 17.763 6.36129L14.0607 10.7779C14.0607 10.7779 14.6044 10.1424 14.6044 9.23283C14.6044 7.87869 13.4616 6.85689 12.2284 6.85689C11.0579 6.85689 10.3918 7.70377 10.3918 7.70377C10.676 7.05659 13.6132 3.50579 14.1233 3.28715L14.119 3.28569Z" fill="#4285F4"/>
  <path d="M7.44301 5.22871C8.36424 4.13257 9.97929 2.99854 12.2095 2.99854C13.2867 2.99854 14.1044 3.28423 14.1044 3.28423L10.3874 7.70085C10.1367 7.56486 7.69081 5.66017 7.44301 5.22288V5.22871Z" fill="#1A73E8"/>
  <path d="M6.59758 12.2108C6.59758 12.2108 5.98975 11.0038 5.98975 9.26635C5.98975 7.61923 6.63402 6.17617 7.44738 5.24329L10.3918 7.72126L6.60195 12.2108L6.59758 12.2108Z" fill="#EA4335"/>
</svg>