<svg xmlns="http://www.w3.org/2000/svg" width="24" height="24" viewBox="0 0 24 24" fill="none">
  <path d="M12.007 7.91646C11.8663 7.91646 11.7271 7.92364 11.59 7.93771C11.4529 7.95178 11.3176 7.97263 11.1847 8C11.0518 8.02737 10.9213 8.06126 10.7933 8.10127L10.4178 8.2394L10.0603 8.41235L9.72289 8.61801L9.40765 8.85422L9.11676 9.11894L8.85227 9.4101L8.61623 9.72555L8.41068 10.0632L8.23794 10.421C8.18602 10.5434 8.13984 10.6688 8.09985 10.7969C8.05987 10.9249 8.02604 11.0557 7.99867 11.1887C7.9713 11.3217 7.95049 11.457 7.93639 11.5943C7.9223 11.7315 7.91522 11.8708 7.91522 12.0116C7.91522 12.1524 7.9224 12.2917 7.93639 12.4289C7.95031 12.5651 7.97109 12.7005 7.99867 12.8345C8.02604 12.968 8.05987 13.0983 8.09985 13.2263C8.13984 13.3544 8.18597 13.4798 8.23794 13.6022L8.41068 13.96L8.61623 14.2976L8.85227 14.6131L9.11676 14.9043L9.40765 15.169L9.72289 15.4052L10.0603 15.6109L10.4178 15.7838L10.7933 15.922L11.1847 16.0232C11.3187 16.0508 11.4539 16.0716 11.59 16.0856C11.7285 16.0997 11.8677 16.1068 12.007 16.1068C12.1477 16.1068 12.2868 16.0996 12.4239 16.0856C12.5599 16.0716 12.6952 16.0508 12.8291 16.0232L13.2206 15.922L13.5961 15.7838L13.9536 15.6109L14.291 15.4052L14.6063 15.169L14.8972 14.9043L15.1617 14.6131L15.3977 14.2976L15.6033 13.96L15.776 13.6022L15.9141 13.2263C15.9541 13.0983 15.9879 12.9675 16.0153 12.8345L16.0776 12.4289C16.0916 12.2916 16.0988 12.1523 16.0988 12.0115C16.0988 11.8707 16.0916 11.7315 16.0776 11.5942C16.0637 11.458 16.0429 11.3227 16.0153 11.1886C15.9879 11.0551 15.9541 10.9249 15.9141 10.7968L15.776 10.4209L15.6033 10.0632L15.3977 9.72549L15.1617 9.41005L14.8972 9.11889L14.6063 8.85417L14.291 8.61796L13.9536 8.4123L13.5961 8.23935L13.2206 8.10122L12.8291 7.99995L12.4239 7.93766C12.2854 7.92349 12.1462 7.91645 12.007 7.91646ZM12.007 9.32994C12.1 9.32994 12.1918 9.33456 12.2822 9.3437L12.5488 9.38411L12.8062 9.44984L13.0528 9.53955L13.2872 9.65201L13.5076 9.78578L13.7136 9.93968L13.9036 10.1123L14.0761 10.3024L14.2299 10.5086L14.3635 10.7298L14.4758 10.9644C14.5095 11.0448 14.5395 11.1271 14.5655 11.2112C14.5915 11.2954 14.6134 11.3814 14.6311 11.469C14.6488 11.5566 14.6619 11.6458 14.6715 11.7363L14.6852 12.0118C14.6852 12.1049 14.6806 12.1969 14.6715 12.2874C14.6623 12.378 14.6489 12.4672 14.6311 12.5547C14.6133 12.6423 14.5914 12.7283 14.5655 12.8125L14.4758 13.0593L14.3635 13.294L14.2299 13.515L14.0761 13.7213L13.9036 13.9114L13.7136 14.0841L13.5076 14.238L13.2872 14.3717L13.0528 14.4842L12.8062 14.5739L12.5488 14.6396L12.2822 14.68C12.1907 14.6892 12.0988 14.6938 12.0069 14.6937C11.9149 14.6938 11.823 14.6892 11.7315 14.68L11.465 14.6396C11.3775 14.6219 11.2916 14.5999 11.2075 14.5739L10.9609 14.4842L10.7265 14.3717L10.5061 14.238L10.3001 14.0841L10.1101 13.9114L9.93761 13.7213L9.78384 13.515L9.65016 13.294L9.5379 13.0593L9.4482 12.8125L9.38259 12.5547L9.34225 12.2874C9.33308 12.1959 9.32849 12.1039 9.32851 12.0118C9.32849 11.9198 9.33308 11.8279 9.34225 11.7363C9.35132 11.6458 9.3648 11.5566 9.38259 11.469C9.4002 11.3821 9.42211 11.296 9.44825 11.2113L9.53795 10.9645L9.65021 10.7298L9.78389 10.5087L9.93766 10.3025L10.1101 10.1124L10.3001 9.93973L10.5062 9.78583L10.7266 9.65206L10.961 9.5396C11.0417 9.50566 11.124 9.47572 11.2076 9.44989L11.4651 9.38417C11.5526 9.3664 11.6417 9.35284 11.7316 9.34375C11.8231 9.33457 11.915 9.32992 12.007 9.32994Z" fill="url(#paint0_radial_2_2215)"/>
  <path d="M16.2647 6.75152C16.2322 6.75153 16.1997 6.75317 16.1674 6.75645C16.1351 6.75972 16.1029 6.76462 16.0711 6.77114C16.0392 6.77764 16.0077 6.78575 15.9767 6.79542C15.9457 6.80511 15.9151 6.81635 15.8852 6.82911C15.8553 6.84189 15.826 6.85616 15.7975 6.87189C15.769 6.88758 15.7413 6.9047 15.7145 6.92319C15.6877 6.94169 15.6618 6.96154 15.6369 6.98265C15.6121 7.00374 15.5883 7.02607 15.5657 7.04956C15.543 7.07306 15.5216 7.09769 15.5014 7.12335C15.4812 7.14902 15.4623 7.17568 15.4448 7.20325C15.4272 7.2308 15.411 7.25922 15.3963 7.28839C15.3816 7.31759 15.3683 7.34752 15.3565 7.37805C15.3447 7.40858 15.3345 7.43969 15.3258 7.47125C15.3171 7.50282 15.31 7.5348 15.3045 7.56707C15.2989 7.59935 15.295 7.63187 15.2927 7.66454C15.2911 7.68768 15.2903 7.71087 15.2903 7.73407C15.2903 7.76684 15.2919 7.79959 15.2951 7.8322C15.2984 7.86479 15.3032 7.8972 15.3097 7.9293C15.3161 7.96141 15.3242 7.99316 15.3338 8.02446C15.3434 8.05576 15.3545 8.08656 15.3672 8.11673C15.3799 8.14692 15.394 8.17645 15.4096 8.20521C15.4252 8.23397 15.4421 8.26192 15.4605 8.28897C15.4788 8.31599 15.4985 8.34208 15.5194 8.36712C15.5404 8.39219 15.5625 8.41618 15.5858 8.43901C15.6091 8.46183 15.6336 8.48346 15.659 8.50382C15.6845 8.52419 15.7109 8.54326 15.7383 8.56097C15.7656 8.57868 15.7938 8.59499 15.8228 8.60986C15.8517 8.62473 15.8814 8.63813 15.9117 8.65001C15.9419 8.66188 15.9728 8.67222 16.0041 8.68098C16.0354 8.68973 16.0671 8.69689 16.0991 8.70244C16.1311 8.70802 16.1634 8.71198 16.1958 8.7143C16.2187 8.71595 16.2417 8.71677 16.2647 8.71677C16.2972 8.71678 16.3297 8.71515 16.362 8.71189C16.3943 8.70862 16.4265 8.70372 16.4583 8.6972C16.4902 8.6907 16.5217 8.68259 16.5527 8.67292C16.5837 8.66323 16.6143 8.65199 16.6442 8.63923C16.6741 8.62647 16.7034 8.61221 16.7319 8.59651C16.7604 8.5808 16.7881 8.56366 16.8149 8.54515C16.8418 8.52667 16.8676 8.50684 16.8925 8.48574C16.9173 8.46463 16.9411 8.44228 16.9637 8.41878C16.9864 8.39528 17.0078 8.37065 17.028 8.34499C17.0482 8.31932 17.0671 8.29266 17.0847 8.26509C17.1022 8.23752 17.1184 8.20909 17.1331 8.1799C17.1478 8.1507 17.1611 8.12077 17.1729 8.09024C17.1847 8.05971 17.1949 8.0286 17.2036 7.99704C17.2123 7.96547 17.2194 7.93349 17.2249 7.90122C17.2305 7.86894 17.2344 7.83642 17.2367 7.80375C17.2383 7.78061 17.2391 7.75742 17.2391 7.73422C17.2391 7.70147 17.2375 7.66873 17.2343 7.63614C17.231 7.60355 17.2262 7.57114 17.2197 7.53904C17.2133 7.50693 17.2052 7.47518 17.1956 7.44388C17.186 7.41258 17.1749 7.38178 17.1622 7.35161C17.1495 7.32142 17.1354 7.29189 17.1198 7.26313C17.1042 7.23437 17.0873 7.20642 17.0689 7.17938C17.0506 7.15233 17.0309 7.12623 17.0099 7.10117C16.989 7.07611 16.9669 7.05211 16.9436 7.02928C16.9203 7.00646 16.8958 6.98483 16.8704 6.96447C16.8449 6.94412 16.8185 6.92506 16.7911 6.90737C16.7638 6.88966 16.7356 6.87335 16.7066 6.85848C16.6777 6.84361 16.648 6.83021 16.6177 6.81833C16.5875 6.80646 16.5566 6.79612 16.5253 6.78736C16.494 6.7786 16.4623 6.77142 16.4303 6.76585C16.3983 6.76029 16.366 6.75635 16.3336 6.75404C16.3107 6.75239 16.2877 6.75152 16.2647 6.75152Z" fill="url(#paint1_radial_2_2215)"/>
  <path d="M11.231 4.00015C10.786 3.99943 10.3889 4.00128 10.0321 4.00631L9.07563 4.03199C8.79228 4.04431 8.54193 4.06038 8.31722 4.08118C8.20486 4.09155 8.09886 4.10316 7.99839 4.11594C7.90279 4.12802 7.80744 4.14207 7.71242 4.1581C7.62195 4.17351 7.53609 4.19015 7.45377 4.20822C7.37145 4.2263 7.29282 4.24581 7.21696 4.26676C7.1428 4.28725 7.06922 4.30978 6.99629 4.33434C6.92484 4.35848 6.85513 4.38405 6.78629 4.41137C6.64861 4.466 6.51431 4.52732 6.37602 4.59602C6.26961 4.64891 6.1713 4.70247 6.0779 4.75917C5.98451 4.81586 5.89604 4.87573 5.80941 4.94095C5.7202 5.00844 5.63421 5.0801 5.55174 5.1557C5.46552 5.23437 5.37746 5.32089 5.28596 5.41759C5.17099 5.53841 5.07109 5.65108 4.98241 5.76164C4.93808 5.81689 4.89656 5.87153 4.85745 5.92647C4.81877 5.98062 4.78179 6.03597 4.74657 6.09244C4.71172 6.14841 4.67871 6.20541 4.64713 6.26405C4.61507 6.32371 4.58476 6.38429 4.55625 6.44573C4.49792 6.57123 4.44349 6.70639 4.38915 6.85726C4.34884 6.96879 4.31275 7.08181 4.28095 7.19607C4.2485 7.31284 4.21964 7.43501 4.19391 7.56713C4.16818 7.69926 4.14573 7.84135 4.12599 7.99848C4.10473 8.17072 4.08774 8.34347 4.07504 8.51656C4.06069 8.70687 4.0488 8.91628 4.03906 9.14936L4.01599 9.92434L4.00359 10.869L4 12.0109L4.01051 13.6715L4.04331 14.9296L4.06858 15.421L4.10016 15.8282C4.11028 15.938 4.12294 16.0475 4.13814 16.1566C4.15198 16.2536 4.16685 16.3384 4.18284 16.4119C4.21529 16.5612 4.25366 16.7091 4.29786 16.8553C4.34018 16.9953 4.38858 17.1334 4.44292 17.2692C4.49633 17.4022 4.55477 17.5305 4.61833 17.6539C4.68189 17.7774 4.75057 17.896 4.82438 18.0099C4.8982 18.1239 4.97713 18.2332 5.0614 18.3378C5.14558 18.4424 5.23511 18.5425 5.32964 18.6379C5.42431 18.7334 5.52416 18.8243 5.62939 18.9106C5.73587 18.998 5.84655 19.0801 5.96103 19.1566C6.06729 19.2278 6.17242 19.2929 6.27832 19.3528C6.38422 19.4126 6.49104 19.4669 6.60084 19.5162C6.71063 19.5656 6.8232 19.61 6.94078 19.6499C7.05837 19.6899 7.18088 19.7254 7.31035 19.757C7.43983 19.7885 7.5769 19.8162 7.72196 19.8403C7.86702 19.8644 8.02207 19.8851 8.18774 19.9029C8.35341 19.9208 8.53014 19.9355 8.72006 19.9478C8.90997 19.9602 9.11295 19.97 9.33105 19.9779C9.66797 19.9901 10.178 19.9973 10.7661 20L12.6701 19.9961L14.4731 19.9708L15.1586 19.9515L15.6052 19.9285C15.7011 19.9207 15.7949 19.9115 15.8854 19.9006C15.9759 19.8898 16.0652 19.8774 16.1521 19.8634C16.2391 19.8493 16.324 19.8336 16.4075 19.8161C16.4901 19.7989 16.5722 19.7797 16.6538 19.7584C16.7346 19.7379 16.8142 19.7145 16.8931 19.6897C16.9719 19.6649 17.0499 19.6381 17.1275 19.6094C17.2055 19.5804 17.2828 19.5496 17.3593 19.5169C17.4363 19.484 17.5132 19.4489 17.5904 19.4116C17.709 19.3544 17.8044 19.3067 17.8882 19.2601C17.9671 19.2168 18.043 19.1684 18.1155 19.1151C18.1871 19.0623 18.2582 19.0023 18.3402 18.9266C18.4222 18.8509 18.5152 18.7597 18.6303 18.6443C18.7314 18.5431 18.8167 18.4551 18.8902 18.375C18.9638 18.2949 19.0258 18.2229 19.0801 18.1535C19.1319 18.0876 19.1801 18.019 19.2246 17.948C19.2681 17.8786 19.308 17.8066 19.3488 17.7268C19.4101 17.6066 19.4646 17.4954 19.5135 17.388C19.5609 17.2845 19.6042 17.1792 19.6434 17.0723C19.6819 16.9662 19.7153 16.8583 19.7434 16.749C19.7723 16.6366 19.7972 16.5178 19.8187 16.3876C19.8403 16.2574 19.8584 16.1157 19.8742 15.9574C19.89 15.7991 19.9035 15.6242 19.9152 15.4277L19.9465 14.768L19.9734 13.9476L19.9925 13.0335L19.9999 12.0778L19.9828 10.2007L19.9599 9.35989L19.9286 8.638L19.8897 8.0752C19.8755 7.91858 19.8602 7.79523 19.844 7.71184C19.8261 7.6197 19.8061 7.52798 19.784 7.43675C19.7624 7.34799 19.7388 7.25976 19.713 7.17214C19.6878 7.08678 19.6605 7.00208 19.6311 6.91811C19.602 6.83518 19.5711 6.75399 19.5388 6.67455C19.5065 6.59511 19.4716 6.51752 19.4352 6.44157C19.3988 6.36563 19.3606 6.29153 19.3206 6.21912C19.2806 6.14672 19.2388 6.07611 19.1952 6.00725C19.1516 5.93839 19.1062 5.87127 19.0589 5.80595C19.0118 5.74084 18.9628 5.67722 18.9118 5.61518C18.861 5.55349 18.8083 5.49341 18.7538 5.43505C18.6993 5.37675 18.643 5.32021 18.585 5.26549C18.5269 5.21075 18.4671 5.15775 18.4054 5.1065C18.3434 5.05509 18.2799 5.00561 18.2149 4.95815C18.1492 4.9102 18.0821 4.86428 18.0136 4.82043C17.9441 4.77596 17.8734 4.73355 17.8015 4.69328C17.7283 4.65234 17.6539 4.6135 17.5785 4.57682C17.4533 4.51586 17.3376 4.46179 17.2239 4.41383C17.1122 4.36623 16.9983 4.32396 16.8827 4.28715C16.7663 4.25043 16.6452 4.21896 16.5119 4.19179C16.3786 4.16463 16.2333 4.14198 16.0688 4.12272C15.9043 4.10347 15.7207 4.08791 15.5106 4.07497C15.3006 4.06203 15.0643 4.05186 14.7946 4.04364L13.8778 4.0231L12.7174 4.00939L11.231 4.00015ZM12.0027 5.4124L14.1455 5.42462L14.9538 5.44023C15.1764 5.4465 15.3463 5.45384 15.4459 5.46231C15.5756 5.47325 15.6991 5.48696 15.8173 5.50339C15.9306 5.51908 16.0435 5.53859 16.1556 5.56188C16.2632 5.58448 16.3659 5.61015 16.4641 5.63911C16.5624 5.66808 16.6563 5.70053 16.7463 5.73642C16.8364 5.77232 16.9225 5.81181 17.0054 5.85504C17.0876 5.89796 17.1675 5.94518 17.2447 5.99652C17.3216 6.04761 17.3958 6.10266 17.4677 6.16197C17.5397 6.22128 17.6094 6.28485 17.6776 6.35284C17.7495 6.42458 17.8158 6.49765 17.877 6.57303C17.9379 6.64795 17.9943 6.72647 18.0458 6.80817C18.0978 6.89103 18.1448 6.97704 18.1863 7.06569C18.2287 7.15607 18.2669 7.25158 18.3011 7.3531C18.3354 7.45462 18.3659 7.56251 18.3929 7.67779C18.4212 7.80002 18.4449 7.92326 18.4639 8.04726C18.4844 8.17872 18.502 8.31891 18.5168 8.46901C18.5317 8.61911 18.544 8.77917 18.5541 8.95042C18.5622 9.08779 18.5693 9.26906 18.5753 9.48314L18.5903 10.2131L18.6018 12.0011L18.5887 13.7875L18.5731 14.5153L18.5515 15.0447C18.5365 15.2926 18.5207 15.5009 18.5019 15.6823C18.4924 15.773 18.4821 15.8569 18.4707 15.9356C18.4601 16.01 18.4475 16.0841 18.4329 16.1578C18.4195 16.225 18.4041 16.2918 18.3865 16.358C18.3696 16.4213 18.3507 16.4839 18.3296 16.5458C18.3084 16.6081 18.2854 16.6696 18.2605 16.7305C18.2342 16.7947 18.2064 16.8584 18.1772 16.9214C18.1512 16.9776 18.1239 17.0323 18.095 17.0855C18.0664 17.1382 18.036 17.19 18.0039 17.2406C17.9721 17.2908 17.9388 17.3395 17.904 17.3867C17.8693 17.4337 17.833 17.4795 17.795 17.5239C17.7572 17.5681 17.7177 17.611 17.6767 17.6523C17.6357 17.6936 17.5932 17.7335 17.5491 17.772C17.505 17.8106 17.4593 17.8475 17.412 17.8832C17.3647 17.9188 17.3157 17.953 17.2651 17.9858C17.2146 18.0185 17.1624 18.0499 17.1085 18.0799C17.0546 18.1099 16.9991 18.1386 16.9419 18.1658C16.8838 18.1935 16.8248 18.2195 16.7651 18.2436C16.7034 18.2685 16.641 18.2917 16.578 18.3132C16.4499 18.3569 16.3147 18.3953 16.1724 18.4285C16.0241 18.4628 15.8745 18.4908 15.7238 18.5126C15.6659 18.521 15.5328 18.529 15.3421 18.5364L14.6155 18.5566L12.5554 18.5834L10.3992 18.5868L9.55238 18.5778L9.00254 18.5606L8.59709 18.5321C8.4712 18.5215 8.35412 18.5096 8.24443 18.4962C8.13474 18.4828 8.03258 18.4679 7.93647 18.4511C7.8454 18.4353 7.75487 18.4164 7.66506 18.3946C7.58317 18.3746 7.50211 18.3513 7.4221 18.3248C7.34495 18.2992 7.27119 18.2709 7.19943 18.2398C7.12767 18.2088 7.05796 18.1747 6.98891 18.1376C6.91987 18.1004 6.85154 18.06 6.78245 18.016C6.73032 17.9828 6.67993 17.9493 6.63144 17.9137C6.58295 17.8781 6.5361 17.8426 6.49099 17.8054C6.44588 17.7682 6.40257 17.7299 6.3608 17.6905C6.3193 17.6512 6.27922 17.6105 6.24065 17.5684C6.2022 17.5264 6.16545 17.4831 6.13019 17.4384C6.09478 17.3934 6.06105 17.3472 6.02905 17.2997C5.99658 17.2515 5.96586 17.2022 5.93694 17.1518C5.90773 17.101 5.87994 17.0484 5.85355 16.9942C5.82671 16.9389 5.80166 16.8828 5.77845 16.8259C5.75487 16.768 5.73253 16.7082 5.71151 16.6465C5.66948 16.523 5.63257 16.3915 5.60048 16.2513C5.5684 16.1111 5.54103 15.9622 5.51786 15.8036C5.49469 15.6449 5.47603 15.4767 5.46116 15.2979C5.4502 15.1661 5.44148 14.961 5.43482 14.7022L5.42088 13.7817L5.426 11.4352L5.46634 9.19306L5.4971 8.40307L5.51452 8.14195C5.52057 8.07222 5.52683 8.02056 5.53323 7.98955C5.55435 7.88751 5.57562 7.79256 5.59761 7.70368C5.61816 7.61982 5.64101 7.53655 5.66615 7.45396C5.69003 7.37601 5.7152 7.30298 5.74211 7.23381C5.76806 7.16681 5.79698 7.101 5.82879 7.03658C5.85985 6.97393 5.89322 6.91395 5.92946 6.85556C5.9657 6.79718 6.00481 6.74054 6.04746 6.68421C6.0901 6.62787 6.13603 6.57226 6.18601 6.51588C6.23598 6.4595 6.28996 6.40255 6.34849 6.34385C6.41672 6.27512 6.48775 6.20925 6.56142 6.14641C6.63098 6.08712 6.70352 6.03144 6.77876 5.97957C6.85272 5.92822 6.92858 5.88252 7.00757 5.84051C7.08656 5.79851 7.16868 5.76056 7.25505 5.72641C7.34142 5.69226 7.43214 5.66171 7.52825 5.63398C7.62922 5.60561 7.73131 5.5814 7.83426 5.56142C7.94252 5.54016 8.05749 5.52162 8.18026 5.50545C8.30302 5.48927 8.43362 5.4753 8.57325 5.46319C8.67064 5.45476 8.83846 5.44727 9.05944 5.44095L9.86368 5.42503L12.0027 5.4124Z" fill="url(#paint2_radial_2_2215)"/>
  <defs>
    <radialGradient id="paint0_radial_2_2215" cx="0" cy="0" r="1" gradientUnits="userSpaceOnUse" gradientTransform="translate(1.32893 29.8839) rotate(-9.54021) scale(66.1156 40.1691)">
      <stop stop-color="#FED576"/>
      <stop offset="0.263" stop-color="#F47133"/>
      <stop offset="0.609" stop-color="#BC3081"/>
      <stop offset="1" stop-color="#4C63D2"/>
    </radialGradient>
    <radialGradient id="paint1_radial_2_2215" cx="0" cy="0" r="1" gradientUnits="userSpaceOnUse" gradientTransform="translate(-67.7634 121.358) rotate(-9.46993) scale(277.569 167.443)">
      <stop stop-color="#FED576"/>
      <stop offset="0.263" stop-color="#F47133"/>
      <stop offset="0.609" stop-color="#BC3081"/>
      <stop offset="1" stop-color="#4C63D2"/>
    </radialGradient>
    <radialGradient id="paint2_radial_2_2215" cx="0" cy="0" r="1" gradientUnits="userSpaceOnUse" gradientTransform="translate(6.54907 21.1663) rotate(-9.54793) scale(33.8173 20.562)">
      <stop stop-color="#FED576"/>
      <stop offset="0.263" stop-color="#F47133"/>
      <stop offset="0.609" stop-color="#BC3081"/>
      <stop offset="1" stop-color="#4C63D2"/>
    </radialGradient>
  </defs>
</svg>