<svg xmlns="http://www.w3.org/2000/svg" width="24" height="24" viewBox="0 0 24 24" fill="none">
  <path fill-rule="evenodd" clip-rule="evenodd" d="M18 4H6C4.8955 4 4 4.8955 4 6V18C4 19.1045 4.8955 20 6 20H18C19.1045 20 20 19.1045 20 18V6C20 4.8955 19.1045 4 18 4ZM14.133 6.9335C14.133 6.639 14.372 6.4 14.6665 6.4C14.961 6.4 15.2 6.639 15.2 6.9335V14.059C15.2 14.3535 14.961 14.5925 14.6665 14.5925C14.372 14.5925 14.133 14.3535 14.133 14.059V6.9335ZM11.4665 6.6635C11.4665 6.369 11.7055 6.13 12 6.13C12.2945 6.13 12.5335 6.369 12.5335 6.6635V14.397C12.5335 14.6915 12.2945 14.9305 12 14.9305C11.7055 14.9305 11.4665 14.6915 11.4665 14.397V6.6635ZM8.8 6.9335C8.8 6.639 9.03898 6.4 9.33351 6.4C9.62799 6.4 9.86649 6.639 9.86649 6.9335V14.059C9.86649 14.3535 9.62799 14.5925 9.33351 14.5925C9.03898 14.5925 8.8 14.3535 8.8 14.059V6.9335ZM6.13351 8C6.13351 7.7055 6.372 7.4665 6.6665 7.4665C6.961 7.4665 7.2 7.7055 7.2 8V12.797C7.2 13.0915 6.961 13.3305 6.6665 13.3305C6.372 13.3305 6.13351 13.0915 6.13351 12.797V8ZM17.6805 16.135C17.5985 16.206 15.6225 17.8635 12 17.8635C8.3775 17.8635 6.4025 16.206 6.3195 16.135C6.096 15.9435 6.0695 15.607 6.2615 15.383C6.4525 15.16 6.7885 15.1335 7.012 15.3245C7.043 15.3505 8.80749 16.797 11.9995 16.797C15.2315 16.797 16.9685 15.34 16.9855 15.3255C17.2085 15.1335 17.546 15.1595 17.737 15.383C17.93 15.607 17.904 15.9435 17.6805 16.135ZM17.8665 12.797C17.8665 13.0915 17.6275 13.3305 17.333 13.3305C17.0385 13.3305 16.8 13.0915 16.8 12.797V8C16.8 7.7055 17.0385 7.4665 17.333 7.4665C17.6275 7.4665 17.8665 7.7055 17.8665 8V12.797Z" fill="#64748B"/>
</svg>