<svg xmlns="http://www.w3.org/2000/svg" width="24" height="24" viewBox="0 0 24 24" fill="none">
  <path d="M4 8.125C4 5.84683 5.84683 4 8.125 4H15.875C18.1532 4 20 5.84683 20 8.125V15.875C20 18.1532 18.1532 20 15.875 20H8.125C5.84683 20 4 18.1532 4 15.875V8.125Z" fill="#FFB3C7"/>
  <path d="M16.0738 14.2504C15.4602 14.2504 14.9627 14.7479 14.9627 15.3616C14.9627 15.9751 15.4602 16.4727 16.0738 16.4727C16.6874 16.4727 17.1849 15.9751 17.1849 15.3616C17.1849 14.7479 16.6874 14.2504 16.0738 14.2504Z" fill="#17120F"/>
  <path d="M13.9837 7.52778H11.9831C11.9831 9.16751 11.2292 10.6725 9.91479 11.6571L9.12218 12.2507L12.1933 16.4385H14.7183L11.8925 12.5851C13.232 11.2513 13.9837 9.4568 13.9837 7.52778Z" fill="#17120F"/>
  <path d="M6.83333 16.4381H8.87767V7.52778H6.83333V16.4381Z" fill="#17120F"/>
</svg>