<svg xmlns="http://www.w3.org/2000/svg" width="24" height="24" viewBox="0 0 24 24" fill="none">
  <path d="M17.6328 17.6331H15.2621V13.9203C15.2621 13.035 15.2463 11.8953 14.0291 11.8953C12.7943 11.8953 12.6054 12.8599 12.6054 13.8559V17.6328H10.2347V9.99793H12.5106V11.0413H12.5424C12.7702 10.6519 13.0993 10.3315 13.4947 10.1143C13.8902 9.89714 14.3371 9.79129 14.7879 9.80802C17.1907 9.80802 17.6338 11.3885 17.6338 13.4447L17.6328 17.6331ZM7.55975 8.95429C7.28765 8.95434 7.02165 8.8737 6.79538 8.72257C6.56911 8.57143 6.39275 8.35659 6.28858 8.10522C6.18441 7.85385 6.15711 7.57722 6.21014 7.31034C6.26318 7.04345 6.39417 6.79828 6.58653 6.60584C6.7789 6.4134 7.02401 6.28232 7.29087 6.22919C7.55773 6.17606 7.83435 6.20325 8.08575 6.30734C8.33715 6.41142 8.55205 6.58772 8.70326 6.81394C8.85447 7.04016 8.9352 7.30615 8.93525 7.57825C8.93529 7.75892 8.89973 7.93783 8.83062 8.10476C8.76151 8.2717 8.66021 8.42338 8.53249 8.55116C8.40476 8.67893 8.2531 8.7803 8.0862 8.84947C7.9193 8.91864 7.74042 8.95426 7.55975 8.95429ZM8.7451 17.6331H6.37193V9.99793H8.7451V17.6331ZM18.8147 4.00109H5.18066C4.87121 3.9976 4.57301 4.11711 4.35163 4.33336C4.13024 4.54961 4.00378 4.84492 4 5.15438V18.8454C4.00365 19.155 4.13004 19.4505 4.35142 19.667C4.57279 19.8835 4.87105 20.0032 5.18066 19.9999H18.8147C19.1249 20.0038 19.424 19.8844 19.6462 19.6679C19.8685 19.4515 19.9957 19.1556 20 18.8454V5.15339C19.9956 4.84331 19.8683 4.54768 19.646 4.33143C19.4237 4.11518 19.1247 3.99601 18.8147 4.0001" fill="#0A66C2"/>
</svg>