<svg xmlns="http://www.w3.org/2000/svg" width="24" height="24" viewBox="0 0 24 24" fill="none">
  <path d="M20 11.1627H15.1259L19.3469 8.72533L18.5098 7.27467L14.2883 9.712L16.7248 5.49067L15.2746 4.65333L12.8376 8.8736V4H11.1624V8.87413L8.72536 4.65333L7.27464 5.49067L9.71116 9.71093L5.4907 7.27467L4.65312 8.72533L8.87411 11.1627H4V12.8379H8.87358L4.65312 15.2752L5.49017 16.7259L9.7117 14.2885L7.27464 18.5099L8.72483 19.3472L11.1624 15.1264V20H12.8376V15.0219L15.3194 19.3205L16.6795 18.5355L14.1971 14.2357L18.5088 16.7253L19.3464 15.2747L15.1259 12.8373H19.9995V11.1627H20ZM12 14.2773C11.701 14.2774 11.4049 14.2185 11.1286 14.104C10.8523 13.9896 10.6012 13.8218 10.3898 13.6104C10.1783 13.3989 10.0105 13.1478 9.89606 12.8714C9.78159 12.5951 9.72266 12.2989 9.72263 11.9997C9.72259 11.7006 9.78146 11.4044 9.89586 11.128C10.0103 10.8516 10.178 10.6005 10.3894 10.389C10.6008 10.1774 10.8518 10.0096 11.1281 9.89509C11.4043 9.78059 11.7004 9.72164 11.9995 9.7216C12.6034 9.72153 13.1826 9.96145 13.6097 10.3886C14.0368 10.8157 14.2768 11.3951 14.2768 11.9992C14.2769 12.6033 14.0371 13.1827 13.6101 13.61C13.1831 14.0372 12.6039 14.2773 12 14.2773Z" fill="#625DF5"/>
</svg>