<svg xmlns="http://www.w3.org/2000/svg" width="24" height="24" viewBox="0 0 24 24" fill="none">
  <path d="M13.2812 12.0001C13.2812 15.1366 10.7558 17.6793 7.6407 17.6793C4.52561 17.6793 2 15.1361 2 12.0001C2 8.86411 4.52542 6.32068 7.6407 6.32068C10.756 6.32068 13.2812 8.86353 13.2812 12.0001ZM19.469 12.0001C19.469 14.9525 18.2063 17.3468 16.6487 17.3468C15.091 17.3468 13.8283 14.9525 13.8283 12.0001C13.8283 9.0477 15.0908 6.65336 16.6485 6.65336C18.2061 6.65336 19.4688 9.04693 19.4688 12.0001H19.469ZM22 12.0001C22 14.6447 21.556 16.7899 21.0081 16.7899C20.4602 16.7899 20.0163 14.6453 20.0163 12.0001C20.0163 9.3549 20.4604 7.21027 21.0081 7.21027C21.5558 7.21027 22 9.3547 22 12.0001Z" fill="#64748B"/>
</svg>