<svg xmlns="http://www.w3.org/2000/svg" width="24" height="24" viewBox="0 0 24 24" fill="none">
  <path fill-rule="evenodd" clip-rule="evenodd" d="M6.75904 6.80513C7.2778 7.20945 7.47242 7.1786 8.44659 7.11625L17.6304 6.58725C17.8252 6.58725 17.6632 6.40085 17.5983 6.36988L16.073 5.31214C15.7808 5.09448 15.3914 4.84521 14.6452 4.90757L5.75245 5.52977C5.42813 5.56061 5.36336 5.71617 5.49251 5.84085L6.75904 6.80513ZM7.31042 8.85829V18.1279C7.31042 18.626 7.56993 18.8124 8.15403 18.7816L18.2471 18.2213C18.8314 18.1905 18.8965 17.8479 18.8965 17.4432V8.23581C18.8965 7.83177 18.7345 7.61389 18.3768 7.64499L7.82948 8.23581C7.44023 8.26719 7.31039 8.45397 7.31039 8.85829H7.31042ZM17.2742 9.35552C17.3389 9.63576 17.2742 9.91574 16.9815 9.94725L16.4953 10.0402V16.8836C16.073 17.1013 15.6837 17.2257 15.3592 17.2257C14.8398 17.2257 14.7097 17.0701 14.3206 16.6038L11.1396 11.8133V16.4482L12.1462 16.6661C12.1462 16.6661 12.1462 17.2257 11.3341 17.2257L9.09529 17.3503C9.03026 17.2257 9.09529 16.9149 9.32238 16.8527L9.90661 16.6973V10.5692L9.09545 10.5068C9.03039 10.2266 9.19241 9.82251 9.6471 9.79116L12.0488 9.63585L15.3592 14.4886V10.1957L14.5152 10.1028C14.4504 9.76022 14.7097 9.51146 15.0343 9.48061L17.2742 9.35552ZM5.0058 4.68994L14.2556 4.03649C15.3915 3.94303 15.6838 4.00564 16.3977 4.50313L19.3504 6.49392C19.8376 6.83626 20 6.92947 20 7.30265V18.2213C20 18.9056 19.7401 19.3103 18.8316 19.3722L8.08975 19.9945C7.40774 20.0257 7.08316 19.9325 6.726 19.4967L4.55161 16.7904C4.16203 16.2922 4 15.9196 4 15.4835V5.77827C4 5.21868 4.25994 4.75189 5.0058 4.68994Z" fill="#64748B"/>
</svg>