<svg xmlns="http://www.w3.org/2000/svg" width="24" height="24" viewBox="0 0 24 24" fill="none">
  <path d="M8.85249 19.4576L9.12979 17.6962L8.5121 17.6819H5.56257L7.61234 4.68501C7.6187 4.64577 7.63938 4.60919 7.6696 4.58321C7.69983 4.55723 7.73853 4.54291 7.77883 4.54291H12.7522C14.4032 4.54291 15.5426 4.88648 16.1375 5.56462C16.4164 5.88274 16.594 6.21518 16.6799 6.58102C16.7701 6.96489 16.7716 7.42352 16.6836 7.98288L16.6773 8.02371V8.38213L16.9562 8.54013C17.191 8.66473 17.3777 8.80735 17.5208 8.97066C17.7594 9.24265 17.9137 9.58835 17.9789 9.99819C18.0463 10.4197 18.024 10.9213 17.9137 11.4891C17.7865 12.1423 17.5807 12.7113 17.3029 13.1768C17.0473 13.6057 16.7218 13.9615 16.3353 14.2372C15.9663 14.4991 15.5278 14.6979 15.032 14.8252C14.5517 14.9503 14.004 15.0134 13.4032 15.0134H13.0162C12.7394 15.0134 12.4706 15.1131 12.2596 15.2918C12.048 15.4742 11.9081 15.7234 11.8651 15.9959L11.836 16.1544L11.346 19.2588L11.3238 19.3728C11.3179 19.4088 11.3079 19.4268 11.293 19.439C11.2798 19.4502 11.2607 19.4576 11.2421 19.4576H8.85249Z" fill="#253B80"/>
  <path d="M17.2201 8.06509C17.2053 8.15999 17.1883 8.25702 17.1692 8.3567C16.5134 11.724 14.2695 12.8873 11.4038 12.8873H9.94464C9.59418 12.8873 9.29885 13.1418 9.24424 13.4875L8.49718 18.2254L8.28563 19.5684C8.25011 19.7953 8.42507 20 8.65412 20H11.2421C11.5485 20 11.8088 19.7773 11.8571 19.4751L11.8825 19.3436L12.3698 16.2515L12.4011 16.0818C12.4488 15.7785 12.7097 15.5558 13.0161 15.5558H13.4032C15.9105 15.5558 17.8733 14.5378 18.447 11.592C18.6867 10.3614 18.5626 9.33387 17.9285 8.6112C17.7365 8.39328 17.4985 8.21248 17.2201 8.06509Z" fill="#179BD7"/>
  <path d="M16.534 7.79148C16.4338 7.76232 16.3304 7.73581 16.2244 7.71195C16.1178 7.68862 16.0086 7.66794 15.8962 7.64991C15.5028 7.58629 15.0717 7.55607 14.6099 7.55607H10.7118C10.6159 7.55607 10.5247 7.57781 10.443 7.61704C10.2633 7.70346 10.1297 7.87366 10.0973 8.08203L9.26809 13.3342L9.24424 13.4875C9.29885 13.1418 9.59418 12.8873 9.94464 12.8873H11.4038C14.2695 12.8873 16.5134 11.724 17.1692 8.3567C17.1883 8.25702 17.2053 8.15999 17.2201 8.06509C17.0542 7.97707 16.8744 7.90176 16.6809 7.83761C16.6332 7.8217 16.5839 7.80632 16.534 7.79148Z" fill="#222D65"/>
  <path d="M10.0973 8.08203C10.1297 7.87366 10.2633 7.70346 10.443 7.61704C10.5247 7.57781 10.6159 7.55607 10.7118 7.55607H14.6099C15.0717 7.55607 15.5028 7.58629 15.8962 7.64991C16.0086 7.66794 16.1178 7.68862 16.2244 7.71195C16.3304 7.73581 16.4338 7.76232 16.534 7.79148C16.5839 7.80632 16.6332 7.8217 16.6809 7.83761C16.8744 7.90176 17.0542 7.97707 17.2201 8.06509C17.4152 6.82069 17.2191 5.97342 16.5463 5.20622C15.8045 4.3616 14.4657 4 12.7527 4H7.77933C7.42939 4 7.13089 4.2545 7.07681 4.60072L5.0053 17.7313C4.96447 17.9911 5.16489 18.2254 5.42681 18.2254H8.49718L9.26809 13.3342L10.0973 8.08203Z" fill="#253B80"/>
</svg>