<svg xmlns="http://www.w3.org/2000/svg" width="24" height="24" viewBox="0 0 24 24" fill="none">
  <path d="M20 12C20 16.4181 16.4181 20 12 20C7.5814 20 4 16.4181 4 12C4 7.5814 7.58167 4 12 4C16.4181 4 20 7.58167 20 12Z" fill="white"/>
  <path d="M20 12C20 16.4181 16.4181 20 12 20C7.5814 20 4 16.4181 4 12C4 7.5814 7.58167 4 12 4C16.4181 4 20 7.58167 20 12Z" fill="#DA552F"/>
  <path d="M13.0665 12H10.8V9.6H13.0665C13.224 9.6 13.3801 9.63104 13.5257 9.69134C13.6713 9.75165 13.8036 9.84004 13.915 9.95147C14.0264 10.0629 14.1148 10.1952 14.1751 10.3408C14.2354 10.4864 14.2665 10.6424 14.2665 10.8C14.2665 10.9576 14.2354 11.1136 14.1751 11.2592C14.1148 11.4048 14.0264 11.5371 13.915 11.6485C13.8036 11.76 13.6713 11.8484 13.5257 11.9087C13.3801 11.969 13.224 12 13.0665 12ZM13.0665 8H9.19997V16H10.8V13.6H13.0665C14.6128 13.6 15.8665 12.3464 15.8665 10.8C15.8665 9.25363 14.6128 8 13.0665 8Z" fill="white"/>
</svg>