<svg xmlns="http://www.w3.org/2000/svg" width="24" height="24" viewBox="0 0 24 24" fill="none">
  <path fill-rule="evenodd" clip-rule="evenodd" d="M9.81592 3.96617C9.60453 3.96637 9.39526 4.0082 9.20004 4.08929C9.00482 4.17037 8.82749 4.28912 8.67817 4.43874C8.52885 4.58837 8.41046 4.76595 8.32978 4.96133C8.24909 5.15671 8.20769 5.36607 8.20792 5.57746C8.20773 5.78882 8.24916 5.99815 8.32986 6.1935C8.41057 6.38885 8.52896 6.56639 8.67827 6.71598C8.82759 6.86558 9.00491 6.9843 9.20011 7.06536C9.39531 7.14643 9.60456 7.18826 9.81592 7.18845H11.4239V5.57746C11.4242 5.36607 11.3828 5.15671 11.3021 4.96133C11.2214 4.76595 11.103 4.58837 10.9537 4.43874C10.8044 4.28912 10.627 4.17037 10.4318 4.08929C10.2366 4.0082 10.0273 3.96637 9.81592 3.96617ZM9.81592 8.26284H5.52792C5.31656 8.26304 5.10731 8.30487 4.91211 8.38593C4.71691 8.467 4.53959 8.58572 4.39028 8.73531C4.24096 8.88491 4.12257 9.06245 4.04187 9.25779C3.96116 9.45314 3.91973 9.66247 3.91992 9.87384C3.91969 10.0852 3.96109 10.2946 4.04178 10.49C4.12247 10.6854 4.24085 10.8629 4.39017 11.0126C4.53949 11.1622 4.71682 11.2809 4.91204 11.362C5.10726 11.4431 5.31654 11.4849 5.52792 11.4851H9.81592C10.0273 11.4849 10.2366 11.4431 10.4318 11.362C10.627 11.2809 10.8044 11.1622 10.9537 11.0126C11.103 10.8629 11.2214 10.6854 11.3021 10.49C11.3828 10.2946 11.4242 10.0852 11.4239 9.87384C11.4241 9.66247 11.3827 9.45314 11.302 9.25779C11.2213 9.06245 11.1029 8.88491 10.9536 8.73531C10.8043 8.58572 10.6269 8.467 10.4317 8.38593C10.2365 8.30487 10.0273 8.26304 9.81592 8.26284Z" fill="#36C5F0"/>
  <path fill-rule="evenodd" clip-rule="evenodd" d="M19.9999 9.87384C20.0001 9.66247 19.9587 9.45314 19.878 9.25779C19.7973 9.06245 19.6789 8.88491 19.5296 8.73531C19.3803 8.58572 19.2029 8.467 19.0077 8.38593C18.8125 8.30487 18.6033 8.26304 18.3919 8.26284C18.1806 8.26304 17.9713 8.30487 17.7761 8.38593C17.5809 8.467 17.4036 8.58572 17.2543 8.73531C17.105 8.88491 16.9866 9.06245 16.9059 9.25779C16.8252 9.45314 16.7837 9.66247 16.7839 9.87384V11.4851H18.3919C18.6033 11.4849 18.8126 11.4431 19.0078 11.362C19.203 11.2809 19.3804 11.1622 19.5297 11.0126C19.679 10.8629 19.7974 10.6854 19.8781 10.49C19.9588 10.2946 20.0002 10.0852 19.9999 9.87384ZM15.7119 9.87384V5.57746C15.7122 5.36607 15.6708 5.15671 15.5901 4.96133C15.5094 4.76595 15.391 4.58837 15.2417 4.43874C15.0924 4.28912 14.915 4.17037 14.7198 4.08929C14.5246 4.0082 14.3153 3.96637 14.1039 3.96617C13.8925 3.96637 13.6833 4.0082 13.488 4.08929C13.2928 4.17037 13.1155 4.28912 12.9662 4.43874C12.8169 4.58837 12.6985 4.76595 12.6178 4.96133C12.5371 5.15671 12.4957 5.36607 12.4959 5.57746V9.87384C12.4957 10.0852 12.5371 10.2946 12.6178 10.49C12.6985 10.6854 12.8169 10.8629 12.9662 11.0126C13.1155 11.1622 13.2928 11.2809 13.488 11.362C13.6833 11.4431 13.8925 11.4849 14.1039 11.4851C14.3153 11.4849 14.5246 11.4431 14.7198 11.362C14.915 11.2809 15.0924 11.1622 15.2417 11.0126C15.391 10.8629 15.5094 10.6854 15.5901 10.49C15.6708 10.2946 15.7122 10.0852 15.7119 9.87384Z" fill="#2EB67D"/>
  <path fill-rule="evenodd" clip-rule="evenodd" d="M14.1039 20.0782C14.3153 20.078 14.5246 20.0361 14.7198 19.955C14.915 19.874 15.0924 19.7552 15.2417 19.6056C15.391 19.456 15.5094 19.2784 15.5901 19.083C15.6708 18.8876 15.7122 18.6783 15.7119 18.4669C15.7121 18.2555 15.6707 18.0462 15.59 17.8508C15.5093 17.6555 15.3909 17.4779 15.2416 17.3284C15.0923 17.1788 14.9149 17.06 14.7197 16.979C14.5245 16.8979 14.3153 16.8561 14.1039 16.8559H12.4959V18.4669C12.4957 18.6783 12.5371 18.8876 12.6178 19.083C12.6985 19.2784 12.8169 19.456 12.9662 19.6056C13.1155 19.7552 13.2928 19.874 13.488 19.955C13.6833 20.0361 13.8925 20.078 14.1039 20.0782ZM14.1039 15.7815H18.3919C18.6033 15.7813 18.8125 15.7395 19.0077 15.6584C19.2029 15.5773 19.3803 15.4586 19.5296 15.309C19.6789 15.1594 19.7973 14.9819 19.878 14.7865C19.9587 14.5912 20.0001 14.3819 19.9999 14.1705C20.0002 13.9591 19.9588 13.7498 19.8781 13.5544C19.7974 13.359 19.679 13.1814 19.5297 13.0318C19.3804 12.8822 19.203 12.7634 19.0078 12.6823C18.8126 12.6012 18.6033 12.5594 18.3919 12.5592H14.1039C13.8925 12.5594 13.6833 12.6012 13.488 12.6823C13.2928 12.7634 13.1155 12.8822 12.9662 13.0318C12.8169 13.1814 12.6985 13.359 12.6178 13.5544C12.5371 13.7498 12.4957 13.9591 12.4959 14.1705C12.4957 14.3819 12.5372 14.5912 12.6179 14.7865C12.6986 14.9819 12.817 15.1594 12.9663 15.309C13.1156 15.4586 13.2929 15.5773 13.4881 15.6584C13.6833 15.7395 13.8926 15.7813 14.1039 15.7815Z" fill="#ECB22E"/>
  <path fill-rule="evenodd" clip-rule="evenodd" d="M3.91992 14.1705C3.91973 14.3819 3.96116 14.5912 4.04187 14.7865C4.12257 14.9819 4.24096 15.1594 4.39028 15.309C4.53959 15.4586 4.71691 15.5773 4.91211 15.6584C5.10731 15.7395 5.31656 15.7813 5.52792 15.7815C5.73928 15.7813 5.94854 15.7395 6.14374 15.6584C6.33893 15.5773 6.51625 15.4586 6.66557 15.309C6.81489 15.1594 6.93328 14.9819 7.01398 14.7865C7.09468 14.5912 7.13612 14.3819 7.13592 14.1705V12.5592H5.52792C5.31651 12.5594 5.10721 12.6013 4.91197 12.6824C4.71673 12.7635 4.53939 12.8822 4.39006 13.0319C4.24074 13.1815 4.12236 13.3592 4.04169 13.5546C3.96103 13.75 3.91965 13.9591 3.91992 14.1705ZM8.20792 14.1705V18.4669C8.20769 18.6783 8.24909 18.8876 8.32978 19.083C8.41046 19.2784 8.52885 19.456 8.67817 19.6056C8.82749 19.7552 9.00482 19.874 9.20004 19.955C9.39526 20.0361 9.60453 20.078 9.81592 20.0782C10.0273 20.078 10.2366 20.0361 10.4318 19.955C10.627 19.874 10.8044 19.7552 10.9537 19.6056C11.103 19.456 11.2214 19.2784 11.3021 19.083C11.3828 18.8876 11.4242 18.6783 11.4239 18.4669V14.1708C11.4242 13.9594 11.3828 13.7501 11.3021 13.5547C11.2214 13.3593 11.103 13.1817 10.9537 13.0321C10.8044 12.8825 10.627 12.7637 10.4318 12.6826C10.2366 12.6015 10.0273 12.5597 9.81592 12.5595C9.60453 12.5597 9.39526 12.6015 9.20004 12.6826C9.00482 12.7637 8.82749 12.8825 8.67817 13.0321C8.52885 13.1817 8.41046 13.3593 8.32978 13.5547C8.24909 13.7501 8.20769 13.9591 8.20792 14.1705Z" fill="#E01E5A"/>
</svg>