<svg xmlns="http://www.w3.org/2000/svg" width="24" height="24" viewBox="0 0 24 24" fill="none">
  <path d="M12 4C7.58179 4 4 7.58178 4 12C4 16.4185 7.58179 20 12 20C16.4186 20 20 16.4185 20 12C20 7.58207 16.4187 4 12 4ZM15.6687 15.5384C15.5254 15.7734 15.2178 15.8479 14.9828 15.7036C13.1045 14.5563 10.7399 14.2964 7.95522 14.9327C7.68688 14.9938 7.41939 14.8257 7.35825 14.5573C7.29683 14.2888 7.46429 14.0213 7.7333 13.9602C10.7807 13.2637 13.3947 13.5637 15.5034 14.8524C15.7384 14.9967 15.8129 15.3034 15.6687 15.5384ZM16.6479 13.3598C16.4673 13.6535 16.0833 13.7462 15.79 13.5656C13.6396 12.2436 10.3617 11.8608 7.81823 12.6329C7.48837 12.7325 7.13997 12.5466 7.03985 12.2173C6.9405 11.8874 7.1265 11.5397 7.45579 11.4394C10.3611 10.5578 13.973 10.9848 16.4425 12.5024C16.7357 12.6829 16.8284 13.0669 16.6479 13.3598ZM16.7319 11.0914C14.1536 9.55997 9.89963 9.41915 7.43793 10.1663C7.04262 10.2862 6.62459 10.063 6.50479 9.66773C6.385 9.27222 6.60796 8.85446 7.00355 8.73428C9.82942 7.87641 14.5271 8.04215 17.4956 9.80443C17.8519 10.0155 17.9685 10.4747 17.7573 10.8298C17.5472 11.1853 17.0863 11.3026 16.7319 11.0914Z" fill="#1ED760"/>
</svg>