<svg xmlns="http://www.w3.org/2000/svg" width="24" height="24" viewBox="0 0 24 24" fill="none">
  <path d="M17.3264 3.99936H6.67326C5.19643 3.99936 3.99951 5.19632 3.99951 6.67321V17.3268C3.99951 18.8037 5.19643 20.0006 6.67326 20.0006H17.3264C18.8033 20.0006 20.0002 18.8037 20.0002 17.3268V6.67321C20.0002 5.19632 18.8033 3.99936 17.3264 3.99936ZM17.0916 16.2473C17.0916 16.7138 16.7135 17.0919 16.247 17.0919H7.75274C7.2862 17.0919 6.90814 16.7138 6.90814 16.2473V7.75273C6.90814 7.28617 7.2862 6.9081 7.75274 6.9081H16.247C16.7135 6.9081 17.0916 7.28617 17.0916 7.75273V16.2473ZM10.3026 14.1719C10.034 14.1719 9.81838 13.9547 9.81838 13.686V10.2947C9.81838 10.026 10.034 9.80718 10.3026 9.80718H13.6987C13.9657 9.80718 14.1829 10.0244 14.1829 10.2947V13.6844C14.1829 13.9531 13.9657 14.1703 13.6987 14.1703H10.3026V14.1719Z" fill="#64748B"/>
</svg>