<svg xmlns="http://www.w3.org/2000/svg" width="24" height="24" viewBox="0 0 24 24" fill="none">
  <path d="M19.4655 8.48526C19.476 8.63715 19.476 8.78904 19.476 8.94233C19.476 13.6131 15.9202 19 9.41836 19V18.9972C7.49768 19 5.6169 18.4498 4 17.4125C4.27928 17.4461 4.55996 17.4629 4.84135 17.4636C6.43305 17.465 7.97925 16.9309 9.23147 15.9475C7.71887 15.9188 6.39245 14.9326 5.92908 13.4927C6.45894 13.5949 7.00491 13.5739 7.52498 13.4319C5.87588 13.0987 4.68946 11.6498 4.68946 9.96707C4.68946 9.95167 4.68946 9.93697 4.68946 9.92227C5.18083 10.196 5.73099 10.3478 6.29376 10.3646C4.74055 9.32661 4.26178 7.26034 5.19972 5.64484C6.99441 7.8532 9.64234 9.19572 12.4849 9.33781C12.2 8.11009 12.5892 6.82357 13.5075 5.96052C14.9312 4.62221 17.1704 4.6908 18.5087 6.11381C19.3003 5.95772 20.0591 5.66724 20.7534 5.25567C20.4896 6.07392 19.9373 6.76897 19.1995 7.21064C19.9002 7.12805 20.5848 6.94046 21.2294 6.65418C20.7548 7.36533 20.1571 7.9848 19.4655 8.48526Z" fill="#1D9BF0"/>
</svg>