<svg xmlns="http://www.w3.org/2000/svg" width="24" height="24" viewBox="0 0 24 24" fill="none">
  <path d="M16.1473 9.50696C16.1473 9.50696 14.7457 13.9145 14.6324 14.2783C14.5906 13.9085 13.5588 6 13.5588 6C11.1672 6 9.88485 7.70577 9.21686 9.49503C9.21686 9.49503 7.5111 13.9085 7.36796 14.2843C7.35603 13.9443 7.10553 9.54871 7.10553 9.54871C6.96835 7.35984 4.95245 6.01789 3.32422 6.01789L5.29837 17.994C7.79738 17.9821 9.15126 16.2883 9.861 14.499C9.861 14.499 11.3699 10.6103 11.4236 10.4254C11.4355 10.5924 12.4972 18 12.4972 18C15.0081 18 16.356 16.4076 17.0896 14.6779L20.6204 6.01789C18.1334 6.01193 16.8272 7.71173 16.1473 9.50696Z" fill="#4353FF"/>
</svg>