<svg xmlns="http://www.w3.org/2000/svg" width="24" height="24" viewBox="0 0 24 24" fill="none">
  <path d="M12.3988 18.2093L8.70588 18.1418C7.5102 18.1183 6.31154 18.1652 5.13931 17.9214C3.35607 17.5571 3.22973 15.7709 3.09754 14.2726C2.91539 12.1662 2.98591 10.0215 3.32964 7.9327C3.52369 6.76064 4.28736 6.06127 5.46834 5.98516C9.45503 5.70897 13.4682 5.7417 17.4461 5.87055C17.8662 5.88237 18.2892 5.94693 18.7034 6.02042C20.7483 6.37885 20.7981 8.40303 20.9307 10.107C21.0629 11.8286 21.007 13.559 20.7544 15.2688C20.5517 16.6845 20.1638 17.8717 18.5271 17.9863C16.4764 18.1362 14.4728 18.2568 12.4164 18.2184C12.4165 18.2093 12.4046 18.2093 12.3988 18.2093ZM10.2277 14.6252C11.7731 13.7379 13.289 12.8654 14.8255 11.984C13.2772 11.0967 11.7642 10.2242 10.2277 9.3429V14.6252Z" fill="#FF0000"/>
</svg>