<svg width="250" height="251" viewBox="0 0 250 251" fill="none" xmlns="http://www.w3.org/2000/svg">
<path id="Vector" d="M0 0.254883H10V10.2549H0V0.254883ZM10 0.254883H20V10.2549H10V0.254883ZM20 0.254883H30V10.2549H20V0.254883ZM30 0.254883H40V10.2549H30V0.254883ZM40 0.254883H50V10.2549H40V0.254883ZM50 0.254883H60V10.2549H50V0.254883ZM60 0.254883H70V10.2549H60V0.254883ZM110 0.254883H120V10.2549H110V0.254883ZM140 0.254883H150V10.2549H140V0.254883ZM150 0.254883H160V10.2549H150V0.254883ZM160 0.254883H170V10.2549H160V0.254883ZM180 0.254883H190V10.2549H180V0.254883ZM190 0.254883H200V10.2549H190V0.254883ZM200 0.254883H210V10.2549H200V0.254883ZM210 0.254883H220V10.2549H210V0.254883ZM220 0.254883H230V10.2549H220V0.254883ZM230 0.254883H240V10.2549H230V0.254883ZM240 0.254883H250V10.2549H240V0.254883ZM0 10.2549H10V20.2549H0V10.2549ZM60 10.2549H70V20.2549H60V10.2549ZM90 10.2549H100V20.2549H90V10.2549ZM130 10.2549H140V20.2549H130V10.2549ZM140 10.2549H150V20.2549H140V10.2549ZM160 10.2549H170V20.2549H160V10.2549ZM180 10.2549H190V20.2549H180V10.2549ZM240 10.2549H250V20.2549H240V10.2549ZM0 20.2549H10V30.2549H0V20.2549ZM20 20.2549H30V30.2549H20V20.2549ZM30 20.2549H40V30.2549H30V20.2549ZM40 20.2549H50V30.2549H40V20.2549ZM60 20.2549H70V30.2549H60V20.2549ZM90 20.2549H100V30.2549H90V20.2549ZM100 20.2549H110V30.2549H100V20.2549ZM120 20.2549H130V30.2549H120V20.2549ZM140 20.2549H150V30.2549H140V20.2549ZM150 20.2549H160V30.2549H150V20.2549ZM180 20.2549H190V30.2549H180V20.2549ZM200 20.2549H210V30.2549H200V20.2549ZM210 20.2549H220V30.2549H210V20.2549ZM220 20.2549H230V30.2549H220V20.2549ZM240 20.2549H250V30.2549H240V20.2549ZM0 30.2549H10V40.2549H0V30.2549ZM20 30.2549H30V40.2549H20V30.2549ZM30 30.2549H40V40.2549H30V30.2549ZM40 30.2549H50V40.2549H40V30.2549ZM60 30.2549H70V40.2549H60V30.2549ZM80 30.2549H90V40.2549H80V30.2549ZM90 30.2549H100V40.2549H90V30.2549ZM120 30.2549H130V40.2549H120V30.2549ZM140 30.2549H150V40.2549H140V30.2549ZM150 30.2549H160V40.2549H150V30.2549ZM180 30.2549H190V40.2549H180V30.2549ZM200 30.2549H210V40.2549H200V30.2549ZM210 30.2549H220V40.2549H210V30.2549ZM220 30.2549H230V40.2549H220V30.2549ZM240 30.2549H250V40.2549H240V30.2549ZM0 40.2549H10V50.2549H0V40.2549ZM20 40.2549H30V50.2549H20V40.2549ZM30 40.2549H40V50.2549H30V40.2549ZM40 40.2549H50V50.2549H40V40.2549ZM60 40.2549H70V50.2549H60V40.2549ZM100 40.2549H110V50.2549H100V40.2549ZM110 40.2549H120V50.2549H110V40.2549ZM120 40.2549H130V50.2549H120V40.2549ZM130 40.2549H140V50.2549H130V40.2549ZM140 40.2549H150V50.2549H140V40.2549ZM180 40.2549H190V50.2549H180V40.2549ZM200 40.2549H210V50.2549H200V40.2549ZM210 40.2549H220V50.2549H210V40.2549ZM220 40.2549H230V50.2549H220V40.2549ZM240 40.2549H250V50.2549H240V40.2549ZM0 50.2549H10V60.2549H0V50.2549ZM60 50.2549H70V60.2549H60V50.2549ZM80 50.2549H90V60.2549H80V50.2549ZM110 50.2549H120V60.2549H110V50.2549ZM160 50.2549H170V60.2549H160V50.2549ZM180 50.2549H190V60.2549H180V50.2549ZM240 50.2549H250V60.2549H240V50.2549ZM0 60.2549H10V70.2549H0V60.2549ZM10 60.2549H20V70.2549H10V60.2549ZM20 60.2549H30V70.2549H20V60.2549ZM30 60.2549H40V70.2549H30V60.2549ZM40 60.2549H50V70.2549H40V60.2549ZM50 60.2549H60V70.2549H50V60.2549ZM60 60.2549H70V70.2549H60V60.2549ZM80 60.2549H90V70.2549H80V60.2549ZM100 60.2549H110V70.2549H100V60.2549ZM120 60.2549H130V70.2549H120V60.2549ZM140 60.2549H150V70.2549H140V60.2549ZM160 60.2549H170V70.2549H160V60.2549ZM180 60.2549H190V70.2549H180V60.2549ZM190 60.2549H200V70.2549H190V60.2549ZM200 60.2549H210V70.2549H200V60.2549ZM210 60.2549H220V70.2549H210V60.2549ZM220 60.2549H230V70.2549H220V60.2549ZM230 60.2549H240V70.2549H230V60.2549ZM240 60.2549H250V70.2549H240V60.2549ZM80 70.2549H90V80.2549H80V70.2549ZM90 70.2549H100V80.2549H90V70.2549ZM100 70.2549H110V80.2549H100V70.2549ZM140 70.2549H150V80.2549H140V70.2549ZM150 70.2549H160V80.2549H150V70.2549ZM160 70.2549H170V80.2549H160V70.2549ZM10 80.2549H20V90.2549H10V80.2549ZM20 80.2549H30V90.2549H20V80.2549ZM60 80.2549H70V90.2549H60V80.2549ZM130 80.2549H140V90.2549H130V80.2549ZM140 80.2549H150V90.2549H140V80.2549ZM160 80.2549H170V90.2549H160V80.2549ZM180 80.2549H190V90.2549H180V80.2549ZM190 80.2549H200V90.2549H190V80.2549ZM210 80.2549H220V90.2549H210V80.2549ZM10 90.2549H20V100.255H10V90.2549ZM20 90.2549H30V100.255H20V90.2549ZM40 90.2549H50V100.255H40V90.2549ZM70 90.2549H80V100.255H70V90.2549ZM100 90.2549H110V100.255H100V90.2549ZM110 90.2549H120V100.255H110V90.2549ZM120 90.2549H130V100.255H120V90.2549ZM130 90.2549H140V100.255H130V90.2549ZM140 90.2549H150V100.255H140V90.2549ZM150 90.2549H160V100.255H150V90.2549ZM160 90.2549H170V100.255H160V90.2549ZM180 90.2549H190V100.255H180V90.2549ZM190 90.2549H200V100.255H190V90.2549ZM210 90.2549H220V100.255H210V90.2549ZM230 90.2549H240V100.255H230V90.2549ZM240 90.2549H250V100.255H240V90.2549ZM60 100.255H70V110.255H60V100.255ZM110 100.255H120V110.255H110V100.255ZM150 100.255H160V110.255H150V100.255ZM170 100.255H180V110.255H170V100.255ZM190 100.255H200V110.255H190V100.255ZM210 100.255H220V110.255H210V100.255ZM220 100.255H230V110.255H220V100.255ZM240 100.255H250V110.255H240V100.255ZM0 110.255H10V120.255H0V110.255ZM10 110.255H20V120.255H10V110.255ZM40 110.255H50V120.255H40V110.255ZM70 110.255H80V120.255H70V110.255ZM90 110.255H100V120.255H90V110.255ZM100 110.255H110V120.255H100V110.255ZM130 110.255H140V120.255H130V110.255ZM150 110.255H160V120.255H150V110.255ZM170 110.255H180V120.255H170V110.255ZM190 110.255H200V120.255H190V110.255ZM210 110.255H220V120.255H210V110.255ZM0 120.255H10V130.255H0V120.255ZM10 120.255H20V130.255H10V120.255ZM30 120.255H40V130.255H30V120.255ZM60 120.255H70V130.255H60V120.255ZM70 120.255H80V130.255H70V120.255ZM80 120.255H90V130.255H80V120.255ZM90 120.255H100V130.255H90V120.255ZM100 120.255H110V130.255H100V120.255ZM130 120.255H140V130.255H130V120.255ZM150 120.255H160V130.255H150V120.255ZM160 120.255H170V130.255H160V120.255ZM180 120.255H190V130.255H180V120.255ZM190 120.255H200V130.255H190V120.255ZM240 120.255H250V130.255H240V120.255ZM20 130.255H30V140.255H20V130.255ZM30 130.255H40V140.255H30V130.255ZM40 130.255H50V140.255H40V130.255ZM100 130.255H110V140.255H100V130.255ZM110 130.255H120V140.255H110V130.255ZM120 130.255H130V140.255H120V130.255ZM150 130.255H160V140.255H150V130.255ZM160 130.255H170V140.255H160V130.255ZM180 130.255H190V140.255H180V130.255ZM190 130.255H200V140.255H190V130.255ZM230 130.255H240V140.255H230V130.255ZM240 130.255H250V140.255H240V130.255ZM0 140.255H10V150.255H0V140.255ZM10 140.255H20V150.255H10V140.255ZM30 140.255H40V150.255H30V140.255ZM50 140.255H60V150.255H50V140.255ZM60 140.255H70V150.255H60V140.255ZM80 140.255H90V150.255H80V140.255ZM90 140.255H100V150.255H90V140.255ZM100 140.255H110V150.255H100V140.255ZM120 140.255H130V150.255H120V140.255ZM150 140.255H160V150.255H150V140.255ZM160 140.255H170V150.255H160V140.255ZM180 140.255H190V150.255H180V140.255ZM210 140.255H220V150.255H210V140.255ZM220 140.255H230V150.255H220V140.255ZM240 140.255H250V150.255H240V140.255ZM20 150.255H30V160.255H20V150.255ZM30 150.255H40V160.255H30V150.255ZM40 150.255H50V160.255H40V150.255ZM70 150.255H80V160.255H70V150.255ZM100 150.255H110V160.255H100V150.255ZM140 150.255H150V160.255H140V150.255ZM150 150.255H160V160.255H150V150.255ZM160 150.255H170V160.255H160V150.255ZM170 150.255H180V160.255H170V150.255ZM180 150.255H190V160.255H180V150.255ZM190 150.255H200V160.255H190V150.255ZM200 150.255H210V160.255H200V150.255ZM210 150.255H220V160.255H210V150.255ZM0 160.255H10V170.255H0V160.255ZM10 160.255H20V170.255H10V160.255ZM20 160.255H30V170.255H20V160.255ZM40 160.255H50V170.255H40V160.255ZM60 160.255H70V170.255H60V160.255ZM80 160.255H90V170.255H80V160.255ZM110 160.255H120V170.255H110V160.255ZM160 160.255H170V170.255H160V160.255ZM170 160.255H180V170.255H170V160.255ZM180 160.255H190V170.255H180V160.255ZM190 160.255H200V170.255H190V160.255ZM200 160.255H210V170.255H200V160.255ZM230 160.255H240V170.255H230V160.255ZM80 170.255H90V180.255H80V170.255ZM90 170.255H100V180.255H90V170.255ZM100 170.255H110V180.255H100V170.255ZM110 170.255H120V180.255H110V170.255ZM130 170.255H140V180.255H130V170.255ZM140 170.255H150V180.255H140V170.255ZM160 170.255H170V180.255H160V170.255ZM200 170.255H210V180.255H200V170.255ZM240 170.255H250V180.255H240V170.255ZM0 180.255H10V190.255H0V180.255ZM10 180.255H20V190.255H10V180.255ZM20 180.255H30V190.255H20V180.255ZM30 180.255H40V190.255H30V180.255ZM40 180.255H50V190.255H40V180.255ZM50 180.255H60V190.255H50V180.255ZM60 180.255H70V190.255H60V180.255ZM100 180.255H110V190.255H100V180.255ZM110 180.255H120V190.255H110V180.255ZM140 180.255H150V190.255H140V180.255ZM160 180.255H170V190.255H160V180.255ZM180 180.255H190V190.255H180V180.255ZM200 180.255H210V190.255H200V180.255ZM240 180.255H250V190.255H240V180.255ZM0 190.255H10V200.255H0V190.255ZM60 190.255H70V200.255H60V190.255ZM90 190.255H100V200.255H90V190.255ZM100 190.255H110V200.255H100V190.255ZM120 190.255H130V200.255H120V190.255ZM130 190.255H140V200.255H130V190.255ZM160 190.255H170V200.255H160V190.255ZM200 190.255H210V200.255H200V190.255ZM230 190.255H240V200.255H230V190.255ZM0 200.255H10V210.255H0V200.255ZM20 200.255H30V210.255H20V200.255ZM30 200.255H40V210.255H30V200.255ZM40 200.255H50V210.255H40V200.255ZM60 200.255H70V210.255H60V200.255ZM90 200.255H100V210.255H90V200.255ZM100 200.255H110V210.255H100V200.255ZM140 200.255H150V210.255H140V200.255ZM150 200.255H160V210.255H150V200.255ZM160 200.255H170V210.255H160V200.255ZM170 200.255H180V210.255H170V200.255ZM180 200.255H190V210.255H180V200.255ZM190 200.255H200V210.255H190V200.255ZM200 200.255H210V210.255H200V200.255ZM230 200.255H240V210.255H230V200.255ZM240 200.255H250V210.255H240V200.255ZM0 210.255H10V220.255H0V210.255ZM20 210.255H30V220.255H20V210.255ZM30 210.255H40V220.255H30V210.255ZM40 210.255H50V220.255H40V210.255ZM60 210.255H70V220.255H60V210.255ZM90 210.255H100V220.255H90V210.255ZM100 210.255H110V220.255H100V210.255ZM110 210.255H120V220.255H110V210.255ZM120 210.255H130V220.255H120V210.255ZM150 210.255H160V220.255H150V210.255ZM170 210.255H180V220.255H170V210.255ZM200 210.255H210V220.255H200V210.255ZM220 210.255H230V220.255H220V210.255ZM230 210.255H240V220.255H230V210.255ZM0 220.255H10V230.255H0V220.255ZM20 220.255H30V230.255H20V220.255ZM30 220.255H40V230.255H30V220.255ZM40 220.255H50V230.255H40V220.255ZM60 220.255H70V230.255H60V220.255ZM80 220.255H90V230.255H80V220.255ZM130 220.255H140V230.255H130V220.255ZM140 220.255H150V230.255H140V220.255ZM150 220.255H160V230.255H150V220.255ZM160 220.255H170V230.255H160V220.255ZM170 220.255H180V230.255H170V220.255ZM190 220.255H200V230.255H190V220.255ZM200 220.255H210V230.255H200V220.255ZM210 220.255H220V230.255H210V220.255ZM230 220.255H240V230.255H230V220.255ZM240 220.255H250V230.255H240V220.255ZM0 230.255H10V240.255H0V230.255ZM60 230.255H70V240.255H60V230.255ZM80 230.255H90V240.255H80V230.255ZM90 230.255H100V240.255H90V230.255ZM100 230.255H110V240.255H100V230.255ZM130 230.255H140V240.255H130V230.255ZM160 230.255H170V240.255H160V230.255ZM170 230.255H180V240.255H170V230.255ZM180 230.255H190V240.255H180V230.255ZM190 230.255H200V240.255H190V230.255ZM200 230.255H210V240.255H200V230.255ZM0 240.255H10V250.255H0V240.255ZM10 240.255H20V250.255H10V240.255ZM20 240.255H30V250.255H20V240.255ZM30 240.255H40V250.255H30V240.255ZM40 240.255H50V250.255H40V240.255ZM50 240.255H60V250.255H50V240.255ZM60 240.255H70V250.255H60V240.255ZM100 240.255H110V250.255H100V240.255ZM120 240.255H130V250.255H120V240.255ZM160 240.255H170V250.255H160V240.255ZM180 240.255H190V250.255H180V240.255ZM210 240.255H220V250.255H210V240.255ZM240 240.255H250V250.255H240V240.255Z" fill="black"/>
</svg>
