<svg width="25" height="24" viewBox="0 0 25 24" fill="none" xmlns="http://www.w3.org/2000/svg">
<path d="M20.5002 20.83L18.2402 18.57" stroke="#0F172A" stroke-width="1.5" stroke-linecap="round" stroke-linejoin="round"/>
<path d="M6.76 18.57L4.5 20.83" stroke="#0F172A" stroke-width="1.5" stroke-linecap="round" stroke-linejoin="round"/>
<path d="M9.43925 5.61099C13.5212 3.91999 18.2002 5.85799 19.8912 9.93999C21.5822 14.022 19.6432 18.701 15.5622 20.391C11.4802 22.082 6.80125 20.143 5.11125 16.062C3.42025 11.981 5.35825 7.30099 9.43925 5.61099" stroke="#0F172A" stroke-width="1.5" stroke-linecap="round" stroke-linejoin="round"/>
<path d="M12.25 9.43201V13.567L15.5 15.549" stroke="#0F172A" stroke-width="1.5" stroke-linecap="round" stroke-linejoin="round"/>
<path d="M8.0144 3.1C6.8174 2.76 5.4804 3.045 4.5384 3.987C3.7274 4.799 3.4054 5.905 3.5454 6.962" stroke="#0F172A" stroke-width="1.5" stroke-linecap="round" stroke-linejoin="round"/>
<path d="M16.999 3.1C18.196 2.76 19.532 3.045 20.474 3.987C21.286 4.799 21.608 5.905 21.468 6.962" stroke="#0F172A" stroke-width="1.5" stroke-linecap="round" stroke-linejoin="round"/>
</svg>
