<svg width="24" height="25" viewBox="0 0 24 25" fill="none" xmlns="http://www.w3.org/2000/svg">
<path d="M20.0002 21.3299L17.7402 19.0699" stroke="#94A3B8" stroke-width="1.5" stroke-linecap="round" stroke-linejoin="round"/>
<path d="M6.26 19.0699L4 21.3299" stroke="#94A3B8" stroke-width="1.5" stroke-linecap="round" stroke-linejoin="round"/>
<path d="M8.93925 6.11099C13.0212 4.41999 17.7002 6.35799 19.3912 10.44C21.0822 14.522 19.1432 19.201 15.0622 20.891C10.9802 22.582 6.30125 20.643 4.61125 16.562C2.92025 12.481 4.85825 7.80099 8.93925 6.11099" stroke="#94A3B8" stroke-width="1.5" stroke-linecap="round" stroke-linejoin="round"/>
<path d="M11.75 9.93201V14.067L15 16.049" stroke="#94A3B8" stroke-width="1.5" stroke-linecap="round" stroke-linejoin="round"/>
<path d="M7.5144 3.6C6.3174 3.26 4.9804 3.545 4.0384 4.487C3.2274 5.299 2.9054 6.405 3.0454 7.462" stroke="#94A3B8" stroke-width="1.5" stroke-linecap="round" stroke-linejoin="round"/>
<path d="M16.499 3.6C17.696 3.26 19.032 3.545 19.974 4.487C20.786 5.299 21.108 6.405 20.968 7.462" stroke="#94A3B8" stroke-width="1.5" stroke-linecap="round" stroke-linejoin="round"/>
</svg>