<svg width="24" height="25" viewBox="0 0 24 25" fill="none" xmlns="http://www.w3.org/2000/svg">
<g id="Group">
<g id="Group_2">
<path id="Path" d="M21 11.2708V19.2708C21 20.3758 20.105 21.2708 19 21.2708H5C3.895 21.2708 3 20.3758 3 19.2708V5.27075C3 4.16575 3.895 3.27075 5 3.27075H12" stroke="#0F172A" stroke-width="1.5" stroke-linecap="round" stroke-linejoin="round"/>
<path id="Path_2" fill-rule="evenodd" clip-rule="evenodd" d="M9 15.2707L12.15 14.8817C12.371 14.8547 12.577 14.7537 12.735 14.5967L20.366 6.96575C21.211 6.12075 21.211 4.75075 20.366 3.90475V3.90475C19.521 3.05975 18.151 3.05975 17.305 3.90475L9.745 11.4647C9.592 11.6177 9.493 11.8157 9.462 12.0307L9 15.2707Z" stroke="#0F172A" stroke-width="1.5" stroke-linecap="round" stroke-linejoin="round"/>
</g>
</g>
</svg>
