<svg width="24" height="24" viewBox="0 0 24 24" fill="none" xmlns="http://www.w3.org/2000/svg">
<g id="Group">
<g id="Group_2">
<path id="Path" d="M18 5H21" stroke="#475569" stroke-width="1.5" stroke-linecap="round" stroke-linejoin="round"/>
<path id="Path_2" d="M3 5H14" stroke="#475569" stroke-width="1.5" stroke-linecap="round" stroke-linejoin="round"/>
<path id="Path_3" d="M10 12H21" stroke="#475569" stroke-width="1.5" stroke-linecap="round" stroke-linejoin="round"/>
<path id="Path_4" d="M3 12H6" stroke="#475569" stroke-width="1.5" stroke-linecap="round" stroke-linejoin="round"/>
<path id="Path_5" d="M18 19H21" stroke="#475569" stroke-width="1.5" stroke-linecap="round" stroke-linejoin="round"/>
<path id="Path_6" d="M3 19H14" stroke="#475569" stroke-width="1.5" stroke-linecap="round" stroke-linejoin="round"/>
<path id="Path_7" d="M17.4142 3.58579C18.1953 4.36684 18.1953 5.63317 17.4142 6.41422C16.6332 7.19527 15.3668 7.19527 14.5858 6.41422C13.8047 5.63317 13.8047 4.36684 14.5858 3.58579C15.3668 2.80474 16.6332 2.80474 17.4142 3.58579" stroke="#475569" stroke-width="1.5" stroke-linecap="round" stroke-linejoin="round"/>
<path id="Path_8" d="M9.41422 10.5858C10.1953 11.3668 10.1953 12.6332 9.41422 13.4142C8.63317 14.1953 7.36684 14.1953 6.58579 13.4142C5.80474 12.6332 5.80474 11.3668 6.58579 10.5858C7.36684 9.80474 8.63317 9.80474 9.41422 10.5858" stroke="#475569" stroke-width="1.5" stroke-linecap="round" stroke-linejoin="round"/>
<path id="Path_9" d="M17.4142 17.5858C18.1953 18.3668 18.1953 19.6332 17.4142 20.4142C16.6332 21.1953 15.3668 21.1953 14.5858 20.4142C13.8047 19.6332 13.8047 18.3668 14.5858 17.5858C15.3668 16.8047 16.6332 16.8047 17.4142 17.5858" stroke="#475569" stroke-width="1.5" stroke-linecap="round" stroke-linejoin="round"/>
</g>
</g>
</svg>
