<svg width="24" height="24" viewBox="0 0 24 24" fill="none" xmlns="http://www.w3.org/2000/svg">
<path fill-rule="evenodd" clip-rule="evenodd" d="M13.5 13.7L6.70001 20.5C5.80001 21.4 4.40001 21.4 3.50001 20.5C2.60001 19.6 2.60001 18.2 3.50001 17.3L10.3 10.5C9.50001 8.49997 10 6.19997 11.6 4.59997C13.3 2.89997 15.8 2.59997 17.8 3.39997C17.9 3.39997 17.9 3.49997 17.8 3.59997L14.2 7.19997L16.8 9.79997L20.5 6.19997C20.5 6.19997 20.6 6.19997 20.7 6.19997C21.7 8.19997 21.2 10.7 19.5 12.4C17.8 14 15.5 14.4 13.5 13.7Z" stroke="white" stroke-width="1.5" stroke-linecap="round" stroke-linejoin="round"/>
</svg>
