<svg width="24" height="24" viewBox="0 0 24 24" fill="none" xmlns="http://www.w3.org/2000/svg">
<path d="M4 16H2C1.44772 16 1 15.5523 1 15V11C1 10.4477 1.44772 10 2 10H4" stroke="white" stroke-width="1.5" stroke-linecap="round" stroke-linejoin="round"/>
<path d="M20 10H22C22.5523 10 23 10.4477 23 11V15C23 15.5523 22.5523 16 22 16H20" stroke="white" stroke-width="1.5" stroke-linecap="round" stroke-linejoin="round"/>
<path fill-rule="evenodd" clip-rule="evenodd" d="M10.0482 18.5681L11.1776 16.932C11.3642 16.6617 11.6716 16.5004 12 16.5004C12.3284 16.5004 12.6358 16.6617 12.8224 16.932L13.9518 18.5681C14.1385 18.8386 14.4462 19 14.7748 19H18C19.1046 19 20 18.1046 20 17V10C20 8.89543 19.1046 8 18 8H6C4.89543 8 4 8.89543 4 10V17C4 18.1046 4.89543 19 6 19H9.22519C9.55381 19 9.86146 18.8385 10.0482 18.5681Z" stroke="white" stroke-width="1.5" stroke-linecap="round" stroke-linejoin="round"/>
<path d="M9 8V6C9 5.44772 9.44772 5 10 5H14C14.5523 5 15 5.44772 15 6V8" stroke="white" stroke-width="1.5" stroke-linecap="round" stroke-linejoin="round"/>
<circle cx="15.5" cy="12.5" r="1.5" fill="white"/>
<circle cx="8.5" cy="12.5" r="1.5" fill="white"/>
</svg>
