<svg width="24" height="25" viewBox="0 0 24 25" fill="none" xmlns="http://www.w3.org/2000/svg">
<path d="M0 12.2708C0 5.64334 5.37258 0.270752 12 0.270752V0.270752C18.6274 0.270752 24 5.64334 24 12.2708V12.2708C24 18.8982 18.6274 24.2708 12 24.2708V24.2708C5.37258 24.2708 0 18.8982 0 12.2708V12.2708Z" fill="#CBD5E1"/>
<path d="M19.561 7.71472L12.005 15.2707L8.22803 11.4927" stroke="#94A3B8" stroke-width="1.5" stroke-linecap="round" stroke-linejoin="round"/>
<path d="M21 12.2708C21 17.2418 16.971 21.2708 12 21.2708C7.029 21.2708 3 17.2418 3 12.2708C3 7.29975 7.029 3.27075 12 3.27075C13.453 3.27075 14.821 3.62375 16.036 4.23475" stroke="#94A3B8" stroke-width="1.5" stroke-linecap="round" stroke-linejoin="round"/>
</svg>
