<svg width="48" height="48" viewBox="0 0 48 48" fill="none" xmlns="http://www.w3.org/2000/svg">
<g id="1inch (1INCH)">
<circle id="1inch (1INCH)_2" cx="24" cy="24" r="24" fill="#EDF0F4"/>
<path id="1inch (1INCH)_3" d="M15.7806 25.6736L16.6007 19.5118L9.4873 14.5737L15.9868 16.7752L17.5217 14.4202L23.1265 10.9424L35.4807 17.7488L36.121 28.1339L30.6171 35.7824L26.2666 36.449L28.5164 32.3309V28.3664L26.8806 25.2701L25.2184 24.1693L22.6616 26.8051V29.5943L20.6662 31.4626L18.1313 31.7696L17.0086 32.4055L15.1667 31.8178L14.3992 29.0549L15.7806 27.1121V25.6736Z" fill="white"/>
<path id="1inch (1INCH)_4" d="M27.1394 14.5211C25.7843 14.2404 24.3019 14.315 24.3019 14.315C24.3019 14.315 23.8151 16.5648 20.7979 17.1569C20.8198 17.1569 24.7844 18.512 27.1394 14.5211Z" fill="#94A6C3"/>
<path id="1inch (1INCH)_5" d="M28.3677 34.9361C30.0036 33.6555 31.2315 31.8925 31.7973 29.897C31.8236 29.8225 32.0516 29.6909 32.2051 29.59C32.4595 29.4365 32.7182 29.3094 32.7665 29.1032C32.8673 28.5156 32.92 27.9016 32.92 27.2876C32.92 27.0595 32.6875 26.8271 32.4595 26.5991C32.2797 26.4456 32.0999 26.2658 32.0999 26.1386C31.8455 23.8098 30.771 21.6346 29.0563 20.0514L28.8765 20.2312C30.5386 21.7924 31.6131 23.9151 31.8455 26.1649C31.8718 26.371 32.0736 26.5727 32.2797 26.7789C32.4595 26.9324 32.6656 27.1648 32.6656 27.2657C32.6656 27.8533 32.613 28.441 32.5121 29.0287C32.4858 29.1296 32.2577 29.2348 32.0779 29.3357C31.8236 29.4629 31.5911 29.59 31.5429 29.7962C30.9289 31.9714 29.5211 33.866 27.6529 35.094C27.9862 34.3791 29.0343 32.0504 29.5957 30.8706L29.4948 27.0859L26.2451 23.9414L24.4031 24.1958L22.3814 27.4718C22.3814 27.4718 23.3287 28.6734 21.9955 30.0812C20.6929 31.4627 19.6667 31.7697 19.6667 31.7697L18.7194 31.2566C19.0001 30.8969 19.5658 30.3619 20 30.0023C20.7412 29.3883 21.4823 29.3357 21.4823 28.6734C21.513 27.2876 20.0263 27.6691 20.0263 27.6691L19.4869 28.1823L19.2588 30.0768L18.1361 31.4846L18.0089 31.4583L16.167 31.0504C16.167 31.0504 17.2941 30.4628 17.4739 29.7962C17.6537 29.1559 17.1143 27.0332 17.088 26.9061C17.1143 26.9324 17.6274 27.3665 17.8554 28.0814C18.2633 26.9543 18.8027 25.8798 18.9562 25.779C19.1097 25.6781 21.1797 24.5773 21.1797 24.5773L20.4912 26.3929L21.0043 26.1123L22.2323 23.095C22.2323 23.095 23.4339 22.5073 24.3286 22.5073C25.9381 22.481 28.3195 20.5119 27.245 16.9814C27.552 17.1086 32.8717 19.7707 33.7927 24.9895C34.4812 29.0024 32.2051 32.7608 28.3677 34.9361Z" fill="#94A6C3"/>
<path id="1inch (1INCH)_6" d="M22.2803 15.0824C22.8679 14.3895 22.6399 13.3677 22.6399 13.3677L20.9251 15.9026C20.8988 15.9026 21.5347 15.9289 22.2803 15.0824Z" fill="#1B314F"/>
<path id="1inch (1INCH)_7" d="M16.5223 28.9233L16.7284 27.9015C16.7284 27.9015 15.882 29.3838 15.8074 29.5899C15.7285 29.8224 15.8601 30.2302 16.189 30.2039C16.5223 30.1776 16.9302 29.6908 16.9302 29.3356C16.9302 28.8751 16.5223 28.9233 16.5223 28.9233Z" fill="#1B314F"/>
<path id="1inch (1INCH)_8" fill-rule="evenodd" clip-rule="evenodd" d="M31.7181 12.6528C31.7181 12.6528 32.9987 12.7054 34.3275 12.8589C31.3321 10.5039 28.4946 9.81531 26.1922 9.81531C23.1193 9.81531 21.0061 11.0428 20.7588 11.1864L20.7409 11.1968L21.7408 9.60919C21.7408 9.60919 17.7499 9.22326 16.3422 13.4466C15.9825 12.5519 15.6536 11.245 15.6536 11.245C15.6536 11.245 13.5792 13.065 14.5528 16.0823C12.1715 15.214 8.77262 14.0079 8.64105 13.986C8.46124 13.9597 8.40861 14.0386 8.40861 14.0386C8.40861 14.0386 8.35598 14.1132 8.50948 14.2448C8.79454 14.4684 14.1669 18.4374 15.3466 19.2049C15.0923 20.1259 15.0923 20.56 15.3466 20.9942C15.7062 21.5819 15.7282 21.8889 15.6799 22.323C15.6273 22.7572 15.1668 26.5201 15.0659 26.9805C15.025 27.1675 14.8236 27.5481 14.6021 27.9668C14.2778 28.5797 13.9102 29.2745 13.9388 29.5637C13.9915 30.0505 14.6537 32.1205 15.2458 32.3529C15.6799 32.5064 16.7544 32.8397 17.4693 32.8397C17.7236 32.8397 17.9561 32.7871 18.0569 32.6862C18.4911 32.3047 18.6183 32.2257 18.9253 32.2257H18.9998C19.0579 32.2257 19.1215 32.2312 19.1906 32.2372L19.1906 32.2372H19.1906H19.1907C19.2728 32.2443 19.3627 32.252 19.4603 32.252C19.8682 32.252 20.4076 32.1731 20.7892 31.8179C21.0526 31.5544 21.4069 31.2455 21.7404 30.9547C22.1176 30.6259 22.4682 30.3202 22.6311 30.1294C23.017 29.6426 23.2188 28.9804 23.1179 28.3138C23.039 27.6998 23.3723 27.1604 23.7582 26.6253C24.245 25.985 25.1397 24.836 25.1397 24.836C26.9071 26.1604 28.0078 28.1822 28.0078 30.432C28.0078 34.4229 24.5301 37.6463 20.2322 37.6463C19.5656 37.6463 18.9297 37.5718 18.2894 37.4183C20.2585 38.1068 21.9206 38.3392 23.2802 38.3392C26.1703 38.3392 27.7052 37.2911 27.7052 37.2911C27.7052 37.2911 27.1702 37.984 26.2975 38.7734H26.3238C31.1085 38.1068 33.4372 34.1685 33.4372 34.1685C33.4372 34.1685 33.2574 35.4491 33.0294 36.3175C39.2428 31.6456 38.3649 25.828 38.2956 25.3685L38.2921 25.3447C38.3174 25.3807 38.4794 25.5776 38.6771 25.8182L38.6773 25.8183L38.6773 25.8184L38.678 25.8192C38.8903 26.0774 39.1438 26.3857 39.3139 26.599C40.3401 16.056 31.7181 12.6528 31.7181 12.6528ZM21.2631 30.1149L21.2631 30.115L21.2629 30.1151C21.199 30.1732 21.1365 30.2299 21.0785 30.2829C20.9783 30.3745 20.8753 30.4661 20.7731 30.557L20.7731 30.557C20.5623 30.7445 20.3552 30.9287 20.1839 31.103C20.083 31.2038 19.8769 31.2565 19.5699 31.2565H19.2892H19.1357H19.0348H18.8024C19.1883 30.7434 20.311 29.568 20.697 29.3137C21.1575 29.0067 21.3899 28.6997 21.1048 28.1646C20.8242 27.6252 20.083 27.7568 20.083 27.7568C20.083 27.7568 20.5172 27.577 20.9031 27.577C20.4163 27.4498 19.8023 27.577 19.5216 27.8576C19.3171 28.0446 19.2722 28.5509 19.2274 29.0561C19.205 29.3091 19.1825 29.5619 19.1401 29.7741C19.0258 30.3733 18.6635 30.7032 18.1074 31.2096L18.1073 31.2096L18.1061 31.2107L18.1056 31.2112C18.0435 31.2677 17.979 31.3265 17.9121 31.388C17.5525 31.7213 17.2981 31.8222 17.092 31.8222C16.6578 31.7477 16.1447 31.6161 15.7851 31.4889C15.5307 31.1556 15.1448 30.0548 15.0439 29.5943C15.0981 29.4095 15.275 29.0742 15.4265 28.7869C15.4836 28.6788 15.537 28.5775 15.579 28.4935L15.623 28.4093C15.9032 27.8734 16.0684 27.5576 16.1184 27.2656C16.2193 26.8314 16.5526 24.143 16.6798 23.0203C17.0131 23.4545 17.4736 24.1737 17.3683 24.6342C18.1095 23.5861 17.5744 22.5598 17.3157 22.152C17.0876 21.7441 16.7806 20.924 17.035 20.0557C17.2894 19.1873 18.2103 16.7796 18.2103 16.7796C18.2103 16.7796 18.5173 17.319 18.9515 17.2138C19.3857 17.1129 22.8898 11.8414 22.8898 11.8414C22.8898 11.8414 23.8371 13.9114 22.8372 15.4245C21.8153 16.9331 20.8154 17.2138 20.8154 17.2138C20.8154 17.2138 22.2232 17.4682 23.5257 16.5209C24.0607 17.7751 24.5738 19.0777 24.6002 19.2575C24.5818 19.2992 24.5126 19.4638 24.4159 19.6937C24.0962 20.4539 23.476 21.9289 23.3985 22.0467C23.3459 22.0993 22.9906 22.2002 22.7319 22.2528C22.2977 22.38 22.0434 22.459 21.9381 22.5335C21.7583 22.687 20.9382 24.9368 20.5566 26.0376C20.0962 26.1648 19.6357 26.4235 19.3024 26.9323C19.4822 26.8051 20.0435 26.7261 20.4558 26.6779C20.8154 26.6516 21.9118 27.2393 22.1969 28.34V28.3927C22.2539 28.7962 22.1267 29.1821 21.9206 29.4891C21.8388 29.5922 21.5377 29.8656 21.2631 30.1149ZM19.737 28.8845C19.7228 29.1324 19.6998 29.5345 19.5173 29.7961C19.5656 29.7435 19.9252 29.3576 20.1094 29.1821C20.1897 29.1088 20.2805 29.0511 20.3671 28.9961L20.3671 28.9961C20.555 28.8768 20.7234 28.7699 20.7234 28.5418C20.7234 28.1866 20.2366 28.1077 20.0304 28.1603C19.8249 28.2084 19.7763 28.5401 19.75 28.7202L19.7498 28.7217C19.7441 28.7603 19.7409 28.8166 19.737 28.8845ZM29.7226 24.9061C29.977 23.6036 30.0033 22.4765 29.9288 21.5555C30.9243 22.8844 31.5383 24.4983 31.7181 26.1604C31.7444 26.3665 31.9461 26.5683 32.1523 26.7744C32.3321 26.9279 32.5382 27.134 32.5382 27.2612C32.5382 27.8489 32.4856 28.4365 32.3847 29.0286C32.3584 29.1032 32.1303 29.2347 31.9505 29.3356C31.6962 29.4628 31.4637 29.59 31.4155 29.7961C30.8541 31.7652 29.6481 33.5063 28.0386 34.7343C30.4156 32.252 31.5646 28.1559 29.7226 24.9061ZM31.6172 29.8707C31.0559 31.8924 29.7753 33.6818 28.1131 34.9624C31.6435 33.2739 34.0731 29.6646 34.0731 25.5202C34.0731 20.1259 29.977 15.6745 24.7318 15.1088C24.5564 15.3894 24.3766 15.6438 24.1968 15.8499L24.1995 15.8568C24.5831 16.8091 25.5782 19.2798 25.5782 19.4067C25.5782 19.5601 25.0914 20.81 25.0388 20.8627C24.9906 20.889 24.4029 20.9416 24.1705 20.9416C23.9161 21.5556 23.6617 22.1433 23.6091 22.2222C23.5302 22.3231 23.3021 22.402 22.8153 22.5292C22.7744 22.541 22.7303 22.5535 22.685 22.5663C22.444 22.6345 22.1667 22.713 22.1224 22.7572C21.9952 22.9107 21.3023 24.7264 20.8418 26.007C21.4558 25.9017 21.9952 26.0289 22.1224 26.0815C23.1223 24.187 23.9117 23.1651 24.1178 23.1651C24.1389 23.1629 24.183 23.1646 24.2463 23.167C24.8039 23.1883 26.8502 23.2664 27.7009 21.2223C28.608 19.0064 27.3326 17.1138 27.2436 16.9818C27.2423 16.9798 27.2412 16.9782 27.2404 16.977C27.2412 16.9774 27.2426 16.9781 27.2444 16.979C27.3578 17.0341 29.3449 17.9996 29.8498 21.0205C30.9988 22.481 31.74 24.244 31.9461 26.1122C31.9461 26.2066 32.0597 26.3301 32.1703 26.4502C32.2087 26.4919 32.2467 26.5332 32.2794 26.5727C32.5075 26.8008 32.7399 27.0332 32.7399 27.2613C32.7399 27.8752 32.6873 28.4892 32.5864 29.0769C32.5382 29.283 32.2794 29.4365 32.0251 29.5637C31.9959 29.5829 31.964 29.6031 31.9314 29.6239C31.7922 29.7125 31.6385 29.8103 31.6172 29.8707Z" fill="#1B314F"/>
<path id="1inch (1INCH)_9" d="M21.3067 21.1477C21.7935 20.5864 21.5391 19.5382 20.6401 19.3584C20.8725 18.8234 21.2014 17.7489 21.2014 17.7489C21.2014 17.7489 18.592 21.8407 18.364 21.9196C18.1315 21.9985 17.9035 21.0995 17.9035 21.0995C17.4167 22.9678 18.7236 23.2221 18.8771 22.6345C19.5919 22.4503 20.8199 21.6828 21.3067 21.1477Z" fill="#1B314F"/>
<path id="1inch (1INCH)_10" d="M19.0791 22.1433L20.4079 19.8672C20.4079 19.8672 21.1754 20.2531 20.7895 20.8671C20.3071 21.582 19.0791 22.1433 19.0791 22.1433Z" fill="#FFD923"/>
<path id="1inch (1INCH)_11" d="M35.529 32.6862C35.1431 33.1993 34.7089 33.7344 34.2002 34.2475C37.4982 27.9015 34.3537 22.095 34.2265 21.8669C34.4589 22.0994 34.687 22.3537 34.8931 22.5818C37.4236 25.393 37.7306 29.6163 35.529 32.6862Z" fill="#D82122"/>
<path id="1inch (1INCH)_12" d="M38.5992 24.5247C37.4458 21.4284 35.81 18.7927 32.205 16.4157C28.7272 14.1133 24.9907 14.2931 24.7846 14.3194C24.7582 14.3194 24.7319 14.3194 24.7319 14.3194C24.8591 14.2668 24.9863 14.2405 25.1135 14.2185C25.9073 13.9642 26.9291 13.758 27.9553 13.6309C30.67 13.2405 33.4066 14.1615 35.2749 16.135C35.3012 16.1613 35.3012 16.1613 35.3275 16.1877C37.4502 18.4375 38.551 21.2486 38.5992 24.5247Z" fill="#D82122"/>
<path id="1inch (1INCH)_13" d="M31.3848 11.859C27.5737 11.1442 25.1178 11.4994 23.3504 12.166C23.2977 11.9599 23.1179 11.552 22.9644 11.2187C22.4338 11.859 21.868 12.6265 21.5128 13.1133C20.5392 13.7799 20.1313 14.4202 20.1313 14.4202C20.6927 12.4993 22.3329 11.0696 24.3284 10.71C24.8897 10.6091 25.5037 10.5565 26.1703 10.5565C27.9333 10.5828 29.6963 11.017 31.3848 11.859Z" fill="#D82122"/>
<path id="1inch (1INCH)_14" d="M17.2898 16.7709C14.2988 16.67 15.2944 13.1878 15.347 12.9861C15.347 13.0124 15.5487 15.7227 17.2898 16.7709Z" fill="#D82122"/>
<path id="1inch (1INCH)_15" d="M20.232 10.5039C17.9296 11.8854 18.39 15.1833 18.39 15.1833C16.1885 11.8371 20.0522 10.5828 20.232 10.5039Z" fill="#D82122"/>
<path id="1inch (1INCH)_16" d="M16.4476 17.6918C16.6011 17.819 16.7546 18.0515 16.5747 18.3848C16.4739 18.5646 16.3204 18.5383 16.0879 18.4374C15.7809 18.2839 13.939 17.2094 12.2769 16.1086C14.1714 16.7753 16.0879 17.4901 16.3949 17.6436C16.3949 17.6436 16.4212 17.6699 16.4476 17.6918Z" fill="white"/>
</g>
</svg>
