<svg width="48" height="48" viewBox="0 0 48 48" fill="none" xmlns="http://www.w3.org/2000/svg">
<g id="Aave (AAVE)">
<circle id="Aave (AAVE)_2" cx="24" cy="24" r="24" fill="url(#paint0_linear_562_1537)"/>
<path id="Aave (AAVE)_3" d="M34.5031 33.5629L26.3876 13.9423C25.9299 12.9278 25.2495 12.433 24.3526 12.433H23.6351C22.7382 12.433 22.0577 12.9278 21.6 13.9423L18.0681 22.4907H15.3959C14.598 22.4969 13.9485 23.1402 13.9423 23.9443V23.9629C13.9485 24.7608 14.598 25.4103 15.3959 25.4165H16.8309L13.4598 33.5629C13.398 33.7423 13.3608 33.9278 13.3608 34.1196C13.3608 34.5773 13.5031 34.9361 13.7567 35.2144C14.0103 35.4928 14.3753 35.6289 14.833 35.6289C15.1361 35.6227 15.4268 35.5299 15.6681 35.3505C15.9279 35.1711 16.1072 34.9113 16.2495 34.6144L19.9608 25.4103H22.534C23.332 25.4041 23.9815 24.7608 23.9876 23.9567V23.9196C23.9815 23.1216 23.332 22.4722 22.534 22.466H21.1608L23.9938 15.4082L31.7134 34.6082C31.8557 34.9051 32.0351 35.1649 32.2949 35.3443C32.5361 35.5237 32.833 35.6165 33.1299 35.6227C33.5876 35.6227 33.9464 35.4866 34.2062 35.2082C34.466 34.9299 34.6021 34.5711 34.6021 34.1134C34.6083 33.9278 34.5773 33.7361 34.5031 33.5629Z" fill="white"/>
</g>
<defs>
<linearGradient id="paint0_linear_562_1537" x1="26.8701" y1="-8.91251" x2="-8.84195" y2="21.1355" gradientUnits="userSpaceOnUse">
<stop stop-color="#B6509E"/>
<stop offset="1" stop-color="#2EBAC6"/>
</linearGradient>
</defs>
</svg>
