<svg width="48" height="48" viewBox="0 0 48 48" fill="none" xmlns="http://www.w3.org/2000/svg">
<g id="Algorand (ALGO)">
<path id="Algorand (ALGO)_2" fill-rule="evenodd" clip-rule="evenodd" d="M24 48C10.8 48 0 37.2002 0 23.8805C0.12 10.6808 10.8 -0.119007 24.12 0.000990408C37.32 0.120988 48 10.8008 48 24.2405C47.88 37.3202 37.2 48 24 48Z" fill="black"/>
<g id="Algorand (ALGO)_3">
<path id="Algorand (ALGO)_4" d="M16.1481 36L19.619 29.9894L23.0899 24L26.5397 17.9894L27.1111 17.037L27.3651 17.9894L28.4233 21.9471L27.2381 24L23.7672 29.9894L20.3175 36H24.4656L27.9365 29.9894L29.7354 26.8783L30.582 29.9894L32.1905 36H35.9153L34.3069 29.9894L32.6984 24L32.2751 22.455L34.8571 17.9894H31.0899L30.963 17.545L29.6508 12.6349L29.4815 12H25.8624L25.7778 12.127L22.3915 17.9894L18.9206 24L15.4709 29.9894L12 36H16.1481Z" fill="white"/>
</g>
</g>
</svg>
