<svg width="48" height="48" viewBox="0 0 48 48" fill="none" xmlns="http://www.w3.org/2000/svg">
<g id="Ankr (ANKR)">
<circle id="Ankr (ANKR)_2" cx="24" cy="24" r="24" fill="#EDF0F4"/>
<g id="Ankr (ANKR)_3">
<path id="Ankr (ANKR)_4" fill-rule="evenodd" clip-rule="evenodd" d="M25.6398 12.36L33.4998 16.38C34.6398 16.98 35.3598 18.12 35.3598 19.44V21.3H32.4798V19.44C32.4798 19.26 32.3598 19.08 32.1798 18.96L24.3198 14.94C24.1998 14.88 24.0198 14.88 23.8398 14.94L15.9798 18.96C15.7998 19.02 15.6798 19.2 15.6798 19.44V21.3H12.7998V19.44C12.7998 18.18 13.5198 16.98 14.6598 16.38L22.5198 12.36C23.4798 11.88 24.6198 11.88 25.6398 12.36ZM26.5399 23.88C26.5399 22.5 25.3999 21.42 24.0799 21.42C22.6999 21.42 21.6199 22.5 21.6199 23.88C21.6199 25.26 22.7599 26.34 24.0799 26.34C25.3999 26.34 26.5399 25.26 26.5399 23.88ZM32.1198 29.04C32.2998 28.98 32.4198 28.8 32.4198 28.56V26.7H35.2998V28.56C35.2998 29.82 34.5798 31.02 33.4398 31.62L25.5798 35.64C25.0998 35.88 24.5598 36 24.0198 36C23.4798 36 22.9398 35.88 22.4598 35.64L14.6598 31.62C13.5198 31.02 12.7998 29.88 12.7998 28.56V26.7H15.6798V28.56C15.6798 28.74 15.7998 28.92 15.9798 29.04L22.6398 32.4V29.04C20.3598 28.38 18.7398 26.34 18.7398 23.88C18.7398 20.94 21.1398 18.48 24.1398 18.48C27.0798 18.48 29.5398 20.88 29.5398 23.88C29.5398 26.34 27.8598 28.44 25.6398 29.04V32.4L32.1198 29.04Z" fill="#245AE5" fill-opacity="0.9"/>
</g>
</g>
</svg>
