<svg width="48" height="48" viewBox="0 0 48 48" fill="none" xmlns="http://www.w3.org/2000/svg">
<g id="Avalanche (AVAX)">
<circle id="Avalanche (AVAX)_2" cx="24" cy="24" r="24" fill="#E84142"/>
<path id="Avalanche (AVAX)_3" fill-rule="evenodd" clip-rule="evenodd" d="M25.436 7.12441C24.6045 5.68819 23.2817 5.68819 22.4502 7.12441L7.35097 33.7134C6.51947 35.1685 7.19979 36.3213 8.86278 36.3213H16.4407C17.9714 36.2268 19.351 35.4142 20.1825 34.1291L29.31 18.3118C29.9714 16.9512 29.9714 15.3449 29.31 13.9842L26.5888 9.20315L25.436 7.12441ZM35.4705 24.6237C34.639 23.1875 33.2973 23.1875 32.4658 24.6237L27.1933 33.7134C26.3807 35.1497 27.0611 36.3213 28.7052 36.3213H39.1367C40.7996 36.3213 41.48 35.1497 40.6485 33.7134L35.4705 24.6237Z" fill="white"/>
</g>
</svg>
