<svg width="48" height="48" viewBox="0 0 48 48" fill="none" xmlns="http://www.w3.org/2000/svg">
<g id="Bitcoin (BTC)">
<path id="Bitcoin (BTC)_2" d="M47.2819 29.8057C44.0766 42.663 31.0542 50.4877 18.1954 47.2815C5.34204 44.0761 -2.48265 31.053 0.724136 18.1967C3.9281 5.33806 16.9504 -2.48721 29.8052 0.718162C42.6631 3.92354 50.4873 16.9481 47.2816 29.806L47.2818 29.8057H47.2819Z" fill="#F7931A"/>
<path id="Bitcoin (BTC)_3" fill-rule="evenodd" clip-rule="evenodd" d="M34.5855 20.5806C35.0632 17.3867 32.6316 15.6699 29.3066 14.5246L30.3852 10.1982L27.7516 9.54199L26.7016 13.7545C26.0092 13.5818 25.2982 13.4191 24.5915 13.2578L25.6492 9.0175L23.0172 8.36127L21.938 12.6862C21.365 12.5558 20.8023 12.4269 20.2563 12.291L20.2594 12.2774L16.6276 11.3705L15.927 14.1834C15.927 14.1834 17.8809 14.6312 17.8398 14.6588C18.9062 14.925 19.0991 15.631 19.0671 16.1905L17.8384 21.1193C17.9118 21.1379 18.007 21.1649 18.1122 21.2072L18.0356 21.1881L18.0355 21.188C17.9706 21.1718 17.9031 21.1549 17.8338 21.1383L16.1116 28.0428C15.9812 28.3668 15.6504 28.8531 14.9048 28.6684C14.9312 28.7067 12.9906 28.1907 12.9906 28.1907L11.6831 31.2054L15.1103 32.0597C15.4856 32.1538 15.8565 32.2505 16.2236 32.3462L16.2236 32.3462C16.4802 32.4131 16.7349 32.4795 16.988 32.5442L15.8982 36.9202L18.5287 37.5765L19.608 33.2469C20.3266 33.442 21.024 33.6219 21.7068 33.7916L20.6311 38.1007L23.2649 38.7569L24.3546 34.3891C28.8454 35.2391 32.2222 34.8964 33.6435 30.8344C34.7888 27.5641 33.5865 25.6777 31.2239 24.4476C32.9447 24.0508 34.2408 22.9189 34.5864 20.581L34.5856 20.5804L34.5855 20.5806ZM28.5683 29.0182C27.8216 32.0187 23.125 30.7782 20.9762 30.2107C20.7829 30.1596 20.6102 30.114 20.4629 30.0774L21.9091 24.28C22.0886 24.3248 22.308 24.374 22.5565 24.4298L22.5567 24.4298C24.7794 24.9286 29.3334 25.9506 28.5684 29.0182H28.5683ZM23.0026 21.7391C24.7941 22.2172 28.7022 23.2602 29.3829 20.5332H29.3831C30.0781 17.7441 26.28 16.9032 24.4251 16.4925C24.2164 16.4463 24.0323 16.4056 23.882 16.3681L22.5708 21.626C22.6946 21.6569 22.8399 21.6957 23.0026 21.7391Z" fill="white"/>
</g>
</svg>
