<svg width="48" height="48" viewBox="0 0 48 48" fill="none" xmlns="http://www.w3.org/2000/svg">
<g id="Cardano (ADA)">
<circle id="Cardano (ADA)_2" cx="24" cy="24" r="24" fill="#0033AD"/>
<g id="Cardano (ADA)_3">
<path id="Cardano (ADA)_4" d="M15.8693 23.8646C15.7925 25.199 16.8196 26.3413 18.154 26.4181C18.202 26.4181 18.25 26.4181 18.298 26.4181C19.6419 26.4181 20.7267 25.3334 20.7171 23.9894C20.7171 22.6455 19.6323 21.5607 18.2884 21.5703C17.002 21.5703 15.9365 22.5783 15.8693 23.8646Z" fill="#EDF0F4"/>
<path id="Cardano (ADA)_5" d="M6.82637 23.2406C6.39439 23.2118 6.02 23.5478 6.00081 23.9798C5.98161 24.4118 6.30799 24.7861 6.73997 24.8053C7.17195 24.8341 7.53674 24.4982 7.56554 24.0662C7.59434 23.6342 7.25835 23.2694 6.82637 23.2406Z" fill="#EDF0F4"/>
<path id="Cardano (ADA)_6" d="M15.7158 9.79169C16.0997 9.5997 16.2533 9.11972 16.0613 8.73574C15.8694 8.35175 15.3894 8.19816 15.0054 8.39015C14.6214 8.58214 14.4678 9.05252 14.6598 9.43651C14.8518 9.83009 15.3222 9.99328 15.7158 9.79169C15.7158 9.79169 15.7062 9.79169 15.7158 9.79169Z" fill="#EDF0F4"/>
<path id="Cardano (ADA)_7" d="M18.1729 14.0827C18.7681 13.7851 19.0081 13.0555 18.7105 12.4603C18.4129 11.8652 17.6833 11.6252 17.0881 11.9228C16.493 12.2204 16.253 12.9499 16.5506 13.5451C16.8482 14.1403 17.5777 14.3803 18.1729 14.0827Z" fill="#EDF0F4"/>
<path id="Cardano (ADA)_8" d="M9.89781 17.0298C10.3586 17.3273 10.973 17.2025 11.2801 16.7418C11.5777 16.281 11.4529 15.6666 10.9922 15.3594C10.5314 15.0618 9.91701 15.1866 9.60982 15.6474C9.30263 16.1082 9.43703 16.7322 9.89781 17.0298Z" fill="#EDF0F4"/>
<path id="Cardano (ADA)_9" d="M11.3672 22.8087C10.6952 22.7703 10.1288 23.2791 10.0904 23.951C10.052 24.623 10.5608 25.1894 11.2328 25.2278C11.9047 25.2662 12.4711 24.7574 12.5095 24.0854C12.5479 23.4231 12.0391 22.8471 11.3672 22.8087Z" fill="#EDF0F4"/>
<path id="Cardano (ADA)_10" d="M10.0328 30.9395C9.54318 31.1891 9.34159 31.7843 9.59118 32.2835C9.84077 32.773 10.4359 32.9746 10.9351 32.725C11.4247 32.4754 11.6263 31.8803 11.3767 31.3811C11.1271 30.8915 10.5223 30.6899 10.0328 30.9395Z" fill="#EDF0F4"/>
<path id="Cardano (ADA)_11" d="M14.7366 20.3032C15.399 20.7352 16.2822 20.5528 16.7045 19.8905C17.1365 19.2281 16.9541 18.3449 16.2918 17.9225C15.6294 17.4906 14.7462 17.673 14.3239 18.3353C13.8919 18.9881 14.0743 19.8713 14.7366 20.3032Z" fill="#EDF0F4"/>
<path id="Cardano (ADA)_12" d="M29.6634 13.9867C30.2202 14.3515 30.9786 14.1979 31.3434 13.6411C31.7081 13.0843 31.5545 12.326 30.9978 11.9612C30.441 11.5964 29.6826 11.75 29.3178 12.3068C28.9435 12.8731 29.0971 13.6219 29.6634 13.9867Z" fill="#EDF0F4"/>
<path id="Cardano (ADA)_13" d="M32.1407 9.71486C32.5055 9.95485 32.9855 9.84926 33.2255 9.48447C33.4654 9.11969 33.3598 8.63971 32.9951 8.39972C32.6303 8.15973 32.1503 8.26533 31.9103 8.62051C31.6799 8.9853 31.7855 9.47488 32.1407 9.71486Z" fill="#EDF0F4"/>
<path id="Cardano (ADA)_14" d="M29.8461 21.5512C28.5118 21.4744 27.3598 22.5015 27.2926 23.8359C27.2158 25.1702 28.243 26.3222 29.5773 26.3894C29.6253 26.3894 29.6733 26.3894 29.7117 26.3894C31.0461 26.3894 32.1308 25.3046 32.1308 23.9607C32.1404 22.6839 31.1325 21.6184 29.8461 21.5512Z" fill="#EDF0F4"/>
<path id="Cardano (ADA)_15" d="M18.9699 20.1304C19.3827 20.9463 20.2178 21.4647 21.1394 21.4647C22.4737 21.4647 23.5585 20.3799 23.5585 19.036C23.5585 18.6616 23.4721 18.2872 23.2993 17.9417C22.6945 16.7417 21.2354 16.2617 20.045 16.8665C18.8451 17.4809 18.3651 18.94 18.9699 20.1304Z" fill="#EDF0F4"/>
<path id="Cardano (ADA)_16" d="M37.9674 17.0297C38.4569 16.7801 38.6489 16.1753 38.3993 15.6858C38.1498 15.1962 37.545 15.0042 37.0554 15.2538C36.5658 15.5034 36.3738 16.0985 36.6138 16.5881C36.873 17.0777 37.4682 17.2793 37.9674 17.0297Z" fill="#EDF0F4"/>
<path id="Cardano (ADA)_17" d="M31.824 17.7977C31.1232 18.1529 30.8353 19.0073 31.1904 19.7081C31.5456 20.4088 32.4 20.6968 33.1008 20.3416C33.8015 19.9865 34.0895 19.1321 33.7343 18.4313C33.3792 17.7305 32.5248 17.4522 31.824 17.7977Z" fill="#EDF0F4"/>
<path id="Cardano (ADA)_18" d="M23.9041 9.35006C24.4512 9.37886 24.9216 8.95648 24.96 8.4093C24.9984 7.86213 24.5664 7.39175 24.0193 7.35335C23.4721 7.32455 23.0017 7.73733 22.9633 8.28451C22.9345 8.84128 23.3569 9.31166 23.9041 9.35006Z" fill="#EDF0F4"/>
<path id="Cardano (ADA)_19" d="M23.8945 15.6186C24.6817 15.6666 25.3537 15.0618 25.3921 14.2746C25.4401 13.4875 24.8353 12.8155 24.0481 12.7771C23.261 12.7291 22.589 13.3339 22.5506 14.121C22.5122 14.9082 23.1074 15.5802 23.8945 15.6186Z" fill="#EDF0F4"/>
<path id="Cardano (ADA)_20" d="M16.1764 30.1716C16.8772 29.8164 17.1652 28.962 16.81 28.2613C16.4548 27.5605 15.6005 27.2725 14.8997 27.6277C14.1989 27.9829 13.9109 28.8373 14.2661 29.538C14.6213 30.2388 15.4757 30.5268 16.1764 30.1716Z" fill="#EDF0F4"/>
<path id="Cardano (ADA)_21" d="M24.8162 17.7018C24.0866 18.8249 24.3938 20.3225 25.5169 21.052C26.6401 21.7816 28.1376 21.4744 28.8672 20.3513C29.5967 19.2281 29.2896 17.7306 28.1664 17.001C27.7728 16.7418 27.312 16.6074 26.8417 16.6074C26.0257 16.6074 25.2673 17.0202 24.8162 17.7018Z" fill="#EDF0F4"/>
<path id="Cardano (ADA)_22" d="M29.0303 27.8388C28.4255 26.6389 26.9664 26.1589 25.776 26.7637C24.5761 27.3684 24.0961 28.8276 24.7009 30.0179C25.3056 31.2179 26.7648 31.6978 27.9551 31.0931C29.1455 30.4979 29.635 29.058 29.0399 27.858C29.0399 27.8484 29.0399 27.8484 29.0303 27.8388Z" fill="#EDF0F4"/>
<path id="Cardano (ADA)_23" d="M33.2634 27.6661C32.6011 27.2341 31.7179 27.4165 31.2955 28.0789C30.8635 28.7412 31.0459 29.6244 31.7083 30.0468C32.3707 30.4788 33.2538 30.2964 33.6762 29.634C34.1082 28.9812 33.9258 28.0981 33.2634 27.6661Z" fill="#EDF0F4"/>
<path id="Cardano (ADA)_24" d="M37.9099 24.0278C37.9483 23.3558 37.4395 22.7895 36.7676 22.7511C36.0956 22.7127 35.5292 23.2214 35.4908 23.8934C35.4524 24.5654 35.9612 25.1318 36.6332 25.1702C37.2955 25.2086 37.8715 24.6902 37.9099 24.0278Z" fill="#EDF0F4"/>
<path id="Cardano (ADA)_25" d="M41.26 23.1639C40.828 23.1351 40.4536 23.4711 40.4344 23.9031C40.4152 24.335 40.7416 24.7094 41.1736 24.7286C41.6055 24.7574 41.9703 24.4214 41.9991 23.9895C42.0183 23.5575 41.6919 23.1927 41.26 23.1639Z" fill="#EDF0F4"/>
<path id="Cardano (ADA)_26" d="M38.1017 30.9396C37.6409 30.642 37.0265 30.7668 36.7194 31.2276C36.4218 31.6883 36.5466 32.3027 37.0073 32.6099C37.4681 32.9075 38.0825 32.7827 38.3897 32.3219C38.6969 31.8611 38.5625 31.2372 38.1017 30.9396Z" fill="#EDF0F4"/>
<path id="Cardano (ADA)_27" d="M15.8498 38.2543C15.485 38.0143 15.0051 38.1199 14.7651 38.4751C14.5251 38.8399 14.6307 39.3199 14.9859 39.5599C15.3507 39.7999 15.8306 39.6943 16.0706 39.3391C16.3202 38.9839 16.2146 38.4943 15.8498 38.2543Z" fill="#EDF0F4"/>
<path id="Cardano (ADA)_28" d="M32.2847 38.1776C31.9007 38.3696 31.7471 38.8495 31.9391 39.2335C32.1311 39.6175 32.6111 39.7711 32.9951 39.5791C33.379 39.3871 33.5326 38.9167 33.3406 38.5328C33.1486 38.1392 32.6783 37.976 32.2847 38.1776C32.2943 38.1776 32.2847 38.1776 32.2847 38.1776Z" fill="#EDF0F4"/>
<path id="Cardano (ADA)_29" d="M23.1837 30.2676C23.9133 29.1445 23.6061 27.6469 22.483 26.9078C21.3598 26.1782 19.8623 26.4854 19.1231 27.6085C18.384 28.7317 18.7007 30.2292 19.8239 30.9684C20.2175 31.2276 20.6783 31.362 21.1486 31.362C21.9742 31.3716 22.7326 30.9588 23.1837 30.2676Z" fill="#EDF0F4"/>
<path id="Cardano (ADA)_30" d="M18.3363 33.9827C17.7795 33.6179 17.0211 33.7715 16.6564 34.3282C16.2916 34.885 16.4452 35.6434 17.0019 36.0082C17.5587 36.373 18.3171 36.2194 18.6819 35.6626C19.0563 35.1058 18.9027 34.3474 18.3363 33.9827Z" fill="#EDF0F4"/>
<path id="Cardano (ADA)_31" d="M23.9905 38.6192C23.4433 38.5904 22.9729 39.0128 22.9345 39.5599C22.8961 40.1071 23.3281 40.5775 23.8753 40.6159C24.4224 40.6447 24.8928 40.2319 24.9312 39.6847C24.96 39.128 24.5376 38.6576 23.9905 38.6192Z" fill="#EDF0F4"/>
<path id="Cardano (ADA)_32" d="M24.0002 32.3506C23.213 32.3026 22.5411 32.9073 22.5027 33.6945C22.4547 34.4817 23.0594 35.1537 23.8466 35.192C24.6338 35.2304 25.3058 34.6353 25.3441 33.8481C25.3921 33.0705 24.7874 32.389 24.0002 32.3506Z" fill="#EDF0F4"/>
<path id="Cardano (ADA)_33" d="M29.827 33.8866C29.2318 34.1938 28.9918 34.9233 29.299 35.5185C29.6062 36.1137 30.3357 36.3537 30.9309 36.0465C31.5261 35.7489 31.7661 35.0193 31.4685 34.4242C31.1613 33.829 30.4317 33.5794 29.827 33.8866Z" fill="#EDF0F4"/>
</g>
</g>
</svg>
