<svg width="48" height="48" viewBox="0 0 48 48" fill="none" xmlns="http://www.w3.org/2000/svg">
<g id="Compound (COMP)">
<path id="Compound (COMP)_2" d="M24 48C37.2552 48 48 37.2552 48 24C48 10.7448 37.2552 0 24 0C10.7448 0 0 10.7448 0 24C0 37.2552 10.7448 48 24 48Z" fill="#070A0E"/>
<path id="Compound (COMP)_3" fill-rule="evenodd" clip-rule="evenodd" d="M13.8648 32.0473C13.1472 31.6081 12.708 30.8281 12.708 29.9881V25.2985C12.708 24.7417 13.1616 24.2905 13.7184 24.2929C13.896 24.2929 14.0712 24.3409 14.2248 24.4297L24.8064 30.6001C25.4256 30.9601 25.8072 31.6225 25.8072 32.3401V37.1977C25.8096 37.8649 25.2696 38.4073 24.6024 38.4073C24.3792 38.4073 24.1584 38.3449 23.9688 38.2297L13.8648 32.0473ZM29.6375 23.1456C30.2567 23.5056 30.6359 24.1704 30.6383 24.8856V34.7448C30.6383 35.0352 30.4823 35.304 30.2279 35.4456L27.9119 36.7488C27.8831 36.7656 27.8519 36.7776 27.8183 36.7872V31.3128C27.8183 30.6048 27.4463 29.9472 26.8367 29.5824L17.5439 24.024V17.844C17.5439 17.2872 17.9975 16.836 18.5543 16.8384C18.7319 16.8384 18.9071 16.8864 19.0607 16.9752L29.6375 23.1456ZM34.2696 15.864C34.8912 16.224 35.2728 16.8888 35.2728 17.6064V32.0064C35.2704 32.3016 35.1072 32.5728 34.848 32.7144L32.652 33.9V23.8752C32.652 23.1672 32.28 22.512 31.6752 22.1472L22.176 16.4496V10.5888C22.176 10.4112 22.224 10.236 22.3104 10.0824C22.5912 9.60242 23.208 9.43922 23.688 9.71762L34.2696 15.864Z" fill="#00D395"/>
</g>
</svg>
