<svg width="48" height="48" viewBox="0 0 48 48" fill="none" xmlns="http://www.w3.org/2000/svg">
<g id="Crypto.com Coin (CRO)">
<circle id="Crypto.com Coin (CRO)_2" cx="24" cy="24" r="24" fill="#EDF0F4"/>
<g id="Crypto.com Coin (CRO)_3">
<path id="Crypto.com Coin (CRO)_4" fill-rule="evenodd" clip-rule="evenodd" d="M9.2002 15.3385L24.0002 6.80005L38.8002 15.3385V32.4154L24.0002 40.9539L9.2002 32.4154V15.3385ZM18.1573 14.1823H29.8134L31.2074 20.1117H16.793L18.1573 14.1823ZM21.1232 28.0572L21.5087 24.3513L20.2334 21.0308H27.7669L26.5212 24.3513L26.8771 28.0572H23.9705H21.1232ZM29.8432 34.2833H27.7374L25.2163 31.9708V30.7849L27.8263 28.2945V24.3514L31.2372 22.1278L35.1225 25.0629L29.8432 34.2833ZM20.3224 34.3129L22.8435 31.9708V30.7849L20.2334 28.2945V24.3514L16.793 22.1575L12.8779 25.0629L18.1869 34.3129H20.3224Z" fill="#03316C"/>
</g>
</g>
</svg>
