<svg width="48" height="48" viewBox="0 0 48 48" fill="none" xmlns="http://www.w3.org/2000/svg">
<g id="Dai (DAI)">
<path id="Dai (DAI)_2" d="M24 0C37.2561 0 48 10.7461 48 24C48 37.2561 37.2561 48 24 48C10.7461 48 0 37.255 0 24C0 10.7461 10.7461 0 24 0Z" fill="#F5AC37"/>
<path id="Dai (DAI)_3" fill-rule="evenodd" clip-rule="evenodd" d="M12.5701 37.2301V37.3197L12.5658 37.323V37.3381H22.976C24.1543 37.3543 25.3283 37.2603 26.486 37.053C27.7054 36.8143 28.8934 36.4384 30.0263 35.9287C30.5176 35.7011 30.9889 35.4262 31.4644 35.1487C31.5847 35.0785 31.7054 35.0081 31.8267 34.9383C32.3861 34.5398 32.9218 34.1078 33.4316 33.6488C34.827 32.3873 35.907 30.8137 36.582 29.0587C36.6274 28.8622 36.8196 28.7358 37.0172 28.7736H39.8523C40.078 28.7736 40.1525 28.698 40.1525 28.4431V26.6276C40.1676 26.4537 40.1676 26.2777 40.1525 26.1038C40.1525 26.0584 40.1642 26.0131 40.1758 25.9678C40.1991 25.8776 40.2223 25.7877 40.1525 25.6977H37.784C37.4978 25.6977 37.4978 25.6675 37.4978 25.4126C37.5799 24.4989 37.5799 23.582 37.4978 22.6683C37.4827 22.3983 37.5432 22.3983 37.7527 22.3983H39.8231C40.0639 22.3983 40.1536 22.3378 40.1536 22.0981V19.6378C40.1461 19.4748 40.1424 19.3922 40.0991 19.3503C40.0547 19.3073 39.9686 19.3073 39.7939 19.3073H37.109C36.8995 19.3429 36.6986 19.2015 36.6608 18.9919C36.353 18.1873 35.961 17.4173 35.489 16.6969C35.0138 15.9863 34.4781 15.3188 33.8841 14.7021C33.0946 13.9137 32.2079 13.229 31.2446 12.662C29.792 11.8185 28.2033 11.2277 26.5498 10.9221C25.7473 10.7741 24.9362 10.6845 24.1197 10.6521H12.8704C12.5701 10.6521 12.5701 10.7126 12.5701 10.9523V19.0373C12.5701 19.3224 12.5096 19.3224 12.285 19.3224H9.06007C8.82031 19.3224 8.82031 19.3667 8.82031 19.5319V22.1715C8.82031 22.4113 8.89483 22.4113 9.0752 22.4113H12.3303C12.5701 22.4113 12.5701 22.4555 12.5701 22.6359V25.4558C12.5701 25.7107 12.4945 25.7107 12.3001 25.7107H8.82031V28.5608C8.82031 28.8006 8.89483 28.8006 9.0752 28.8006H12.3303C12.5701 28.8006 12.5701 28.8298 12.5701 29.0252V32.5504V33.7352V37.2301ZM33.286 19.0654C33.3119 19.1323 33.3119 19.2069 33.286 19.2749H33.3583C33.3281 19.3645 33.178 19.3948 33.178 19.3948H15.8686C15.5835 19.3948 15.5835 19.3343 15.5835 19.1097V13.7852C15.5835 13.5897 15.6137 13.5001 15.8384 13.5001H23.8931C24.7506 13.4925 25.606 13.5822 26.443 13.7701C28.1019 14.1632 29.6452 14.9451 30.9434 16.05C31.2026 16.2433 31.4337 16.4712 31.6335 16.725C32.0569 17.1451 32.4284 17.6128 32.7438 18.1204C32.9533 18.4174 33.1337 18.7338 33.286 19.0654ZM34.0041 25.6945H24.8844H15.9441C15.7617 25.6945 15.6718 25.6945 15.6275 25.6495C15.5845 25.6058 15.5845 25.5197 15.5845 25.3499V22.6801C15.5845 22.4695 15.645 22.395 15.8696 22.395H34.0192C34.2147 22.395 34.3043 22.4695 34.3043 22.6499C34.3788 23.5787 34.3788 24.5118 34.3043 25.4396C34.2903 25.6945 34.1985 25.6945 34.0041 25.6945ZM33.2858 28.8146C33.031 28.7866 32.7739 28.7866 32.519 28.8146H15.8847C15.6601 28.8146 15.5845 28.8146 15.5845 29.1149V34.3205C15.5845 34.5603 15.5845 34.6208 15.8847 34.6208H23.5647C23.9319 34.6489 24.2991 34.6229 24.6587 34.5463C25.7733 34.4663 26.8695 34.2244 27.915 33.8259C28.2951 33.6941 28.6623 33.5224 29.009 33.3161H29.1138C30.9141 32.3798 32.3765 30.9088 33.2988 29.103C33.2988 29.103 33.4036 28.8762 33.2858 28.8168V28.8146Z" fill="#FEFEFD"/>
</g>
</svg>
