<svg width="48" height="48" viewBox="0 0 48 48" fill="none" xmlns="http://www.w3.org/2000/svg">
<g id="EOS (EOS)">
<path id="EOS (EOS)_2" fill-rule="evenodd" clip-rule="evenodd" d="M24 48C10.8 48 0 37.2002 0 23.8805C0.12 10.6808 10.8 -0.119007 24.12 0.000990408C37.32 0.120988 48 10.8008 48 24.2405C47.88 37.3202 37.2 48 24 48Z" fill="black"/>
<g id="EOS (EOS)_3">
<path id="EOS (EOS)_4" fill-rule="evenodd" clip-rule="evenodd" d="M16.3362 18.304L23.8242 8L31.2482 18.24L34.4482 33.536L23.8242 40L13.2002 33.536L16.3362 18.304ZM17.2962 21.248L14.9282 32.832L22.6722 37.568L17.2962 21.248ZM18.0642 18.624L23.8242 10.688L29.5842 18.624L23.8242 36.032L18.0642 18.624ZM30.2881 21.248L24.9121 37.568L32.6561 32.832L30.2881 21.248Z" fill="white"/>
</g>
</g>
</svg>
