<svg width="48" height="48" viewBox="0 0 48 48" fill="none" xmlns="http://www.w3.org/2000/svg">
<g id="Filecoin (FIL)">
<path id="Filecoin (FIL)_2" fill-rule="evenodd" clip-rule="evenodd" d="M24 48C10.8 48 0 37.2002 0 23.8805C0.12 10.6808 10.8 -0.119007 24.12 0.000990408C37.32 0.120988 48 10.8008 48 24.2405C47.88 37.3202 37.2 48 24 48Z" fill="#0090FF"/>
<path id="Filecoin (FIL)_3" fill-rule="evenodd" clip-rule="evenodd" d="M26.082 21.1858L25.3681 25.0308L32.1496 25.9921L31.6737 27.7944L25.0112 26.8332C24.5353 28.3952 24.2973 30.0774 23.7025 31.5193C23.1076 33.2014 22.5127 34.8836 21.7989 36.4457C20.8471 38.4883 19.1814 39.9302 16.9209 40.2906C15.6122 40.5309 14.1845 40.4108 13.1137 39.5697C12.7568 39.3294 12.3999 38.8488 12.3999 38.4883C12.3999 38.0077 12.6379 37.4069 12.9948 37.1666C13.2327 37.0464 13.8276 37.1666 14.1845 37.2867C14.5414 37.6472 14.8984 38.1278 15.1363 38.6085C15.8502 39.5697 16.802 39.6899 17.7537 38.9689C18.8245 38.0077 19.4194 36.686 19.7763 35.3642C20.4902 32.4805 21.204 29.7169 21.7989 26.8332V26.3526L15.4932 25.3913L15.7312 23.589L22.2748 24.5502L23.1076 20.8254L16.3261 19.744L16.564 17.8215L23.5835 18.7827C23.8214 18.0618 23.9404 17.461 24.1784 16.8602C24.7732 14.6974 25.3681 12.5346 26.7958 10.6121C28.2235 8.68963 29.8891 7.48807 32.3876 7.60823C33.4584 7.60823 34.5291 7.96869 35.243 8.80978C35.362 8.92994 35.5999 9.17025 35.5999 9.41056C35.5999 9.89119 35.5999 10.492 35.243 10.8524C34.7671 11.2129 34.1722 11.0927 33.6963 10.6121C33.3394 10.2517 33.1014 9.89119 32.7445 9.53072C32.0307 8.56947 30.9599 8.44932 30.1271 9.29041C29.5322 9.89119 28.9373 10.7323 28.5804 11.5734C27.7476 14.0966 27.1527 16.7401 26.3199 19.3835L32.8635 20.3448L32.3876 22.1471L26.082 21.1858Z" fill="white"/>
</g>
</svg>
