<svg width="48" height="48" viewBox="0 0 48 48" fill="none" xmlns="http://www.w3.org/2000/svg">
<g id="Internet Computer (ICP)">
<circle id="Internet Computer (ICP)_2" cx="24" cy="24" r="24" fill="#EDF0F4"/>
<g id="Internet Computer (ICP)_3">
<path id="Internet Computer (ICP)_4" d="M32.3258 16C30.5072 16 28.5218 16.9677 26.4196 18.8863C25.4186 19.7873 24.551 20.755 23.917 21.5391C23.917 21.5391 24.9347 22.6903 26.0526 23.9249C26.6532 23.1741 27.5374 22.1564 28.5385 21.2388C30.4071 19.537 31.625 19.1867 32.3258 19.1867C34.9451 19.1867 37.0807 21.3389 37.0807 24.0083C37.0807 26.6444 34.9618 28.7967 32.3258 28.83C32.209 28.83 32.0421 28.8133 31.8753 28.78C32.6427 29.1303 33.4603 29.3806 34.2444 29.3806C39.0494 29.3806 39.9837 26.1272 40.0505 25.8936C40.1839 25.293 40.2674 24.6757 40.2674 24.025C40.234 19.5871 36.697 16 32.3258 16Z" fill="url(#paint0_linear_562_1137)"/>
<path id="Internet Computer (ICP)_5" d="M15.5417 32C17.3603 32 19.3457 31.0323 21.4479 29.1137C22.4489 28.2127 23.3165 27.245 23.9505 26.4609C23.9505 26.4609 22.9327 25.3097 21.8149 24.0751C21.2143 24.8259 20.33 25.8436 19.329 26.7612C17.4604 28.463 16.2424 28.8133 15.5417 28.8133C12.9223 28.8133 10.7868 26.6611 10.7868 23.9916C10.7868 21.3556 12.9056 19.2033 15.5417 19.17C15.6585 19.17 15.8253 19.1866 15.9922 19.22C15.2247 18.8696 14.4072 18.6194 13.623 18.6194C8.81803 18.6194 7.88373 21.8728 7.81699 22.1064C7.68352 22.707 7.6001 23.3243 7.6001 23.975C7.61678 28.3962 11.1705 32 15.5417 32Z" fill="url(#paint1_linear_562_1137)"/>
<path id="Internet Computer (ICP)_6" fill-rule="evenodd" clip-rule="evenodd" d="M13.6399 18.7028C16.1092 18.7696 18.6785 20.805 19.1957 21.3055C20.4257 22.4899 21.5865 23.8125 21.7978 24.0533C21.8187 24.077 21.8303 24.0903 21.8318 24.0918C22.9496 25.3264 23.9674 26.4776 23.9674 26.4776L23.984 26.4609C26.2698 29.0803 29.3229 32 32.3594 32C36.08 31.9833 39.2166 29.3639 40.0508 25.8436C39.9674 26.0938 38.7327 29.3806 34.228 29.2638C31.7755 29.1971 29.2062 27.1783 28.6889 26.6778C27.3375 25.3764 26.0695 23.9082 26.0695 23.9082C24.9517 22.6736 23.934 21.5224 23.934 21.5224C23.9173 21.5224 23.9173 21.5391 23.9173 21.5391C21.6483 18.903 18.5951 16 15.5586 16C11.8381 16.0167 8.70146 18.6194 7.86726 22.123C7.96736 21.7059 9.25203 18.6027 13.6399 18.7028ZM7.85059 22.1398V22.1064C7.86727 22.1231 7.86727 22.1398 7.85059 22.1398Z" fill="#29ABE2"/>
</g>
</g>
<defs>
<linearGradient id="paint0_linear_562_1137" x1="21.2444" y1="21.668" x2="29.6684" y2="34.6268" gradientUnits="userSpaceOnUse">
<stop offset="0.21" stop-color="#F15A24"/>
<stop offset="0.6841" stop-color="#FBB03B"/>
</linearGradient>
<linearGradient id="paint1_linear_562_1137" x1="26.6215" y1="26.3278" x2="18.1975" y2="13.3691" gradientUnits="userSpaceOnUse">
<stop offset="0.21" stop-color="#ED1E79"/>
<stop offset="0.8929" stop-color="#522785"/>
</linearGradient>
</defs>
</svg>
