<svg width="48" height="48" viewBox="0 0 48 48" fill="none" xmlns="http://www.w3.org/2000/svg">
<g id="IOTA (MIOTA)">
<circle id="IOTA (MIOTA)_2" cx="24" cy="24" r="24" fill="black"/>
<g id="IOTA (MIOTA)_3">
<path id="IOTA (MIOTA)_4" fill-rule="evenodd" clip-rule="evenodd" d="M32.6432 10.1962C32.6432 11.1871 31.8494 11.9937 30.8726 11.9937C29.8958 11.9937 29.102 11.1923 29.102 10.2013C29.102 9.21043 29.8958 8.40515 30.8726 8.40002C31.8494 8.40002 32.6432 9.20531 32.6432 10.1962ZM32.8941 15.142C32.9004 15.9763 32.2292 16.6577 31.3949 16.6641C30.5653 16.6641 29.8958 15.9844 29.8958 15.142C29.8958 14.2996 30.5666 13.6198 31.3949 13.6198C32.2233 13.6198 32.8941 14.3047 32.8941 15.142ZM35.511 17.2594C36.3354 17.2594 37.0063 16.5796 37.0063 15.741C37.0063 14.9025 36.3354 14.2227 35.511 14.2227C34.6865 14.2227 34.0156 14.9025 34.0156 15.741C34.0156 16.5796 34.6878 17.2594 35.511 17.2594ZM36.2957 19.9582C36.2957 20.6738 35.7235 21.2551 35.0168 21.2551C34.3101 21.2551 33.7378 20.6738 33.7378 19.9582C33.7378 19.2425 34.3101 18.6613 35.0168 18.6613C35.7235 18.6613 36.2957 19.2425 36.2957 19.9582ZM38.3121 22.5507C39.024 22.5507 39.6001 21.9656 39.6001 21.2448C39.6001 20.524 39.024 19.939 38.3121 19.939C37.9682 19.9413 37.6392 20.0802 37.3977 20.3251C37.1562 20.57 37.0218 20.9009 37.0242 21.2448C37.0242 21.9656 37.6016 22.5507 38.3121 22.5507ZM31.8054 20.3232C31.5595 20.5719 31.2249 20.7128 30.8752 20.7148C30.1506 20.7148 29.5642 20.1157 29.5642 19.3859C29.5642 18.651 30.1493 18.057 30.8752 18.057C31.6011 18.057 32.1862 18.6523 32.1862 19.3859V19.3885C32.1882 19.7382 32.0512 20.0744 31.8054 20.3232ZM29.6871 23.8937C30.2952 23.8937 30.7855 23.3944 30.7855 22.7811C30.7905 22.1717 30.3005 21.6736 29.6911 21.6686H29.6871C29.079 21.6686 28.5886 22.1679 28.5886 22.7811C28.5886 23.3944 29.079 23.8937 29.6871 23.8937ZM34.5831 24.129C34.3788 24.3362 34.1005 24.4537 33.8096 24.4557H33.7991C33.5091 24.4519 33.2326 24.3332 33.0302 24.1255C32.8279 23.9179 32.7163 23.6383 32.7201 23.3484C32.7201 22.7364 33.2066 22.241 33.8096 22.241C34.4126 22.241 34.8991 22.7364 34.8991 23.3484V23.3511C34.9011 23.642 34.7874 23.9219 34.5831 24.129ZM37.0958 25.7462C37.704 25.7462 38.1943 25.2469 38.1943 24.6298C38.1943 24.0127 37.704 23.5134 37.0958 23.5134C36.4877 23.5134 35.9974 24.0127 35.9974 24.6298C35.991 25.24 36.4804 25.7398 37.0906 25.7462H37.0958ZM36.4008 27.2172C36.4008 27.7345 35.986 28.1582 35.4726 28.1582C34.9592 28.1582 34.5444 27.7345 34.5444 27.2172C34.5444 26.7 34.9592 26.2762 35.4726 26.2762C35.986 26.2762 36.4008 26.7 36.4008 27.2172ZM32.1707 26.8881C32.693 26.8881 33.1206 26.4554 33.1206 25.9241C33.1206 25.3928 32.6968 24.9601 32.1707 24.9601C31.6445 24.9601 31.2207 25.3928 31.2207 25.9241C31.2207 26.4554 31.6483 26.8881 32.1707 26.8881ZM28.9937 25.3449C28.9934 25.8663 28.5749 26.2911 28.0535 26.2993H28.0522C27.5308 26.2904 27.1129 25.8651 27.1133 25.3436C27.1136 24.8222 27.5321 24.3973 28.0535 24.3892H28.0548C28.5761 24.398 28.9941 24.8234 28.9937 25.3449ZM30.3426 28.5653C30.7971 28.5653 31.162 28.1915 31.162 27.737C31.1662 27.2838 30.8023 26.913 30.3491 26.9087H30.3426C29.8881 26.9087 29.5232 27.2825 29.5232 27.737C29.5183 28.1895 29.881 28.5604 30.3335 28.5653H30.3426ZM34.4713 29.0198C34.4713 29.4832 34.0974 29.8571 33.643 29.8571C33.1805 29.8571 32.8057 29.4822 32.8057 29.0198C32.8057 28.5574 33.1805 28.1825 33.643 28.1825C34.1026 28.1825 34.4713 28.5563 34.4713 29.0198ZM31.784 30.8262C32.1438 30.8262 32.437 30.5292 32.437 30.1643C32.4391 29.8014 32.147 29.5053 31.784 29.5024C31.4243 29.5024 31.1311 29.7995 31.1311 30.1643C31.1304 30.5267 31.4217 30.822 31.784 30.8262ZM30.4413 31.1695C30.3306 31.2815 30.1799 31.345 30.0224 31.346L30.0108 31.3459C29.6856 31.3402 29.4266 31.072 29.4322 30.7469V30.7453C29.4312 30.5878 29.4929 30.4364 29.6035 30.3243C29.7142 30.2122 29.8649 30.1487 30.0224 30.1477C30.3463 30.1477 30.6126 30.414 30.6126 30.7469V30.7484C30.6136 30.9059 30.552 31.0574 30.4413 31.1695ZM28.4797 29.6229C28.8676 29.6229 29.1826 29.3028 29.1826 28.911C29.1826 28.5193 28.8676 28.1992 28.4797 28.1992C28.0918 28.1992 27.7769 28.5193 27.7769 28.911C27.7761 29.301 28.0898 29.6187 28.4797 29.6229ZM27.0357 27.1622C27.0357 27.6218 26.667 27.9905 26.2163 27.9905C25.7621 27.9863 25.3963 27.6165 25.397 27.1622C25.397 26.7026 25.7657 26.3339 26.2163 26.3339C26.6708 26.3339 27.0357 26.7026 27.0357 27.1622ZM32.9286 38.3683C33.9016 38.3683 34.6903 37.5669 34.6903 36.5798C34.6903 35.5927 33.9016 34.7913 32.9286 34.7913C31.9556 34.7913 31.167 35.5927 31.167 36.5798C31.167 37.5669 31.9556 38.3683 32.9286 38.3683ZM29.9227 34.6145C29.9227 35.4377 29.2647 36.1047 28.4543 36.1047C27.6426 36.1047 26.9858 35.4377 26.9858 34.6145C26.9858 33.7913 27.6439 33.1243 28.4543 33.1243C29.2647 33.1243 29.9227 33.7913 29.9227 34.6145ZM25.8976 39.3809C26.7169 39.3809 27.3788 38.7101 27.3788 37.8766C27.3788 37.0483 26.7169 36.3723 25.8976 36.3723C25.0782 36.3723 24.4163 37.0432 24.4163 37.8766C24.4099 38.701 25.073 39.3745 25.8974 39.3809H25.8976ZM26.0398 32.9595C25.799 33.2036 25.4711 33.3421 25.1281 33.3445C24.4214 33.3445 23.8453 32.7594 23.844 32.0425C23.8416 31.6996 23.9756 31.3697 24.2164 31.1255C24.4572 30.8814 24.7852 30.7428 25.1281 30.7405C25.4711 30.7428 25.799 30.8814 26.0398 31.1255C26.2807 31.3697 26.4146 31.6996 26.4122 32.0425C26.4146 32.3854 26.2807 32.7153 26.0398 32.9595ZM22.5779 36.6656C23.2846 36.6656 23.8568 36.0843 23.8568 35.3687C23.8568 34.653 23.2846 34.0718 22.5779 34.0718C21.8712 34.0718 21.2989 34.653 21.2989 35.3687C21.2919 36.0778 21.8609 36.6584 22.5701 36.6656H22.5779ZM21.1042 37.6257C21.1042 38.3375 20.5358 38.9188 19.8291 38.9188C19.1262 38.9188 18.554 38.3375 18.554 37.6257C18.554 36.9139 19.1224 36.3326 19.8291 36.3326C20.532 36.3326 21.1042 36.91 21.1042 37.6257ZM17.5412 35.9857C18.1461 35.9802 18.633 35.4871 18.6307 34.8821C18.6307 34.274 18.1442 33.7786 17.5412 33.7786C16.9383 33.7877 16.4543 34.2791 16.4543 34.8821C16.4543 35.4852 16.9383 35.9765 17.5412 35.9857ZM21.3847 32.6186C21.3883 33.2241 20.9007 33.7179 20.2952 33.7222H20.2914C19.6884 33.712 19.2053 33.2198 19.2063 32.6167C19.2073 32.0137 19.6922 31.5231 20.2952 31.515C20.8982 31.515 21.3847 32.0066 21.3847 32.6186ZM22.8647 30.4025C23.1556 30.4005 23.4339 30.283 23.6382 30.0758C23.8425 29.8687 23.9562 29.5888 23.9542 29.2979V29.2952C23.9542 28.6832 23.4677 28.1877 22.8647 28.1877C22.5737 28.1897 22.2955 28.3072 22.0911 28.5144C21.8868 28.7216 21.7732 29.0014 21.7752 29.2923V29.295C21.7752 29.907 22.2617 30.4025 22.8647 30.4025ZM19.8803 29.9007C19.8803 30.432 19.4565 30.8596 18.9341 30.8596C18.4118 30.8596 17.988 30.432 17.988 29.9007C17.988 29.3694 18.4118 28.9418 18.9341 28.9418C19.4565 28.9418 19.8803 29.3694 19.8803 29.9007ZM16.1945 33.1141C16.4444 33.1128 16.6835 33.0122 16.8593 32.8345C17.035 32.6569 17.133 32.4167 17.1316 32.1667V32.1642C17.1366 31.6445 16.7194 31.2192 16.1997 31.2142H16.1945C15.9446 31.2156 15.7055 31.3162 15.5297 31.4938C15.354 31.6715 15.256 31.9117 15.2573 32.1616V32.1642C15.2556 32.4144 15.3534 32.6551 15.5292 32.8333C15.7049 33.0114 15.9442 33.1124 16.1945 33.1141ZM16.375 29.6523C16.3764 30.1019 16.0142 30.4681 15.5646 30.4716C15.119 30.4716 14.7542 30.1067 14.7542 29.6523C14.7542 29.2016 15.119 28.8329 15.5646 28.8329C16.0101 28.8329 16.375 29.1978 16.375 29.6523ZM15.5416 28.1531C15.7273 28.1515 15.9047 28.0761 16.0349 27.9435C16.165 27.811 16.2372 27.6322 16.2355 27.4464C16.2355 27.0585 15.9244 26.7397 15.5416 26.7397C15.1588 26.7397 14.8477 27.0547 14.8477 27.4464C14.8477 27.8382 15.1588 28.1531 15.5416 28.1531ZM16.5132 25.6259C16.5132 25.9549 16.252 26.2251 15.923 26.2251C15.5939 26.2251 15.3328 25.9549 15.3328 25.6259C15.3328 25.2969 15.5939 25.0267 15.923 25.0267C16.2469 25.0267 16.5132 25.2969 16.5132 25.6259ZM18.2851 25.9024C18.6731 25.9024 18.988 25.5823 18.988 25.1906C18.988 24.7988 18.6731 24.4788 18.2851 24.4788C17.8972 24.4788 17.5823 24.7988 17.5823 25.1906C17.5809 25.5808 17.8949 25.8989 18.2851 25.9024ZM21.6971 24.0639C21.6971 24.5184 21.3284 24.8922 20.8777 24.8922H20.8739C20.6559 24.8906 20.4475 24.8023 20.2946 24.647C20.1416 24.4916 20.0567 24.2819 20.0584 24.0639C20.0584 23.6094 20.4271 23.2356 20.8777 23.2356H20.8843C21.3375 23.2399 21.7014 23.6107 21.6971 24.0639ZM21.4947 27.522C22.008 27.5209 22.4235 27.1042 22.423 26.5908C22.4224 26.0774 22.0061 25.6615 21.4927 25.6615C20.9794 25.6615 20.563 26.0774 20.5625 26.5908C20.562 27.1042 20.9774 27.5209 21.4908 27.522H21.4947ZM19.1287 27.3977C19.1287 27.8535 18.7689 28.2222 18.3183 28.2222V28.2221H18.3091C18.0935 28.219 17.888 28.1304 17.7378 27.9758C17.5875 27.8212 17.5048 27.6133 17.5079 27.3977V27.3938C17.5065 27.1775 17.5912 26.9695 17.7431 26.8156C17.8951 26.6618 18.102 26.5746 18.3183 26.5732C18.7638 26.5732 19.1287 26.942 19.1287 27.3977ZM9.35661 26.9995C10.3245 26.9995 11.1131 26.2019 11.1131 25.22C11.1131 24.238 10.3245 23.4404 9.35661 23.4404C8.38874 23.4404 7.6001 24.2393 7.6001 25.2213C7.6001 26.2032 8.38874 26.9995 9.35661 26.9995ZM14.8477 22.2947C14.8477 23.1371 14.1769 23.822 13.3434 23.822C12.5151 23.822 11.8391 23.1422 11.8391 22.2947V22.292C11.8335 21.4556 12.507 20.773 13.3434 20.7673C14.1718 20.7673 14.8477 21.4523 14.8477 22.2947ZM11.7879 19.9044C12.6162 19.9044 13.2832 19.2246 13.2832 18.3861C13.2832 17.5475 12.6124 16.8677 11.7879 16.8677C11.3886 16.8703 11.0067 17.0315 10.7263 17.3158C10.4459 17.6001 10.2898 17.9841 10.2926 18.3834V18.3861C10.2841 19.2161 10.9501 19.8959 11.7801 19.9044H11.7879ZM16.9154 16.746C16.9154 17.4668 16.338 18.048 15.6313 18.048C14.9246 18.048 14.3472 17.4668 14.3472 16.746C14.3472 16.0252 14.9233 15.444 15.6313 15.444C16.3392 15.444 16.9154 16.0252 16.9154 16.746ZM17.202 21.9567C17.9138 21.9567 18.4899 21.3716 18.4899 20.6508C18.4899 19.93 17.9138 19.345 17.202 19.345C16.4902 19.345 15.9141 19.93 15.9141 20.6508C15.9141 21.3716 16.4902 21.9567 17.202 21.9567ZM21.7943 20.0325C21.7991 20.642 21.3091 21.14 20.6997 21.145L20.6919 21.1451C20.0846 21.1379 19.598 20.6398 19.6051 20.0325V19.999C19.611 19.6079 19.8252 19.2498 20.1669 19.0594C20.5086 18.8691 20.9258 18.8755 21.2615 19.0762C21.5972 19.2769 21.8003 19.6415 21.7943 20.0325ZM23.7212 21.1553C24.2435 21.1553 24.6673 20.7277 24.6673 20.2002C24.6673 19.6727 24.2435 19.2451 23.7212 19.2451C23.1937 19.2451 22.7661 19.6727 22.7661 20.2002C22.7661 20.7277 23.1937 21.1553 23.7212 21.1553ZM27.0151 20.9235C27.0151 21.3703 26.6541 21.7301 26.2175 21.7301C25.7797 21.7301 25.425 21.3652 25.4199 20.9235C25.4184 20.4809 25.775 20.1204 26.2175 20.1169C26.6592 20.1169 27.0151 20.4767 27.0151 20.9235ZM26.5428 18.788C26.9284 18.7853 27.2389 18.4708 27.2367 18.0852C27.2367 17.6973 26.9256 17.3823 26.5428 17.3823C26.16 17.3823 25.8489 17.6973 25.8489 18.0852C25.8467 18.4708 26.1572 18.7853 26.5428 18.788ZM25.4201 17.0246C25.4206 17.4659 25.0637 17.8242 24.6224 17.8252H24.6185C24.1772 17.8242 23.8203 17.4659 23.8208 17.0246C23.8213 16.5834 24.1792 16.226 24.6204 16.226C25.0617 16.226 25.4195 16.5834 25.4201 17.0246ZM22.1554 17.2415C22.6763 17.2372 23.0954 16.8123 23.0926 16.2915C23.0926 15.764 22.6739 15.3416 22.1554 15.3416C21.6369 15.3416 21.2183 15.7692 21.2183 16.2915C21.2162 16.5414 21.3136 16.7819 21.4888 16.96C21.6641 17.1382 21.903 17.2394 22.1529 17.2415H22.1554ZM20.2375 16.1328C20.2375 16.746 19.7471 17.2453 19.139 17.2453C18.5292 17.2397 18.0384 16.7426 18.0405 16.1328C18.0405 15.5196 18.5309 15.0203 19.139 15.0203C19.7471 15.0203 20.2375 15.5196 20.2375 16.1328ZM15.0769 14.4633C15.7656 14.4633 16.32 13.9 16.32 13.2022C16.32 12.5045 15.7618 11.9412 15.0769 11.9412C14.3881 11.9412 13.8337 12.5045 13.8337 13.2022C13.8337 13.9 14.3919 14.4633 15.0769 14.4633ZM19.6715 12.5864C19.6715 13.1997 19.1812 13.699 18.5731 13.699C17.9649 13.699 17.4746 13.1997 17.4746 12.5864C17.4746 11.9732 17.9649 11.4739 18.5731 11.4739C19.1812 11.4739 19.6715 11.9732 19.6715 12.5864ZM21.5933 13.7131C22.1157 13.7131 22.5394 13.2855 22.5394 12.7542C22.5394 12.2229 22.1157 11.7953 21.5933 11.7953C21.3411 11.7966 21.0996 11.8982 20.9222 12.0775C20.7448 12.2569 20.6459 12.4994 20.6472 12.7516V12.7542C20.645 13.2797 21.0678 13.7083 21.5933 13.7131ZM24.8695 13.4775C24.8695 13.9243 24.5136 14.284 24.0719 14.284C23.6265 14.284 23.2654 13.9229 23.2654 13.4775C23.2654 13.032 23.6265 12.6709 24.0719 12.6709C24.5136 12.6709 24.8695 13.0307 24.8695 13.4775ZM25.9755 15.2724C26.371 15.2696 26.6894 14.9471 26.6873 14.5516C26.6873 14.1509 26.3673 13.8308 25.9755 13.8308C25.5837 13.8308 25.2637 14.1547 25.2637 14.5516C25.2637 14.9485 25.5837 15.2724 25.9755 15.2724ZM27.7876 16.2315C27.6778 16.3427 27.5284 16.4057 27.3723 16.4067L27.3725 16.4066H27.3633C27.2081 16.4043 27.0602 16.3404 26.9522 16.229C26.8441 16.1176 26.7848 15.9678 26.7872 15.8127V15.8114C26.7862 15.6552 26.8472 15.505 26.9569 15.3938C27.0667 15.2827 27.2161 15.2196 27.3723 15.2186H27.3735C27.5297 15.22 27.679 15.2833 27.7885 15.3947C27.898 15.5061 27.9587 15.6565 27.9573 15.8127V15.8139C27.9584 15.9701 27.8973 16.1203 27.7876 16.2315Z" fill="white"/>
</g>
</g>
</svg>
