<svg width="48" height="48" viewBox="0 0 48 48" fill="none" xmlns="http://www.w3.org/2000/svg">
<g id="KuCoin Token (KCS)">
<circle id="KuCoin Token (KCS)_2" cx="24" cy="24" r="24" fill="#0093DD"/>
<path id="KuCoin Token (KCS)_3" fill-rule="evenodd" clip-rule="evenodd" d="M20.426 24L28.2017 31.9647L33.1363 27.0055C34.0334 26.1039 35.3792 26.1039 36.1269 27.0055C37.0241 27.9072 37.0241 29.41 36.1269 30.3116L29.697 36.9238C28.7998 37.8254 27.454 37.8254 26.5568 36.9238L17.2858 27.3061V33.0166C17.2858 34.2188 16.2391 35.2707 15.0428 35.2707C13.8465 35.2707 12.7998 34.2188 12.7998 33.0166V14.9834C12.7998 13.7812 13.8465 12.7293 15.0428 12.7293C16.2391 12.7293 17.2858 13.7812 17.2858 14.9834V20.6939L26.5568 11.0763C27.454 10.1746 28.7998 10.1746 29.697 11.0763L36.1269 17.6884C37.0241 18.5901 37.0241 20.0928 36.1269 20.9945C35.2297 21.8962 33.8839 21.8962 33.1363 20.9945L28.2017 15.8851L20.426 24ZM28.2015 21.7458C29.3977 21.7458 30.4445 22.7978 30.4445 24C30.4445 25.2022 29.3977 26.2541 28.2015 26.2541C27.0052 26.2541 25.9585 25.2022 25.9585 24C25.9585 22.7978 27.0052 21.7458 28.2015 21.7458Z" fill="white"/>
</g>
</svg>
