<svg width="48" height="48" viewBox="0 0 48 48" fill="none" xmlns="http://www.w3.org/2000/svg">
<g id="Kusama (KSM)">
<circle id="Kusama (KSM)_2" cx="24" cy="24" r="24" fill="black"/>
<g id="Kusama (KSM)_3">
<path id="Kusama (KSM)_4" d="M37.7351 15.6299C37.2664 15.2603 36.7075 14.7555 35.6889 14.6293C34.7334 14.5031 33.7599 15.1431 33.1019 15.5668C32.4438 15.9905 31.1999 17.2344 30.6861 17.613C30.1723 17.9916 28.8562 18.3431 26.7379 19.6141C24.6196 20.8851 16.3087 26.2214 16.3087 26.2214L18.472 26.2485L8.82698 31.2152H9.79149L8.40332 32.2699C8.40332 32.2699 9.62923 32.5944 10.6568 31.9454V32.2428C10.6568 32.2428 22.1408 27.7178 24.3582 28.8896L23.0061 29.2862C23.1233 29.2862 25.3047 29.4305 25.3047 29.4305C25.4119 30.345 25.9207 31.1643 26.6929 31.6659C28.0089 32.5313 28.036 33.009 28.036 33.009C28.036 33.009 27.3509 33.2885 27.3509 33.64C27.3509 33.64 28.3605 33.3335 29.2979 33.3606C29.8929 33.3832 30.483 33.477 31.0557 33.64C31.0557 33.64 30.9836 33.2614 30.0731 33.009C29.1627 32.7566 28.2613 31.7651 27.8196 31.2243C27.2692 30.5239 27.1288 29.5852 27.4501 28.7544C27.7655 27.9341 28.8653 27.4834 31.1368 26.3116C33.814 24.9234 34.4269 23.8958 34.8055 23.0936C35.1841 22.2913 35.743 20.6958 36.0585 19.9476C36.4551 18.9831 36.9419 18.4693 37.3475 18.1629C37.7531 17.8564 39.5559 17.1803 39.5559 17.1803C39.5559 17.1803 38.1768 15.9815 37.7351 15.6299Z" fill="white"/>
</g>
</g>
</svg>
