<svg width="48" height="48" viewBox="0 0 48 48" fill="none" xmlns="http://www.w3.org/2000/svg">
<g id="Litecoin (LTC)">
<circle id="Litecoin (LTC)_2" cx="24.1998" cy="23.8" r="21.4" fill="white"/>
<path id="Litecoin (LTC)_3" fill-rule="evenodd" clip-rule="evenodd" d="M0 24C0 10.7452 10.7451 0 23.9999 0H24.1394C30.486 0.0184676 36.5654 2.55741 41.0402 7.05829C45.5149 11.5592 48.0183 17.6533 47.9998 24C47.9998 37.2548 37.2547 48 23.9999 48C10.7451 48 0 37.2548 0 24ZM21.9081 33.2397L24.4069 24.8135L28.3003 23.7094L29.1139 20.9201L25.2785 22.0823L29.3463 8.25179V8.03097C29.3403 7.85215 29.2634 7.68308 29.1326 7.561C29.0018 7.43892 28.8278 7.37385 28.649 7.38012H23.4771C23.0742 7.3677 22.7147 7.63136 22.6054 8.01935L17.7822 24.4068L13.9469 25.569L13.0752 28.2421L16.9105 27.0799L13.482 38.7603H33.9371C34.3413 38.777 34.7032 38.5116 34.8088 38.121L35.971 34.1114V33.8905C35.9649 33.7117 35.888 33.5426 35.7572 33.4206C35.6264 33.2985 35.4525 33.2334 35.2736 33.2397H21.9081Z" fill="#345D9D"/>
</g>
</svg>
