<svg width="48" height="48" viewBox="0 0 48 48" fill="none" xmlns="http://www.w3.org/2000/svg">
<g id="Monero (XMR)">
<circle id="Monero (XMR)_2" cx="24" cy="24" r="24" fill="white"/>
<path id="Monero (XMR)_3" d="M48.0001 23.9976C48.0001 37.2507 37.2572 47.9951 24.0032 47.9951C10.7492 47.9951 0.00634766 37.2507 0.00634766 23.9976C0.00634766 10.7445 10.7495 0 24.0032 0C37.2569 0 48.0001 10.7435 48.0001 23.9976Z" fill="white"/>
<path id="Monero (XMR)_4" d="M24.0031 0C10.7539 0 -0.00805795 10.7597 0.00880886 23.9969C0.0121311 26.6452 0.43444 29.1927 1.22705 31.5757H8.40669V11.3883L24.0031 26.9846L39.5988 11.3883V31.5761H46.78C47.5737 29.1933 47.9939 26.6457 47.9986 23.9973C48.0212 10.7463 37.2538 0.00319447 24.0031 0.00319447V0Z" fill="#F26822"/>
<path id="Monero (XMR)_5" d="M20.4167 30.5701L13.6103 23.7633V36.4663H8.40651L3.49609 36.4672C7.70807 43.3775 15.3201 48 24.0034 48C32.6868 48 40.2992 43.3765 44.512 36.4662H34.3951V23.7633L27.5883 30.5701L24.0027 34.1557L20.417 30.5701H20.4167Z" fill="#4D4D4D"/>
</g>
</svg>
