<svg width="48" height="48" viewBox="0 0 48 48" fill="none" xmlns="http://www.w3.org/2000/svg">
<g id="PancakeSwap (CAKE)">
<path id="PancakeSwap (CAKE)_2" fill-rule="evenodd" clip-rule="evenodd" d="M24 48C10.8 48 0 37.2002 0 23.8805C0.12 10.6808 10.8 -0.119007 24.12 0.000990408C37.32 0.120988 48 10.8008 48 24.2405C47.88 37.3202 37.2 48 24 48Z" fill="#EDF0F4"/>
<g id="PancakeSwap (CAKE)_3">
<path id="PancakeSwap (CAKE)_4" fill-rule="evenodd" clip-rule="evenodd" d="M14.971 14.375C14.5349 12.1 16.2791 10 18.5466 10C20.5524 10 22.2094 11.6625 22.2094 13.675V18.225C22.7327 18.225 23.2559 18.1375 23.7792 18.1375C24.3024 18.1375 24.7385 18.1375 25.2617 18.225V13.675C25.2617 11.6625 26.9187 10 28.9246 10C31.192 10 32.9362 12.1 32.5874 14.375L31.6281 19.7125C35.0293 21.2 37.6456 23.825 37.6456 27.0625V29.075C37.6456 31.7875 35.9014 34.0625 33.3723 35.55C30.8432 37.125 27.5292 38 23.7792 38C20.0291 38 16.7152 37.125 14.1861 35.55C11.7442 34.0625 10 31.7875 10 29.075V27.0625C10 23.825 12.5291 21.2 15.9303 19.7125L14.971 14.375ZM30.32 20.4125L31.4537 14.1125C31.7153 12.5375 30.5816 11.05 28.9246 11.05C27.5293 11.05 26.3955 12.1875 26.3955 13.5875V19.3625C26.0467 19.275 25.6106 19.275 25.2618 19.275C24.7385 19.275 24.3025 19.1875 23.7792 19.1875C23.256 19.1875 22.7327 19.1875 22.2095 19.275C21.8606 19.275 21.4246 19.3625 21.0757 19.3625V13.675C21.0757 12.275 19.942 11.1375 18.5466 11.1375C16.9769 11.1375 15.7559 12.625 16.1048 14.2L17.2385 20.5C13.5757 21.9 11.1338 24.35 11.1338 27.15V29.1625C11.1338 33.45 16.8024 36.95 23.7792 36.95C30.756 36.95 36.4247 33.45 36.4247 29.1625V27.15C36.5119 24.2625 34.07 21.8125 30.32 20.4125Z" fill="#633001"/>
<path id="PancakeSwap (CAKE)_5" d="M36.4948 29.0507C36.4948 33.3924 30.7947 36.9367 23.7791 36.9367C16.7636 36.9367 11.0635 33.3924 11.0635 29.0507V27.0127H36.5825V29.0507H36.4948Z" fill="#FEDC90"/>
<path id="PancakeSwap (CAKE)_6" fill-rule="evenodd" clip-rule="evenodd" d="M15.9913 14.1189C15.6393 12.5474 16.8712 11.0632 18.4552 11.0632C19.8631 11.0632 21.0071 12.1982 21.0071 13.5951V19.3572C21.887 19.2699 22.767 19.1826 23.735 19.1826C24.6149 19.1826 25.4949 19.2699 26.3749 19.3572V13.5951C26.3749 12.1982 27.5188 11.0632 28.9268 11.0632C30.5107 11.0632 31.7427 12.5474 31.4787 14.1189L30.3347 20.4048C34.0306 21.8017 36.5825 24.2462 36.5825 27.04C36.5825 31.3179 30.8627 34.8101 23.823 34.8101C16.7832 34.8101 11.0635 31.3179 11.0635 27.04C11.0635 24.2462 13.5274 21.8017 17.2232 20.4048L15.9913 14.1189Z" fill="#D1884F"/>
<path id="PancakeSwap (CAKE)_7" d="M20.2783 26.6582C20.2783 27.8101 19.6581 28.7848 18.8606 28.7848C18.0631 28.7848 17.4429 27.8101 17.4429 26.6582C17.4429 25.5063 18.0631 24.5316 18.8606 24.5316C19.6581 24.5316 20.2783 25.5063 20.2783 26.6582Z" fill="#633001"/>
<path id="PancakeSwap (CAKE)_8" d="M30.2026 26.6582C30.2026 27.8101 29.5824 28.7848 28.7849 28.7848C27.9874 28.7848 27.3672 27.8101 27.3672 26.6582C27.3672 25.5063 27.9874 24.5316 28.7849 24.5316C29.5824 24.5316 30.2026 25.5063 30.2026 26.6582Z" fill="#633001"/>
</g>
</g>
</svg>
