<svg width="48" height="48" viewBox="0 0 48 48" fill="none" xmlns="http://www.w3.org/2000/svg">
<g id="Ren (REN)">
<circle id="Ren (REN)_2" cx="24" cy="24" r="24" fill="url(#paint0_linear_562_1001)"/>
<g id="Ren (REN)_3">
<path id="Ren (REN)_4" fill-rule="evenodd" clip-rule="evenodd" d="M13.5684 13.9792L16.1018 12.6331L16.3998 13.2314L25.639 7.84701L25.0429 7.39831L24.2978 6.94961L23.9998 6.80005L8.7998 15.6244V15.9235L13.1214 13.5305L13.5684 13.9792ZM13.5684 19.6627L20.8704 15.3253L21.1684 15.9236L30.5567 10.5392L29.8116 10.0905L29.0665 9.79141L28.7684 9.64185L8.7998 21.1584V21.4575L13.1214 19.0645L13.5684 19.6627ZM23.2547 16.821L13.5684 22.3549L13.1214 21.7566L8.7998 24.2992V23.8505L31.1527 10.9879L31.4508 11.1375L32.1959 11.5862L32.941 11.8853L23.5527 17.2697L23.2547 16.821ZM13.5684 25.047L25.639 18.167L25.9371 18.6157L35.3253 13.3809L34.5802 12.9322L33.8351 12.4835L33.5371 12.334L8.7998 26.6922V26.9914L13.1214 24.5983L13.5684 25.047ZM28.0233 19.5131L13.5684 27.8887L13.1214 27.2905L8.7998 29.8331V29.3844L35.9214 13.6801L36.3684 13.9792L36.9645 14.2783L37.7096 14.727L28.3214 20.1114L28.0233 19.5131ZM38.6037 15.3253L38.3057 15.0261L8.7998 32.2261V32.5253L13.1214 30.1322L13.5684 30.7305L28.0233 22.2053L28.3214 22.8035L39.1998 16.6713V15.6244L38.6037 15.3253ZM13.1214 32.8244L10.7371 34.3201L10.29 34.0209L39.1998 17.4192V19.3635L28.3214 25.6453L28.0234 25.047L13.4195 33.4227L13.1214 32.8244ZM28.0233 27.8887L28.3214 28.487L39.1998 22.0557V20.1113L12.6743 35.5165L13.1214 35.6661L15.5057 34.1705L15.9527 34.7687L28.0233 27.8887ZM18.039 35.6662L15.5057 37.0123L15.0586 36.8627L39.1998 22.9531V24.8975L28.3213 31.1792L28.0233 30.581L18.337 36.2644L18.039 35.6662ZM17.8899 38.3583L20.4233 37.0122L20.7213 37.6105L28.0233 33.4227L28.3213 34.0209L39.1997 27.7392V25.6453L17.4429 38.2087L17.8899 38.3583ZM20.2742 39.854L19.8271 39.5549L39.1997 28.4871V30.4314L28.3213 36.7131L28.0232 36.1149L23.1056 38.9566L22.8075 38.3584L20.2742 39.854ZM22.6586 41.2001L25.0429 39.7044L25.49 40.3027L28.0233 38.9566L28.3214 39.5549L39.1998 33.2731V31.1792L22.3606 41.0505L22.6586 41.2001ZM27.4273 8.74438L28.1724 9.19307L18.7841 14.5774L18.4861 13.9792L13.5684 16.8209L13.1214 16.2226L8.7998 18.7652V18.3166L26.3841 8.14612L26.6822 8.44525L27.4273 8.74438Z" fill="white"/>
</g>
</g>
<defs>
<linearGradient id="paint0_linear_562_1001" x1="0" y1="48" x2="48" y2="48" gradientUnits="userSpaceOnUse">
<stop stop-color="#001C3A"/>
<stop offset="0.6" stop-color="#001E3D"/>
<stop offset="0.7" stop-color="#001F3F"/>
<stop offset="1" stop-color="#002042"/>
</linearGradient>
</defs>
</svg>
