<svg width="48" height="48" viewBox="0 0 48 48" fill="none" xmlns="http://www.w3.org/2000/svg">
<g id="SHIBA INU (SHIB)">
<path id="SHIBA INU (SHIB)_2" fill-rule="evenodd" clip-rule="evenodd" d="M24 48C10.8 48 0 37.2002 0 23.8805C0.12 10.6808 10.8 -0.119007 24.12 0.000990408C37.32 0.120988 48 10.8008 48 24.2405C47.88 37.3202 37.2 48 24 48Z" fill="#E42D04"/>
<g id="SHIBA INU (SHIB)_3">
<path id="SHIBA INU (SHIB)_4" fill-rule="evenodd" clip-rule="evenodd" d="M24.4675 41.6C26.2095 41.6 30.678 40.8147 34.6164 37.6735C39.1451 34.0614 39.5718 32.047 39.847 30.748C39.8709 30.6351 39.8937 30.5274 39.9181 30.4245C39.9639 30.2299 39.9908 29.9656 40 29.6515C39.0487 29.4974 37.7154 29.4092 36.1595 29.5939C33.6147 29.896 31.6152 31.6327 30.9336 32.4633C30.5549 30.5756 28.7069 26.8 24.3444 26.8C19.9819 26.8 17.629 30.5756 16.9978 32.4633C16.5939 31.7585 15.0892 30.198 12.3021 29.5939C10.5788 29.2205 9.07553 29.405 8 29.7193C8.08491 31.123 8.54632 32.6202 9.77436 34.2C11.8874 36.9184 15.1661 38.597 16.6289 39.3459C16.7915 39.4291 16.9316 39.5009 17.0452 39.5613C18.1813 40.1654 21.2865 41.6 24.4675 41.6Z" fill="white"/>
<path id="SHIBA INU (SHIB)_5" fill-rule="evenodd" clip-rule="evenodd" d="M39.9964 29.5962C39.0457 29.4426 37.7131 29.3547 36.1581 29.5389C33.6148 29.84 31.6165 31.5718 30.9352 32.4C30.5568 30.5177 28.7098 26.753 24.3499 26.753C19.9899 26.753 17.6383 30.5177 17.0076 32.4C16.6039 31.6973 15.1001 30.1412 12.3145 29.5389C10.5922 29.1665 9.08987 29.3505 8.01497 29.664C7.93758 28.3875 8.17308 27.1886 8.4258 26.0753C8.84969 24.208 9.91445 21.7334 10.3938 20.7295C9.96491 19.7004 8.9708 16.784 8.4258 13.3506C7.88081 9.91723 8.80427 7.60319 9.33413 6.87534C10.192 7.10123 12.2408 7.80899 13.573 8.83299C14.9052 9.85699 16.954 12.1208 17.8118 13.1248C18.922 12.8236 21.7782 12.2212 24.3216 12.2212C26.8649 12.2212 29.3173 12.8236 30.2257 13.1248C30.9826 12.2212 32.8447 10.0979 34.2374 8.83299C35.6302 7.56805 37.8959 6.95064 38.8548 6.80005C39.107 7.12632 39.642 8.08005 39.7631 9.28475C39.9145 10.7906 39.4603 13.953 38.8548 16.0612C38.3703 17.7478 37.7445 19.7255 37.4923 20.5036C37.6184 20.7797 38.0524 21.6782 38.7791 23.0636C39.5496 24.5327 40.0477 27.844 39.9964 29.5962Z" fill="#FFAA35"/>
<path id="SHIBA INU (SHIB)_6" d="M27.575 36.2969C27.395 36.5377 27.2 36.9994 27.125 37.2001V37.1248L26.9 35.3184C26.475 35.3685 25.37 35.4689 24.35 35.4689C23.33 35.4689 22.125 35.3685 21.65 35.3184L21.575 37.1248C21.525 37.0495 21.395 36.8388 21.275 36.5979C21.125 36.2969 20.6 35.8453 20.6 35.6195C20.6 35.4388 20.35 35.0425 20.225 34.8668L20 34.5657H21.35L21.65 34.7915C21.9 34.7664 22.535 34.7464 23.075 34.8668C23.615 34.9872 23.9499 34.5156 24.05 34.2647V33.0604C23.825 32.9099 23.27 32.5636 22.85 32.383C22.325 32.1572 21.8 31.254 21.95 30.3508C22.1 29.4476 22.55 29.1465 22.85 29.2218C23.15 29.2971 25.1 29.1465 25.4 29.2218C25.7 29.2971 26.225 29.4476 26.45 29.8239C26.675 30.2003 26.525 31.7056 26.075 32.2325C25.715 32.654 25.025 32.96 24.725 33.0604V34.2647C24.725 34.4152 25.25 34.7915 25.325 34.8668C25.4 34.9421 26.525 34.8668 26.75 34.8668C26.93 34.8668 27.075 34.7163 27.125 34.641H28.4V34.9421C28.4 35.0926 28.175 35.77 28.1 35.8453C28.025 35.9205 27.8 35.9958 27.575 36.2969Z" fill="black"/>
<path id="SHIBA INU (SHIB)_7" d="M25.1617 35.8001L24.3998 36.4001L23.7903 35.8001L23.2569 36.0668L22.7998 35.6001H25.9998L25.5427 36.1334L25.1617 35.8001Z" fill="black"/>
<path id="SHIBA INU (SHIB)_8" d="M16.962 23.4924C16.0694 23.1231 15.1024 22.877 14.7305 22.8C14.6313 22.8513 14.433 23.0154 14.433 23.2616C14.433 23.5693 14.3586 23.877 14.433 24.4924C14.5073 25.1077 15.1024 25.4924 16.1438 25.9539C17.1852 26.4154 18.9704 26.8 20.235 26.8C21.4995 26.8 20.3094 25.4924 19.8631 25.1847C19.4167 24.877 18.0778 23.9539 16.962 23.4924Z" fill="black"/>
<path id="SHIBA INU (SHIB)_9" d="M18.1835 21.4509C17.5165 21.5702 16.5917 21.6 16.2127 21.6C15.8336 21.5504 15.0301 21.3167 14.8482 20.7799C14.6208 20.1089 15.2272 19.3634 15.9853 18.9906C16.7433 18.6178 17.7287 18.7669 18.3351 19.6616C18.9416 20.5563 19.0174 21.3018 18.1835 21.4509Z" fill="white"/>
<path id="SHIBA INU (SHIB)_10" d="M31.8379 23.0923C32.7305 22.7231 33.6975 22.4769 34.0694 22.4C34.1686 22.4513 34.3669 22.6154 34.3669 22.8616C34.3669 23.1693 34.4413 23.4769 34.3669 24.0923C34.2926 24.7077 33.6975 25.0923 32.6561 25.5539C31.6147 26.0154 29.8295 26.4 28.5649 26.4C27.3004 26.4 28.4905 25.0923 28.9368 24.7846C29.3832 24.4769 30.7221 23.5539 31.8379 23.0923Z" fill="black"/>
<path id="SHIBA INU (SHIB)_11" d="M29.4161 21.4509C30.0831 21.5702 31.0079 21.6 31.3869 21.6C31.766 21.5503 32.5695 21.3167 32.7514 20.7799C32.9788 20.1089 32.3724 19.3634 31.6144 18.9906C30.8563 18.6178 29.8709 18.7669 29.2645 19.6616C28.658 20.5563 28.5822 21.3018 29.4161 21.4509Z" fill="white"/>
<path id="SHIBA INU (SHIB)_12" d="M12.9718 15.8698C12.4267 16.4652 11.3819 17.8047 10.9277 18.4C10.6249 17.7551 9.95865 16.0335 9.71638 14.307C9.47412 12.5805 9.66591 9.91633 9.79209 8.80005C10.1202 8.82486 11.0791 9.09772 12.2904 9.99075C13.5018 10.8838 15.2683 12.5458 16.0001 13.2652C15.2178 13.8853 13.5169 15.2745 12.9718 15.8698Z" fill="#FF8C30"/>
<path id="SHIBA INU (SHIB)_13" fill-rule="evenodd" clip-rule="evenodd" d="M9.6001 10.2176C10.7907 10.7144 12.3579 11.4739 13.0146 12.1603C13.6809 12.8567 14.267 13.7784 14.6149 14.4C15.1373 13.9669 15.6564 13.5508 16.0001 13.2804C15.2601 12.5586 13.4739 10.8909 12.2491 9.99482C11.0243 9.09874 10.0547 8.82494 9.72298 8.80005C9.68337 9.14776 9.63738 9.64516 9.6001 10.2176Z" fill="#FF9A32"/>
<path id="SHIBA INU (SHIB)_14" d="M34.6284 15.8698C35.1735 16.4652 36.2183 17.8047 36.6725 18.4C36.9753 17.7551 37.6416 16.0335 37.8838 14.307C38.1261 12.5805 37.9342 9.91633 37.8081 8.80005C37.48 8.82486 36.5211 9.09772 35.3098 9.99075C34.0984 10.8838 32.3319 12.5458 31.6001 13.2652C32.3825 13.8853 34.0833 15.2745 34.6284 15.8698Z" fill="#FF8C30"/>
<path id="SHIBA INU (SHIB)_15" fill-rule="evenodd" clip-rule="evenodd" d="M38.0001 10.2176C36.8094 10.7144 35.2423 11.4739 34.5855 12.1603C33.9192 12.8567 33.3332 13.7784 32.9853 14.4C32.463 13.9669 31.9438 13.5508 31.6001 13.2804C32.34 12.5586 34.1262 10.8909 35.351 9.99482C36.5758 9.09874 37.5454 8.82494 37.8772 8.80005C37.9168 9.14776 37.9627 9.64516 38.0001 10.2176Z" fill="#FF9A32"/>
</g>
</g>
</svg>
