<svg width="48" height="48" viewBox="0 0 48 48" fill="none" xmlns="http://www.w3.org/2000/svg">
<g id="Solana (SOL)">
<circle id="Solana (SOL)_2" cx="24" cy="24" r="24" fill="black"/>
<g id="Solana (SOL)_3">
<path id="Solana (SOL)_4" d="M14.8779 29.6859C15.0442 29.5196 15.2729 29.4225 15.5154 29.4225H37.5104C37.9124 29.4225 38.1133 29.9076 37.8292 30.1917L33.4843 34.5367C33.3179 34.703 33.0893 34.8 32.8467 34.8H10.8517C10.4498 34.8 10.2488 34.3149 10.533 34.0308L14.8779 29.6859Z" fill="url(#paint0_linear_562_1088)"/>
<path id="Solana (SOL)_5" d="M14.8779 13.4633C15.0512 13.297 15.2798 13.2 15.5154 13.2H37.5104C37.9124 13.2 38.1133 13.6851 37.8292 13.9692L33.4843 18.3142C33.3179 18.4805 33.0893 18.5775 32.8467 18.5775H10.8517C10.4498 18.5775 10.2488 18.0924 10.533 17.8083L14.8779 13.4633Z" fill="url(#paint1_linear_562_1088)"/>
<path id="Solana (SOL)_6" d="M33.4843 21.5226C33.3179 21.3563 33.0893 21.2593 32.8467 21.2593H10.8517C10.4498 21.2593 10.2488 21.7444 10.533 22.0285L14.8779 26.3734C15.0442 26.5397 15.2729 26.6368 15.5154 26.6368H37.5104C37.9124 26.6368 38.1133 26.1517 37.8292 25.8676L33.4843 21.5226Z" fill="url(#paint2_linear_562_1088)"/>
</g>
</g>
<defs>
<linearGradient id="paint0_linear_562_1088" x1="-39.3126" y1="9.11952" x2="-39.8978" y2="38.5672" gradientUnits="userSpaceOnUse">
<stop stop-color="#00FFA3"/>
<stop offset="1" stop-color="#DC1FFF"/>
</linearGradient>
<linearGradient id="paint1_linear_562_1088" x1="-45.9686" y1="5.64451" x2="-46.5538" y2="35.0922" gradientUnits="userSpaceOnUse">
<stop stop-color="#00FFA3"/>
<stop offset="1" stop-color="#DC1FFF"/>
</linearGradient>
<linearGradient id="paint2_linear_562_1088" x1="-42.6618" y1="7.37092" x2="-43.247" y2="36.8186" gradientUnits="userSpaceOnUse">
<stop stop-color="#00FFA3"/>
<stop offset="1" stop-color="#DC1FFF"/>
</linearGradient>
</defs>
</svg>
