<svg width="48" height="48" viewBox="0 0 48 48" fill="none" xmlns="http://www.w3.org/2000/svg">
<g id="Stellar (XLM)">
<circle id="Stellar (XLM)_2" cx="24" cy="24" r="24" fill="black"/>
<g id="Stellar (XLM)_3">
<path id="Stellar (XLM)_4" d="M36.2442 13.3443L32.1723 15.4189L12.5097 25.434C12.4432 24.9269 12.4097 24.416 12.4095 23.9046C12.415 19.7524 14.6183 15.9133 18.2007 13.814C21.7832 11.7146 26.2093 11.6688 29.8345 13.6934L32.1651 12.5059L32.5128 12.3285C28.1594 9.16878 22.4017 8.71785 17.6095 11.1613C12.8174 13.6048 9.80072 18.5297 9.80128 23.9089C9.80128 24.2732 9.81511 24.6362 9.84277 24.9977C9.92198 26.0444 9.36454 27.0363 8.4292 27.5129L7.2002 28.1396V31.0626L10.8185 29.2183L11.9903 28.6203L13.1449 28.0323L33.8734 17.4706L36.2027 16.2845L41.0171 13.8308V10.9092L36.2442 13.3443Z" fill="white"/>
<path id="Stellar (XLM)_5" d="M41.0171 16.7552L14.3224 30.3472L11.9932 31.5362L7.2002 33.9785V36.8986L11.9603 34.4735L16.0321 32.3989L35.7148 22.3695C35.7813 22.8799 35.8148 23.3942 35.8149 23.9089C35.8124 28.0661 33.6065 31.9105 30.0188 34.0106C26.431 36.1107 21.9989 36.1518 18.3728 34.1187L18.2297 34.1945L15.7031 35.4822C20.0554 38.642 25.8121 39.094 30.6042 36.6522C35.3964 34.2104 38.4143 29.2873 38.416 23.9089C38.416 23.5412 38.4017 23.1735 38.3745 22.8101C38.2954 21.7638 38.8521 20.7722 39.7867 20.2949L41.0171 19.6682V16.7552Z" fill="white"/>
</g>
</g>
</svg>
