<svg width="48" height="48" viewBox="0 0 48 48" fill="none" xmlns="http://www.w3.org/2000/svg">
<g id="Terra (LUNA)">
<circle id="Terra (LUNA)_2" cx="24" cy="24" r="24" fill="#172852"/>
<g id="Terra (LUNA)_3">
<path id="Terra (LUNA)_4" d="M19.3317 10.7256C22.1421 9.67437 25.3053 9.67197 28.1685 10.536C31.8957 11.6928 35.0421 14.5056 36.6861 18.036C37.1397 19.0416 37.5741 20.0904 37.6173 21.2088C35.5221 19.9944 33.2253 19.2072 30.9237 18.4896C27.2421 17.1624 23.3877 16.2408 19.9029 14.4168C19.0917 13.932 18.0573 13.4352 17.8365 12.4248C17.7477 11.5512 18.6717 11.064 19.3317 10.7256Z" fill="#FFD83D"/>
<path id="Terra (LUNA)_5" d="M10.8478 19.2216C11.6614 17.0136 12.9958 14.964 14.8078 13.4448C15.2686 17.2344 16.8814 20.8968 19.5454 23.652C22.7398 26.9712 27.2902 29.0088 31.9198 28.932C33.7582 28.9896 35.5558 28.5648 37.3486 28.2216C35.5846 34.596 28.5982 38.8272 22.1254 37.8096C18.2182 37.3104 14.611 34.9968 12.4342 31.7304C9.97899 28.1208 9.35979 23.328 10.8478 19.2216Z" fill="#FFD83D"/>
</g>
<path id="Terra (LUNA)_6" d="M30.9238 18.4896C33.2254 19.2072 35.5222 19.9944 37.6174 21.2088L37.759 21.2832C37.9534 22.7448 38.095 24.2352 37.8358 25.6992C36.7822 25.2528 35.9278 24.468 35.035 23.7744C33.3166 22.344 31.5622 20.7072 30.9238 18.4896Z" fill="#FF6F03"/>
</g>
</svg>
