<svg width="48" height="48" viewBox="0 0 48 48" fill="none" xmlns="http://www.w3.org/2000/svg">
<g id="Tether (USDT)">
<path id="Tether (USDT)_2" d="M47.2766 29.8057C44.0712 42.663 31.0489 50.4877 18.1901 47.2815C5.33667 44.0761 -2.48802 31.053 0.718765 18.1967C3.92273 5.33806 16.9451 -2.48721 29.7999 0.718162C42.6577 3.92354 50.4819 16.9481 47.2762 29.806L47.2765 29.8057H47.2766Z" fill="#50AF95"/>
<path id="Tether (USDT)_3" fill-rule="evenodd" clip-rule="evenodd" d="M27.0368 26.7209C26.8671 26.7336 25.9903 26.786 24.0345 26.786C22.4789 26.786 21.3744 26.7393 20.9869 26.7209C14.9752 26.4565 10.488 25.41 10.488 24.157C10.488 22.904 14.9752 21.859 20.9869 21.5903V25.6787C21.3801 25.707 22.5057 25.7734 24.0613 25.7734C25.9281 25.7734 26.8628 25.6956 27.0311 25.6801V21.5931C33.0301 21.8604 37.5074 22.9069 37.5074 24.157C37.5074 25.4071 33.0315 26.4536 27.0311 26.7195L27.0368 26.7209ZM27.0368 21.1702V17.5117H35.4088V11.9328H12.615V17.5117H20.9856V21.1688C14.1819 21.4814 9.06543 22.8291 9.06543 24.4441C9.06543 26.0591 14.1819 27.4054 20.9856 27.7193V39.4429H27.0354V27.7151C33.8235 27.4025 38.9315 26.0562 38.9315 24.4426C38.9315 22.8291 33.8277 21.4828 27.0354 21.1688L27.0368 21.1702Z" fill="white"/>
</g>
</svg>
