<svg width="48" height="48" viewBox="0 0 48 48" fill="none" xmlns="http://www.w3.org/2000/svg">
<g id="Tezos (XTZ)">
<path id="Tezos (XTZ)_2" d="M47.2766 29.8057C44.0712 42.663 31.0489 50.4877 18.1901 47.2815C5.33667 44.0761 -2.48802 31.053 0.718765 18.1967C3.92273 5.33806 16.9451 -2.48721 29.7999 0.718162C42.6577 3.92354 50.4819 16.9481 47.2762 29.806L47.2765 29.8057H47.2766Z" fill="#2C7DF7"/>
<g id="Tezos (XTZ)_3">
<path id="Tezos (XTZ)_4" d="M27.5799 40C25.2964 40 23.6298 39.45 22.5798 38.3499C21.6072 37.4188 21.0428 36.1405 21.01 34.7944C20.9981 34.3855 21.0929 33.9805 21.285 33.6192C21.4641 33.3071 21.7229 33.0482 22.0348 32.8688C22.77 32.5021 23.6347 32.5021 24.3699 32.8688C24.6813 33.0475 24.9388 33.3067 25.1155 33.6192C25.3131 33.9787 25.4114 34.3843 25.4004 34.7944C25.4208 35.2841 25.2803 35.767 25.0004 36.1694C24.7671 36.4978 24.4337 36.7418 24.0501 36.8648C24.4252 37.3425 24.956 37.6734 25.55 37.7999C26.2146 37.993 26.9029 38.0922 27.595 38.0948C28.5112 38.1028 29.4086 37.8345 30.17 37.3249C30.9599 36.7668 31.549 35.9691 31.85 35.0499C32.2315 33.956 32.4176 32.8034 32.4 31.645C32.4307 30.4373 32.227 29.2351 31.8 28.1049C31.4788 27.201 30.8691 26.4279 30.065 25.9049C29.3175 25.4319 28.4499 25.1838 27.5654 25.19C26.7947 25.2553 26.0515 25.5076 25.4004 25.925L23.7949 26.7299V25.925L31.0099 16.2461H21.01V26.29C20.9817 27.0148 21.1734 27.7312 21.56 28.345C21.9403 28.889 22.5776 29.1943 23.2399 29.1499C23.8416 29.1377 24.4234 28.9327 24.8998 28.5649C25.4397 28.1692 25.9096 27.6859 26.2899 27.1349C26.3241 27.0383 26.3872 26.9545 26.4706 26.895C26.5376 26.8371 26.6232 26.8052 26.7117 26.805C26.8854 26.8209 27.0498 26.8908 27.1818 27.0049C27.3489 27.1917 27.4398 27.4343 27.4367 27.6849C27.4174 27.8533 27.3873 28.0203 27.3467 28.1849C26.9914 29.0447 26.396 29.784 25.6316 30.3142C24.9216 30.7946 24.0831 31.0493 23.2259 31.045C21.0608 31.045 19.5609 30.6183 18.7262 29.765C17.8595 28.8122 17.4126 27.5508 17.4861 26.2649V16.2461H12.3999V14.3799H17.5099V10.1249L16.3399 8.95417V8H19.7348L21.01 8.66009V14.3799L34.2197 14.3397L35.5349 15.6597L27.4349 23.7991C27.9242 23.6023 28.4396 23.4777 28.9648 23.4291C30.0042 23.4746 31.0184 23.7641 31.9253 24.2742C32.9755 24.7733 33.8605 25.5631 34.4755 26.5499C35.0265 27.3853 35.4165 28.3163 35.6255 29.2949C35.7973 30.0669 35.8894 30.8544 35.9005 31.6452C35.9058 33.1543 35.5637 34.6444 34.9005 36.0001C34.2716 37.3128 33.2131 38.3713 31.9004 39.0002C30.5567 39.6623 29.0779 40.0045 27.5799 40Z" fill="white"/>
</g>
</g>
</svg>
