<svg width="48" height="48" viewBox="0 0 48 48" fill="none" xmlns="http://www.w3.org/2000/svg">
<g id="USD Coin (USDC)">
<path id="USD Coin (USDC)_2" d="M24 48C37.3001 48 48 37.3001 48 24C48 10.6999 37.3001 0 24 0C10.6999 0 0 10.6999 0 24C0 37.3001 10.6999 48 24 48Z" fill="#2775CA"/>
<path id="USD Coin (USDC)_3" d="M30.6001 27.8C30.6001 24.3 28.5001 23.1 24.3001 22.6001C21.3001 22.2 20.7001 21.4001 20.7001 20C20.7001 18.5998 21.7002 17.7 23.7001 17.7C25.5001 17.7 26.5002 18.3 27.0001 19.8C27.1002 20.1 27.4002 20.3 27.7002 20.3H29.3C29.7001 20.3 30.0001 20 30.0001 19.6001V19.5C29.6 17.3 27.8 15.6 25.5001 15.4001V13.0001C25.5001 12.6 25.2001 12.3 24.7002 12.2H23.2002C22.8001 12.2 22.5001 12.5 22.4 13.0001V15.3C19.4 15.7001 17.5002 17.7 17.5002 20.2001C17.5002 23.5001 19.5001 24.8 23.7001 25.3001C26.5002 25.8 27.4002 26.4 27.4002 28.0001C27.4002 29.6002 26 30.7001 24.1002 30.7001C21.5 30.7001 20.6 29.6 20.3 28.0999C20.2002 27.7001 19.9002 27.5 19.6002 27.5H17.9C17.5002 27.5 17.2002 27.7999 17.2002 28.2V28.3001C17.6 30.7999 19.2001 32.6 22.5001 33.1001V35.5001C22.5001 35.9 22.8001 36.1999 23.3 36.3H24.8C25.2001 36.3 25.5001 36 25.6002 35.5001V33.1001C28.6002 32.6 30.6001 30.5 30.6001 27.8Z" fill="white"/>
<path id="USD Coin (USDC)_4" fill-rule="evenodd" clip-rule="evenodd" d="M10.0001 19.0999C7.09992 26.8001 11.1 35.5001 18.9 38.2999C19.2 38.5001 19.5 38.8999 19.5 39.1999V40.6001C19.5 40.8 19.5 40.9001 19.3999 40.9999C19.3001 41.4 18.9 41.5999 18.4999 41.4C12.9 39.6 8.59992 35.2999 6.79992 29.7C3.79992 20.2001 9 10.0999 18.4999 7.0999C18.6 7.00006 18.7999 7.00006 18.9 7.00006C19.3001 7.0999 19.5 7.3999 19.5 7.79998V9.1999C19.5 9.70006 19.3001 10.0001 18.9 10.2C14.8001 11.7 11.5001 14.8999 10.0001 19.0999ZM28.6001 7.49999C28.6999 7.09991 29.1 6.89999 29.5001 7.09991C34.9999 8.89991 39.4001 13.2 41.2001 18.9C44.2001 28.3999 39 38.5001 29.5001 41.5001C29.4 41.5999 29.2001 41.5999 29.1 41.5999C28.6999 41.5001 28.5 41.2001 28.5 40.8V39.4001C28.5 38.8999 28.6999 38.5999 29.1 38.4C33.1999 36.9 36.4999 33.7001 37.9999 29.5001C40.9001 21.7999 36.9 13.0999 29.1 10.3001C28.8 10.0999 28.5 9.70007 28.5 9.29999V7.90007C28.5 7.69991 28.5 7.60007 28.6001 7.49999Z" fill="white"/>
</g>
</svg>
