<svg width="48" height="48" viewBox="0 0 48 48" fill="none" xmlns="http://www.w3.org/2000/svg">
<g id="VeChain (VET)">
<circle id="VeChain (VET)_2" cx="24" cy="24" r="24" fill="#51CBFF"/>
<g id="VeChain (VET)_3">
<path id="VeChain (VET)_4" d="M21.9514 36.7398L9.26526 10.9002C9.05911 10.4879 9.36908 10 9.82586 10H14.2217C14.4575 10 14.6785 10.1335 14.7823 10.3396L24.047 29.0856C24.8731 30.7674 27.2623 30.7674 28.0884 29.0856L37.3235 10.3545C37.4273 10.1483 37.6483 10.0148 37.8841 10.0148H38.4298C38.7546 10.0148 38.9608 10.3545 38.814 10.6348L25.9943 36.7398C25.1682 38.4201 22.7775 38.4201 21.9514 36.7398Z" fill="white"/>
<path id="VeChain (VET)_5" opacity="0.1" d="M21.9514 36.7397L14.7822 10.3544C14.6784 10.1334 14.4426 10.0148 14.2513 10.0148H9.84066C9.35421 10.0148 9.07391 10.5012 9.26523 10.915L21.9514 36.7397Z" fill="white"/>
<path id="VeChain (VET)_6" opacity="0.1" d="M24.0472 29.099L9.26544 10.9002C9.08895 10.4731 9.35442 10.0445 9.76672 10H14.2367C14.4873 10.0148 14.6786 10.1765 14.7676 10.3396L24.0472 29.099Z" fill="white"/>
</g>
</g>
</svg>
